<?xml version="1.0" encoding="UTF-8" standalone="no"?>
<!-- Created with Inkscape (http://www.inkscape.org/) -->
<svg
   xmlns:dc="http://purl.org/dc/elements/1.1/"
   xmlns:cc="http://web.resource.org/cc/"
   xmlns:rdf="http://www.w3.org/1999/02/22-rdf-syntax-ns#"
   xmlns:svg="http://www.w3.org/2000/svg"
   xmlns="http://www.w3.org/2000/svg"
   xmlns:sodipodi="http://sodipodi.sourceforge.net/DTD/sodipodi-0.dtd"
   xmlns:inkscape="http://www.inkscape.org/namespaces/inkscape"
   width="744.09448819"
   height="1052.3622047"
   id="svg4501"
   sodipodi:version="0.32"
   inkscape:version="0.44.1"
   sodipodi:docbase="/home/beppe/Desktop/Grafie/Geomorfologica/Veneto/Glaciali e periglaciali"
   sodipodi:docname="sella con modellamento glaciale.svg">
  <defs
     id="defs4503" />
  <sodipodi:namedview
     id="base"
     pagecolor="#ffffff"
     bordercolor="#666666"
     borderopacity="1.0"
     inkscape:pageopacity="0.0"
     inkscape:pageshadow="2"
     inkscape:zoom="0.35"
     inkscape:cx="375"
     inkscape:cy="520"
     inkscape:document-units="px"
     inkscape:current-layer="layer1"
     inkscape:window-width="959"
     inkscape:window-height="589"
     inkscape:window-x="173"
     inkscape:window-y="0" />
  <metadata
     id="metadata4506">
    <rdf:RDF>
      <cc:Work
         rdf:about="">
        <dc:format>image/svg+xml</dc:format>
        <dc:type
           rdf:resource="http://purl.org/dc/dcmitype/StillImage" />
      </cc:Work>
    </rdf:RDF>
  </metadata>
  <g
     inkscape:label="Livello 1"
     inkscape:groupmode="layer"
     id="layer1">
    <g
       id="g4514">
      <path
         d="M 363.19757,520.18101 L 363.20133,520.18101 L 363.21382,520.19351 L 363.23383,520.21851 L 363.26258,520.25601 L 363.29757,520.30601 L 363.34132,520.35601 L 363.39257,520.40601 L 363.45132,520.48101 L 363.51757,520.55601 L 363.59132,520.64351 L 363.75882,520.81851 L 363.95382,521.03101 L 364.17507,521.26851 L 364.42131,521.5185 L 364.69381,521.781 L 364.98881,522.0685 L 365.30631,522.35599 L 365.64631,522.656 L 366.00755,522.95599 L 366.38756,523.26849 L 366.78755,523.56849 L 367.20505,523.86849 L 367.64005,524.16849 L 368.09129,524.45598 L 368.55754,524.73098 L 369.03754,524.99348 L 369.53128,525.24347 L 370.03753,525.46847 L 370.55503,525.66848 L 371.08378,525.84347 L 371.62127,525.98097 L 372.16877,526.10597 L 372.72251,526.18097 L 373.00251,526.20597 L 373.28376,526.23097 L 373.56626,526.24348 L 373.85126,526.23097 L 374.13625,526.21847 L 374.4225,526.19347 L 374.71,526.16847 L 374.99875,526.11847 C 381.16621,524.99348 382.9662,517.69353 382.5162,515.66854"
         style="font-style:normal;font-variant:normal;font-weight:normal;font-stretch:normal;letter-spacing:normal;word-spacing:normal;text-anchor:start;fill:none;fill-opacity:1;stroke:black;stroke-width:1.24999201;stroke-linecap:round;stroke-linejoin:round;stroke-miterlimit:10.43299961;stroke-dasharray:none;stroke-dashoffset:0;stroke-opacity:1"
         id="path252" />
      <path
         d="M 392.29114,544.08086 L 392.29114,544.08086 L 392.27864,544.05586 L 392.25364,544.01836 L 392.22864,543.96836 L 392.19114,543.90586 L 392.15364,543.81836 L 392.09114,543.73086 L 392.04114,543.63086 L 391.96614,543.51836 L 391.89114,543.40586 L 391.81614,543.26836 L 391.71614,543.13087 L 391.51615,542.81836 L 391.29115,542.48086 L 391.02865,542.10587 L 390.74115,541.71837 L 390.42865,541.31837 L 390.09115,540.89338 L 389.72865,540.46838 L 389.34116,540.04338 L 388.92866,539.60588 L 388.49116,539.18089 L 388.02867,538.76839 L 387.55367,538.36839 L 387.05367,537.9934 L 386.52868,537.6309 L 385.97868,537.3059 L 385.41618,537.00591 L 384.82869,536.74341 L 384.52869,536.63091 L 384.22869,536.51841 L 383.92869,536.43091 L 383.61619,536.3434 L 383.2912,536.28091 L 382.9787,536.2309 L 382.6537,536.18091 L 382.3287,536.15591 L 381.99121,536.14341 L 381.65371,536.14341 L 381.31621,536.16841 L 380.96621,536.20591 L 380.62872,536.25591 L 380.27872,536.33091 L 379.91622,536.41841 L 379.56622,536.51841 L 379.20372,536.64341 L 378.84122,536.7934 C 372.51877,539.49339 375.67749,549.05583 375.67749,549.05583"
         style="font-style:normal;font-variant:normal;font-weight:normal;font-stretch:normal;letter-spacing:normal;word-spacing:normal;text-anchor:start;fill:none;fill-opacity:1;stroke:black;stroke-width:1.24999201;stroke-linecap:round;stroke-linejoin:round;stroke-miterlimit:10.43299961;stroke-dasharray:none;stroke-dashoffset:0;stroke-opacity:1"
         id="path254" />
      <path
         d="M 391.39115,526.34347 C 391.39115,526.34347 372.96751,533.85592 366.12756,535.21841"
         style="font-style:normal;font-variant:normal;font-weight:normal;font-stretch:normal;letter-spacing:normal;word-spacing:normal;text-anchor:start;fill:none;fill-opacity:1;stroke:black;stroke-width:1.24999201;stroke-linecap:round;stroke-linejoin:round;stroke-miterlimit:10.43299961;stroke-dasharray:none;stroke-dashoffset:0;stroke-opacity:1"
         id="path256" />
      <polygon
         transform="matrix(1.249992,0,0,-1.249992,251.6795,762.1795)"
         points="93.184,177.78 88.852,184.7 84.824,178.15 93.184,177.78 "
         style="font-style:normal;font-variant:normal;font-weight:normal;font-stretch:normal;letter-spacing:normal;word-spacing:normal;text-anchor:start;fill:black;fill-opacity:1;fill-rule:nonzero;stroke:black;stroke-width:0;stroke-linecap:butt;stroke-linejoin:round;stroke-miterlimit:10.43299961;stroke-dasharray:none;stroke-dashoffset:0;stroke-opacity:1"
         id="polygon258" />
      <polygon
         transform="matrix(1.249992,0,0,-1.249992,251.6795,762.1795)"
         points="93.184,177.78 88.852,184.7 84.824,178.15 93.184,177.78 "
         style="font-style:normal;font-variant:normal;font-weight:normal;font-stretch:normal;letter-spacing:normal;word-spacing:normal;text-anchor:start;fill:none;fill-opacity:1;stroke:black;stroke-width:1;stroke-linecap:butt;stroke-linejoin:round;stroke-miterlimit:10.43299961;stroke-dasharray:none;stroke-dashoffset:0;stroke-opacity:1"
         id="polygon260" />
    </g>
  </g>
</svg>
