<?xml version="1.0" encoding="UTF-8" standalone="no"?>
<!-- Created with Inkscape (http://www.inkscape.org/) -->
<svg
   xmlns:dc="http://purl.org/dc/elements/1.1/"
   xmlns:cc="http://web.resource.org/cc/"
   xmlns:rdf="http://www.w3.org/1999/02/22-rdf-syntax-ns#"
   xmlns:svg="http://www.w3.org/2000/svg"
   xmlns="http://www.w3.org/2000/svg"
   xmlns:sodipodi="http://sodipodi.sourceforge.net/DTD/sodipodi-0.dtd"
   xmlns:inkscape="http://www.inkscape.org/namespaces/inkscape"
   width="744.09448819"
   height="1052.3622047"
   id="svg2605"
   sodipodi:version="0.32"
   inkscape:version="0.44.1"
   sodipodi:docbase="/home/beppe/Desktop/Grafie/Geolitologica/Veneto/Geognostica e geofisica"
   sodipodi:docname="prospezione_elettrica.svg">
  <defs
     id="defs2607" />
  <sodipodi:namedview
     id="base"
     pagecolor="#ffffff"
     bordercolor="#666666"
     borderopacity="1.0"
     inkscape:pageopacity="0.0"
     inkscape:pageshadow="2"
     inkscape:zoom="5.6"
     inkscape:cx="375"
     inkscape:cy="520"
     inkscape:document-units="px"
     inkscape:current-layer="layer1"
     inkscape:window-width="1280"
     inkscape:window-height="1000"
     inkscape:window-x="0"
     inkscape:window-y="0" />
  <metadata
     id="metadata2610">
    <rdf:RDF>
      <cc:Work
         rdf:about="">
        <dc:format>image/svg+xml</dc:format>
        <dc:type
           rdf:resource="http://purl.org/dc/dcmitype/StillImage" />
      </cc:Work>
    </rdf:RDF>
  </metadata>
  <g
     inkscape:label="Livello 1"
     inkscape:groupmode="layer"
     id="layer1">
    <g
       id="g2760">
      <polygon
         transform="matrix(1.249992,0,0,-1.249992,264.0682,997.7467)"
         points="77.906,361.47 99.586,361.47 99.586,383.15 77.906,383.15 77.906,361.47 "
         style="font-style:normal;font-variant:normal;font-weight:normal;font-stretch:normal;letter-spacing:normal;word-spacing:normal;text-anchor:start;fill:white;fill-opacity:1;stroke:black;stroke-width:1;stroke-linecap:butt;stroke-linejoin:miter;stroke-miterlimit:10.43299961;stroke-dasharray:none;stroke-dashoffset:0;stroke-opacity:1"
         id="polygon196" />
      <path
         d="M 378.25747,535.19966 L 378.25747,535.18716 L 378.25622,535.17466 L 378.25622,535.16216 L 378.25622,535.14966 L 378.25622,535.12466 L 378.25497,535.09966 L 378.25247,535.08716 L 378.25122,535.06216 L 378.24872,535.04966 L 378.24622,535.02466 L 378.24247,535.01216 L 378.23872,534.99966 L 378.23372,534.98716 L 378.22872,534.97466 L 378.22247,534.96216 L 378.21622,534.94966 L 378.20997,534.93717 L 378.20122,534.93717 L 378.19247,534.92466 L 378.18247,534.92466 L 378.17247,534.91216 L 378.16122,534.91216 L 378.14872,534.89966 L 378.13622,534.89966 L 378.12122,534.88716 L 378.10622,534.88716 L 378.08997,534.88716 L 378.07247,534.88716 L 378.05497,534.88716 L 378.03497,534.87466 L 378.01372,534.87466 L 377.99247,534.87466 L 377.96872,534.87466 L 377.95747,534.87466 L 377.94497,534.87466 L 374.73124,534.87466 L 374.73124,531.93718 L 377.27998,531.93718 C 377.53872,531.93718 377.59748,531.89968 377.59748,531.62468 L 377.59748,530.63719 C 377.59748,530.36219 377.55372,530.31219 377.27998,530.31219 L 374.73124,530.31219 L 374.73124,527.83721 L 377.64122,527.83721 C 377.76372,527.83721 377.92997,527.82471 377.98872,527.59971 L 378.27122,526.59972 C 378.30122,526.49972 378.31497,526.46222 378.31497,526.38722 C 378.31497,526.24972 378.24247,526.22472 377.94497,526.22472 L 373.0225,526.22472 C 372.76875,526.22472 372.705,526.27472 372.705,526.53721 L 372.705,536.18716 C 372.705,536.44966 372.76875,536.49965 373.0225,536.49965 L 377.95872,536.49965 C 378.21247,536.49965 378.25747,536.44966 378.25747,536.18716 L 378.25747,535.19966 z "
         style="font-style:normal;font-variant:normal;font-weight:normal;font-stretch:normal;letter-spacing:normal;word-spacing:normal;text-anchor:start;fill:black;fill-opacity:1;stroke:black;stroke-width:0;stroke-linecap:butt;stroke-linejoin:miter;stroke-miterlimit:10.43299961;stroke-dasharray:none;stroke-dashoffset:0;stroke-opacity:1"
         id="path194" />
    </g>
  </g>
</svg>
