<?xml version="1.0" encoding="UTF-8" standalone="no"?>
<!-- Created with Inkscape (http://www.inkscape.org/) -->
<svg
   xmlns:dc="http://purl.org/dc/elements/1.1/"
   xmlns:cc="http://web.resource.org/cc/"
   xmlns:rdf="http://www.w3.org/1999/02/22-rdf-syntax-ns#"
   xmlns:svg="http://www.w3.org/2000/svg"
   xmlns="http://www.w3.org/2000/svg"
   xmlns:sodipodi="http://sodipodi.sourceforge.net/DTD/sodipodi-0.dtd"
   xmlns:inkscape="http://www.inkscape.org/namespaces/inkscape"
   width="744.09448819"
   height="1052.3622047"
   id="svg2572"
   sodipodi:version="0.32"
   inkscape:version="0.44.1"
   sodipodi:docbase="/home/beppe/Desktop/Grafie"
   sodipodi:docname="sondaggio.svg">
  <defs
     id="defs2574" />
  <sodipodi:namedview
     id="base"
     pagecolor="#ffffff"
     bordercolor="#666666"
     borderopacity="1.0"
     inkscape:pageopacity="0.0"
     inkscape:pageshadow="2"
     inkscape:zoom="0.35"
     inkscape:cx="375"
     inkscape:cy="520"
     inkscape:document-units="px"
     inkscape:current-layer="layer1"
     inkscape:window-width="959"
     inkscape:window-height="589"
     inkscape:window-x="312"
     inkscape:window-y="400" />
  <metadata
     id="metadata2577">
    <rdf:RDF>
      <cc:Work
         rdf:about="">
        <dc:format>image/svg+xml</dc:format>
        <dc:type
           rdf:resource="http://purl.org/dc/dcmitype/StillImage" />
      </cc:Work>
    </rdf:RDF>
  </metadata>
  <g
     inkscape:label="Livello 1"
     inkscape:groupmode="layer"
     id="layer1">
    <g
       transform="matrix(720,0,0,720,285.2095,300.5644)"
       id="g2567">
      <polyline
         transform="matrix(1.7361e-3,0,0,-1.7361e-3,-3.125e-2,1.1875)"
         points="72.328,512.24 107.34,512.24 89.828,485.31 "
         style="font-style:normal;font-variant:normal;font-weight:normal;font-stretch:normal;letter-spacing:normal;word-spacing:normal;text-anchor:start;fill:white;fill-opacity:1;stroke:white;stroke-width:0;stroke-linecap:butt;stroke-linejoin:miter;stroke-miterlimit:10.43299961;stroke-dasharray:none;stroke-dashoffset:0;stroke-opacity:1"
         id="polyline182" />
      <path
         d="M 0.1281396,0.30748827 L 0.12814655,0.30748827 L 0.12815176,0.30747091 L 0.1281587,0.30745355 L 0.12816391,0.30743619 L 0.12817085,0.30743619 L 0.12817606,0.30741883 L 0.12818127,0.30740147 L 0.12818474,0.30740147 L 0.12818995,0.30738411 L 0.12819342,0.30736674 L 0.12819863,0.30736674 L 0.1282021,0.30734938 L 0.12820558,0.30734938 L 0.12820905,0.30733202 L 0.12821078,0.30733202 L 0.12821426,0.30731466 L 0.12821773,0.30731466 L 0.12821947,0.3072973 L 0.1282212,0.3072973 L 0.12822294,0.30727994 L 0.12822467,0.30727994 L 0.12822641,0.30726258 L 0.12822815,0.30726258 L 0.12822988,0.30726258 L 0.12822988,0.30724522 L 0.12823162,0.30724522 L 0.12823162,0.30722786 L 0.12823335,0.30722786 L 0.12823335,0.30722786 L 0.12823335,0.30722786 L 0.12823335,0.30721049 C 0.12823335,0.30688064 0.12636184,0.30604731 0.12454414,0.30604731 C 0.12233409,0.30604731 0.12034625,0.30719313 0.12034625,0.30993617 C 0.12034625,0.31151602 0.12099035,0.31229727 0.1220077,0.3129049 C 0.12395387,0.31408545 0.12590177,0.31425906 0.12590177,0.31596044 C 0.12590177,0.31714099 0.12525073,0.3177139 0.12418477,0.3177139 C 0.12254415,0.3177139 0.1211275,0.31688057 0.12101118,0.31688057 C 0.12093653,0.31688057 0.12084104,0.31695002 0.12080111,0.31705418 L 0.12036014,0.31832154 C 0.12032715,0.31844306 0.12026466,0.31856459 0.12026466,0.31863403 C 0.12026466,0.31892917 0.12231325,0.31977986 0.12425942,0.31977986 C 0.12666739,0.31977986 0.12838266,0.31816529 0.12838266,0.31575211 C 0.12838266,0.31429378 0.12771773,0.31328684 0.12674204,0.31255768 C 0.12505976,0.31130769 0.12282888,0.31104728 0.12282888,0.30958895 C 0.12282888,0.30844313 0.1237438,0.30809591 0.12461879,0.30809591 C 0.12599552,0.30809591 0.12718301,0.30894659 0.1272976,0.30894659 C 0.12737225,0.30894659 0.1274469,0.30887715 0.12750766,0.30875562 L 0.1281396,0.30748827 z "
         style="font-style:normal;font-variant:normal;font-weight:normal;font-stretch:normal;letter-spacing:normal;word-spacing:normal;text-anchor:start;fill:black;fill-opacity:1;stroke:black;stroke-width:0;stroke-linecap:butt;stroke-linejoin:miter;stroke-miterlimit:10.43299961;stroke-dasharray:none;stroke-dashoffset:0;stroke-opacity:1"
         id="path184" />
      <polygon
         transform="matrix(1.7361e-3,0,0,-1.7361e-3,-3.125e-2,1.1875)"
         points="71.406,512.74 108.26,512.74 89.828,484.39 71.406,512.74 "
         style="font-style:normal;font-variant:normal;font-weight:normal;font-stretch:normal;letter-spacing:normal;word-spacing:normal;text-anchor:start;fill:none;fill-opacity:1;stroke:black;stroke-width:2;stroke-linecap:butt;stroke-linejoin:miter;stroke-miterlimit:10.43299961;stroke-dasharray:none;stroke-dashoffset:0;stroke-opacity:1"
         id="polygon186" />
    </g>
  </g>
</svg>
