<?xml version="1.0" encoding="UTF-8" standalone="no"?>
<!-- Created with Inkscape (http://www.inkscape.org/) -->
<svg
   xmlns:dc="http://purl.org/dc/elements/1.1/"
   xmlns:cc="http://web.resource.org/cc/"
   xmlns:rdf="http://www.w3.org/1999/02/22-rdf-syntax-ns#"
   xmlns:svg="http://www.w3.org/2000/svg"
   xmlns="http://www.w3.org/2000/svg"
   xmlns:sodipodi="http://sodipodi.sourceforge.net/DTD/sodipodi-0.dtd"
   xmlns:inkscape="http://www.inkscape.org/namespaces/inkscape"
   width="744.09448819"
   height="1052.3622047"
   id="svg2589"
   sodipodi:version="0.32"
   inkscape:version="0.44.1"
   sodipodi:docbase="/home/beppe/Desktop/Grafie"
   sodipodi:docname="trincea.svg">
  <defs
     id="defs2591" />
  <sodipodi:namedview
     id="base"
     pagecolor="#ffffff"
     bordercolor="#666666"
     borderopacity="1.0"
     inkscape:pageopacity="0.0"
     inkscape:pageshadow="2"
     inkscape:zoom="0.35"
     inkscape:cx="375"
     inkscape:cy="520"
     inkscape:document-units="px"
     inkscape:current-layer="layer1"
     inkscape:window-width="959"
     inkscape:window-height="589"
     inkscape:window-x="225"
     inkscape:window-y="289" />
  <metadata
     id="metadata2594">
    <rdf:RDF>
      <cc:Work
         rdf:about="">
        <dc:format>image/svg+xml</dc:format>
        <dc:type
           rdf:resource="http://purl.org/dc/dcmitype/StillImage" />
      </cc:Work>
    </rdf:RDF>
  </metadata>
  <g
     inkscape:label="Livello 1"
     inkscape:groupmode="layer"
     id="layer1">
    <g
       transform="matrix(720,0,0,720,286.4595,224.2587)"
       id="g2584">
      <polyline
         transform="matrix(1.7361e-3,0,0,-1.7361e-3,-3.125e-2,1.1875)"
         points="71.328,451.19 106.34,451.19 88.828,424.26 "
         style="font-style:normal;font-variant:normal;font-weight:normal;font-stretch:normal;letter-spacing:normal;word-spacing:normal;text-anchor:start;fill:white;fill-opacity:1;stroke:white;stroke-width:0;stroke-linecap:butt;stroke-linejoin:miter;stroke-miterlimit:10.43299961;stroke-dasharray:none;stroke-dashoffset:0;stroke-opacity:1"
         id="polyline188" />
      <path
         d="M 0.12350075,0.41457092 L 0.12586705,0.41457092 C 0.12601635,0.41457092 0.12622642,0.41457092 0.12630802,0.41425842 L 0.12670732,0.41274801 C 0.12674204,0.41260913 0.12676288,0.4125744 0.12676288,0.4124876 C 0.12676288,0.41231399 0.12666739,0.41226191 0.12628719,0.41226191 L 0.11842092,0.41226191 C 0.11815009,0.41226191 0.11809453,0.41233135 0.11809453,0.41259176 L 0.11809453,0.41424106 C 0.11809453,0.41450148 0.11815009,0.41457092 0.11842092,0.41457092 L 0.12091569,0.41457092 L 0.12091569,0.4249528 C 0.12091569,0.42530002 0.12099729,0.4253521 0.12132368,0.4253521 L 0.12309276,0.4253521 C 0.12341915,0.4253521 0.12350075,0.42530002 0.12350075,0.4249528 L 0.12350075,0.41457092 z "
         style="font-style:normal;font-variant:normal;font-weight:normal;font-stretch:normal;letter-spacing:normal;word-spacing:normal;text-anchor:start;fill:black;fill-opacity:1;stroke:black;stroke-width:0;stroke-linecap:butt;stroke-linejoin:miter;stroke-miterlimit:10.43299961;stroke-dasharray:none;stroke-dashoffset:0;stroke-opacity:1"
         id="path190" />
      <polygon
         transform="matrix(1.7361e-3,0,0,-1.7361e-3,-3.125e-2,1.1875)"
         points="70.406,451.69 107.26,451.69 88.828,423.35 70.406,451.69 "
         style="font-style:normal;font-variant:normal;font-weight:normal;font-stretch:normal;letter-spacing:normal;word-spacing:normal;text-anchor:start;fill:none;fill-opacity:1;stroke:black;stroke-width:2;stroke-linecap:butt;stroke-linejoin:miter;stroke-miterlimit:10.43299961;stroke-dasharray:none;stroke-dashoffset:0;stroke-opacity:1"
         id="polygon192" />
    </g>
  </g>
</svg>
