<?xml version="1.0" encoding="UTF-8"?>
<!DOCTYPE svg PUBLIC "-//W3C//DTD SVG 1.1//EN" "http://www.w3.org/Graphics/SVG/1.1/DTD/svg11.dtd" [
<!ATTLIST svg
	xmlns:attrib CDATA #IMPLIED
>
]>
<svg

  width="50px"
   height="50px"
   overflow="visible"
   preserveAspectRatio="xMinYMin meet"
viewBox="701543.664 -4707303.485 21.525 21.525" xmlns="http://www.w3.org/2000/svg" xmlns:xlink="http://www.w3.org/1999/xlink" xmlns:attrib="http://www.carto.net/attrib/">
	<g id="rudere" fill="none" stroke="black" stroke-width="1" stroke-linecap="round" stroke-linejoin="round">
		<path d="M701547.176 -4707301.472l-.45 -1.05M701546.726 -4707302.522l-1.05 -.45M701545.676 -4707302.972l-1.05 .45M701544.626 -4707302.522l-.45 1.05M701544.176 -4707301.472l.45 1.075M701544.626 -4707300.397l1.05 .425M701545.676 -4707299.972l1.05 -.425M701546.726 -4707300.397l.45 -1.075M701564.676 -4707301.472l-.45 -1.05M701564.226 -4707302.522l-1.05 -.45M701563.176 -4707302.972l-1.05 .45M701562.126 -4707302.522l-.45 1.05M701561.676 -4707301.472l.45 1.075M701562.126 -4707300.397l1.05 .425M701563.176 -4707299.972l1.05 -.425M701564.226 -4707300.397l.45 -1.075M701564.676 -4707283.972l-.45 -1.05M701564.226 -4707285.022l-1.05 -.45M701563.176 -4707285.472l-1.05 .45M701562.126 -4707285.022l-.45 1.05M701561.676 -4707283.972l.45 1.075M701562.126 -4707282.897l1.05 .425M701563.176 -4707282.472l1.05 -.425M701564.226 -4707282.897l.45 -1.075M701547.176 -4707283.972l-.45 -1.05M701546.726 -4707285.022l-1.05 -.45M701545.676 -4707285.472l-1.05 .45M701544.626 -4707285.022l-.45 1.05M701544.176 -4707283.972l.45 1.075M701544.626 -4707282.897l1.05 .425M701545.676 -4707282.472l1.05 -.425M701546.726 -4707282.897l.45 -1.075M701546.726 -4707300.397l.45 -1.075M701547.176 -4707301.472l-.45 -1.05M701564.226 -4707300.397l.45 -1.075M701564.676 -4707301.472l-.45 -1.05M701564.226 -4707282.897l.45 -1.075M701564.676 -4707283.972l-.45 -1.05M701546.726 -4707282.897l.45 -1.075M701547.176 -4707283.972l-.45 -1.05" />
	</g>
</svg>
