<?xml version="1.0" encoding="UTF-8" standalone="no"?>
<!-- Created with Inkscape (http://www.inkscape.org/) -->
<svg
   xmlns:dc="http://purl.org/dc/elements/1.1/"
   xmlns:cc="http://web.resource.org/cc/"
   xmlns:rdf="http://www.w3.org/1999/02/22-rdf-syntax-ns#"
   xmlns:svg="http://www.w3.org/2000/svg"
   xmlns="http://www.w3.org/2000/svg"
   xmlns:sodipodi="http://sodipodi.sourceforge.net/DTD/sodipodi-0.dtd"
   xmlns:inkscape="http://www.inkscape.org/namespaces/inkscape"
   width="744.09448819"
   height="1052.3622047"
   id="svg5315"
   sodipodi:version="0.32"
   inkscape:version="0.44.1"
   sodipodi:docbase="/home/beppe/Desktop/Grafie/Geomorfologica/Veneto/Fluviali, fluvioglaciali, dilavamento"
   sodipodi:docname="piramidi_terra.svg">
  <defs
     id="defs5317" />
  <sodipodi:namedview
     id="base"
     pagecolor="#ffffff"
     bordercolor="#666666"
     borderopacity="1.0"
     inkscape:pageopacity="0.0"
     inkscape:pageshadow="2"
     inkscape:zoom="0.35"
     inkscape:cx="375"
     inkscape:cy="520"
     inkscape:document-units="px"
     inkscape:current-layer="layer1"
     inkscape:window-width="959"
     inkscape:window-height="589"
     inkscape:window-x="312"
     inkscape:window-y="0" />
  <metadata
     id="metadata5320">
    <rdf:RDF>
      <cc:Work
         rdf:about="">
        <dc:format>image/svg+xml</dc:format>
        <dc:type
           rdf:resource="http://purl.org/dc/dcmitype/StillImage" />
      </cc:Work>
    </rdf:RDF>
  </metadata>
  <g
     inkscape:label="Livello 1"
     inkscape:groupmode="layer"
     id="layer1">
    <g
       id="g5371">
      <path
         d="M 343.24858,529.59154 L 343.14233,529.54153 L 343.02858,529.50403 L 342.90608,529.44154 L 342.77858,529.39153 L 342.64359,529.31654 L 342.50359,529.24154 L 342.35734,529.16653 L 342.20734,529.09154 L 341.89234,528.90404 L 341.56609,528.69154 L 341.22859,528.46654 L 340.8861,528.22904 L 340.5411,527.95405 L 340.1986,527.67905 L 339.86235,527.37905 L 339.53611,527.07905 L 339.22236,526.75405 L 338.92736,526.41655 L 338.65361,526.06656 L 338.52611,525.89156 L 338.40611,525.71656 L 338.29236,525.54156 L 338.18611,525.35406 L 338.08861,525.16656 L 338.00111,524.99156 L 337.92112,524.80407 L 337.85112,524.60407 L 337.79237,524.41656 L 337.74362,524.22907 L 337.70612,524.04157 L 337.68112,523.84157 L 337.66737,523.65407 L 337.66612,523.45408 L 337.67862,523.26657 L 337.70487,523.06658 L 337.74487,522.87908 L 337.79987,522.69158 L 337.86987,522.49158 L 337.95487,522.30408 L 338.05736,522.10408 L 338.17486,521.91658 L 338.30986,521.72909 L 338.46236,521.54158 L 338.63361,521.35409 L 338.82236,521.16659 L 339.03111,520.97909 L 339.25861,520.79159 L 339.50611,520.61659 L 339.77485,520.4416 L 340.0636,520.25409 L 340.37485,520.0791 L 340.70735,519.91659 L 341.0611,519.7416 C 348.87355,516.14162 357.78099,516.76662 360.74847,519.7416 C 363.71845,522.71658 362.62346,527.71655 357.31099,528.64154 C 351.99853,529.59154 345.43607,530.36653 343.24858,529.59154 z "
         style="font-style:normal;font-variant:normal;font-weight:normal;font-stretch:normal;letter-spacing:normal;word-spacing:normal;text-anchor:start;fill:none;fill-opacity:1;stroke:black;stroke-width:1.49999034;stroke-linecap:round;stroke-linejoin:round;stroke-miterlimit:10.43299961;stroke-dasharray:none;stroke-dashoffset:0;stroke-opacity:1"
         id="path184" />
      <path
         d="M 390.74578,527.55404 L 390.74578,527.55404 L 390.72077,527.54154 L 390.68328,527.54154 L 390.64578,527.52905 L 390.58328,527.51655 L 390.52078,527.49155 L 390.44578,527.46655 L 390.34578,527.44155 L 390.25828,527.41655 L 390.14578,527.37905 L 390.03328,527.34155 L 389.90828,527.30405 L 389.77079,527.26655 L 389.63329,527.21655 L 389.48328,527.16655 L 389.33328,527.11655 L 389.00829,526.99155 L 388.67079,526.86655 L 388.30829,526.71655 L 387.94579,526.55406 L 387.5708,526.37905 L 387.1958,526.19156 L 386.8208,525.99156 L 386.4458,525.77906 L 386.0958,525.54156 L 385.74581,525.30407 L 385.40831,525.04156 L 385.25831,524.90406 L 385.10831,524.76656 L 384.95831,524.62907 L 384.82081,524.47907 L 384.68332,524.32907 L 384.55832,524.17907 L 384.44582,524.02907 L 384.34582,523.86657 L 384.24582,523.70407 L 384.15832,523.52907 L 384.08332,523.36657 L 384.00832,523.19158 L 383.95832,523.00408 L 383.92082,522.82908 L 383.88332,522.64158 L 383.87082,522.45408 L 383.85832,522.26658 L 383.87082,522.06659 L 383.89582,521.86658 L 383.93332,521.66658 L 383.98332,521.45409 L 384.05832,521.24159 L 384.13332,521.02909 L 384.24582,520.81659 L 384.35832,520.59159 L 384.49582,520.36659 C 387.6208,515.51662 396.68324,518.17911 399.34572,518.34161 C 401.99571,518.49161 412.93313,519.8916 412.30814,522.86658 C 411.68314,525.84156 412.95813,529.00404 400.29572,528.21654 C 387.6458,527.44155 390.74578,527.55404 390.74578,527.55404 z "
         style="font-style:normal;font-variant:normal;font-weight:normal;font-stretch:normal;letter-spacing:normal;word-spacing:normal;text-anchor:start;fill:none;fill-opacity:1;stroke:black;stroke-width:1.49999034;stroke-linecap:round;stroke-linejoin:round;stroke-miterlimit:10.43299961;stroke-dasharray:none;stroke-dashoffset:0;stroke-opacity:1"
         id="path186" />
      <path
         d="M 345.89607,529.86653 C 345.89607,529.86653 345.44107,539.95397 340.7536,547.45392"
         style="font-style:normal;font-variant:normal;font-weight:normal;font-stretch:normal;letter-spacing:normal;word-spacing:normal;text-anchor:start;fill:none;fill-opacity:1;stroke:black;stroke-width:1.49999034;stroke-linecap:round;stroke-linejoin:round;stroke-miterlimit:10.43299961;stroke-dasharray:none;stroke-dashoffset:0;stroke-opacity:1"
         id="path188" />
      <path
         d="M 354.24476,529.11654 C 354.24476,529.11654 354.34351,537.09149 361.99846,545.84143"
         style="font-style:normal;font-variant:normal;font-weight:normal;font-stretch:normal;letter-spacing:normal;word-spacing:normal;text-anchor:start;fill:none;fill-opacity:1;stroke:black;stroke-width:1.49999034;stroke-linecap:round;stroke-linejoin:round;stroke-miterlimit:10.43299961;stroke-dasharray:none;stroke-dashoffset:0;stroke-opacity:1"
         id="path190" />
      <path
         d="M 394.09575,527.75405 C 394.09575,527.75405 391.05827,537.71648 388.2458,542.39145"
         style="font-style:normal;font-variant:normal;font-weight:normal;font-stretch:normal;letter-spacing:normal;word-spacing:normal;text-anchor:start;fill:none;fill-opacity:1;stroke:black;stroke-width:1.49999034;stroke-linecap:round;stroke-linejoin:round;stroke-miterlimit:10.43299961;stroke-dasharray:none;stroke-dashoffset:0;stroke-opacity:1"
         id="path192" />
      <path
         d="M 402.27071,528.21654 C 402.27071,528.21654 402.9332,535.3665 407.62067,543.01645"
         style="font-style:normal;font-variant:normal;font-weight:normal;font-stretch:normal;letter-spacing:normal;word-spacing:normal;text-anchor:start;fill:none;fill-opacity:1;stroke:black;stroke-width:1.49999034;stroke-linecap:round;stroke-linejoin:round;stroke-miterlimit:10.43299961;stroke-dasharray:none;stroke-dashoffset:0;stroke-opacity:1"
         id="path194" />
    </g>
  </g>
</svg>
