<?xml version="1.0" encoding="UTF-8" standalone="no"?>
<!-- Created with Inkscape (http://www.inkscape.org/) -->
<svg
   xmlns:dc="http://purl.org/dc/elements/1.1/"
   xmlns:cc="http://web.resource.org/cc/"
   xmlns:rdf="http://www.w3.org/1999/02/22-rdf-syntax-ns#"
   xmlns:svg="http://www.w3.org/2000/svg"
   xmlns="http://www.w3.org/2000/svg"
   xmlns:sodipodi="http://sodipodi.sourceforge.net/DTD/sodipodi-0.dtd"
   xmlns:inkscape="http://www.inkscape.org/namespaces/inkscape"
   width="744.09448819"
   height="1052.3622047"
   id="svg4317"
   sodipodi:version="0.32"
   inkscape:version="0.44.1"
   sodipodi:docbase="/home/beppe/Desktop/Grafie/Geomorfologica/Veneto"
   sodipodi:docname="domo_subvulcanico.svg">
  <defs
     id="defs4319" />
  <sodipodi:namedview
     id="base"
     pagecolor="#ffffff"
     bordercolor="#666666"
     borderopacity="1.0"
     inkscape:pageopacity="0.0"
     inkscape:pageshadow="2"
     inkscape:zoom="5.6"
     inkscape:cx="375"
     inkscape:cy="520"
     inkscape:document-units="px"
     inkscape:current-layer="layer1"
     inkscape:window-width="959"
     inkscape:window-height="589"
     inkscape:window-x="312"
     inkscape:window-y="400" />
  <metadata
     id="metadata4322">
    <rdf:RDF>
      <cc:Work
         rdf:about="">
        <dc:format>image/svg+xml</dc:format>
        <dc:type
           rdf:resource="http://purl.org/dc/dcmitype/StillImage" />
      </cc:Work>
    </rdf:RDF>
  </metadata>
  <g
     inkscape:label="Livello 1"
     inkscape:groupmode="layer"
     id="layer1">
    <g
       id="g6103">
      <path
         d="M 357.97511,532.35594 L 357.98761,531.48094 L 358.06261,530.61845 L 358.16261,529.76845 L 358.31261,528.93095 L 358.51261,528.10596 L 358.7376,527.29347 L 359.00011,526.50597 L 359.3126,525.73098 L 359.6501,524.98098 L 360.0251,524.24349 L 360.43759,523.53099 L 360.87509,522.84349 L 361.35009,522.1685 L 361.86258,521.531 L 362.40008,520.90601 L 362.96258,520.31851 L 363.55007,519.75602 L 364.16257,519.21851 L 364.81257,518.71852 L 365.47506,518.24353 L 366.17506,517.79353 L 366.88755,517.39353 L 367.61255,517.01853 L 368.37505,516.66853 L 369.15004,516.36854 L 369.93753,516.09354 L 370.75003,515.86854 L 371.57502,515.68104 L 372.41252,515.53104 L 373.26251,515.41854 L 374.12501,515.35605 L 375,515.33104 C 384.39994,515.33104 392.02489,522.95599 392.02489,532.35594 C 392.02489,541.76837 384.39994,549.39333 375,549.39333 C 365.58756,549.39333 357.97511,541.76837 357.97511,532.35594 z "
         style="font-style:normal;font-variant:normal;font-weight:normal;font-stretch:normal;letter-spacing:normal;word-spacing:normal;text-anchor:start;fill:white;fill-opacity:1;stroke:black;stroke-width:1.49999034;stroke-linecap:round;stroke-linejoin:round;stroke-miterlimit:10.43299961;stroke-dasharray:none;stroke-dashoffset:0;stroke-opacity:1"
         id="path442" />
      <line
         x1="363.05008"
         y1="520.28101"
         x2="386.53741"
         y2="543.75586"
         style="font-style:normal;font-variant:normal;font-weight:normal;font-stretch:normal;letter-spacing:normal;word-spacing:normal;text-anchor:start;fill:none;fill-opacity:1;stroke:black;stroke-width:1.24999201;stroke-linecap:round;stroke-linejoin:miter;stroke-miterlimit:10.43299961;stroke-dasharray:none;stroke-dashoffset:0;stroke-opacity:1"
         id="line434" />
      <line
         x1="363.05008"
         y1="543.75586"
         x2="386.53741"
         y2="520.28101"
         style="font-style:normal;font-variant:normal;font-weight:normal;font-stretch:normal;letter-spacing:normal;word-spacing:normal;text-anchor:start;fill:none;fill-opacity:1;stroke:black;stroke-width:1.24999201;stroke-linecap:round;stroke-linejoin:miter;stroke-miterlimit:10.43299961;stroke-dasharray:none;stroke-dashoffset:0;stroke-opacity:1"
         id="line436" />
      <line
         x1="374.78751"
         y1="515.40607"
         x2="374.78751"
         y2="548.63086"
         style="font-style:normal;font-variant:normal;font-weight:normal;font-stretch:normal;letter-spacing:normal;word-spacing:normal;text-anchor:start;fill:none;fill-opacity:1;stroke:black;stroke-width:1.24999201;stroke-linecap:round;stroke-linejoin:miter;stroke-miterlimit:10.43299961;stroke-dasharray:none;stroke-dashoffset:0;stroke-opacity:1"
         id="line438" />
      <line
         x1="358.18762"
         y1="532.01843"
         x2="391.3999"
         y2="532.01843"
         style="font-style:normal;font-variant:normal;font-weight:normal;font-stretch:normal;letter-spacing:normal;word-spacing:normal;text-anchor:start;fill:none;fill-opacity:1;stroke:black;stroke-width:1.24999201;stroke-linecap:round;stroke-linejoin:miter;stroke-miterlimit:10.43299961;stroke-dasharray:none;stroke-dashoffset:0;stroke-opacity:1"
         id="line440" />
      <path
         d="M 364.10007,532.35594 L 364.11257,531.79344 L 364.16257,531.24344 L 364.22507,530.70594 L 364.32507,530.16845 L 364.45007,529.64345 L 364.58757,529.11846 L 364.76257,528.61846 L 364.96256,528.11846 L 365.17506,527.63097 L 365.42506,527.16847 L 365.67506,526.70597 L 365.96256,526.26847 L 366.26256,525.84347 L 366.58755,525.43098 L 366.93755,525.03098 L 367.30005,524.65598 L 367.67505,524.29348 L 368.07504,523.95598 L 368.47504,523.63099 L 368.91254,523.31849 L 369.35003,523.04349 L 369.81253,522.781 L 370.27503,522.5435 L 370.76253,522.3185 L 371.25003,522.1185 L 371.76252,521.956 L 372.27502,521.806 L 372.80001,521.681 L 373.33751,521.59351 L 373.88751,521.5185 L 374.4375,521.48101 L 375,521.46851 C 381.01246,521.46851 385.89993,526.34348 385.89993,532.35594 C 385.89993,538.3809 381.01246,543.25587 375,543.25587 C 368.98754,543.25587 364.10007,538.3809 364.10007,532.35594 z "
         style="font-style:normal;font-variant:normal;font-weight:normal;font-stretch:normal;letter-spacing:normal;word-spacing:normal;text-anchor:start;fill:white;fill-opacity:1;fill-rule:nonzero;stroke:white;stroke-width:0;stroke-linecap:butt;stroke-linejoin:miter;stroke-miterlimit:10.43299961;stroke-dasharray:none;stroke-dashoffset:0;stroke-opacity:1"
         id="path444" />
      <line
         x1="374.78751"
         y1="527.65594"
         x2="374.78751"
         y2="536.36841"
         style="font-style:normal;font-variant:normal;font-weight:normal;font-stretch:normal;letter-spacing:normal;word-spacing:normal;text-anchor:start;fill:none;fill-opacity:1;stroke:black;stroke-width:1.49999034;stroke-linecap:round;stroke-linejoin:miter;stroke-miterlimit:10.43299961;stroke-dasharray:none;stroke-dashoffset:0;stroke-opacity:1"
         id="line446" />
      <line
         x1="370.4375"
         y1="532.01843"
         x2="379.14996"
         y2="532.01843"
         style="font-style:normal;font-variant:normal;font-weight:normal;font-stretch:normal;letter-spacing:normal;word-spacing:normal;text-anchor:start;fill:none;fill-opacity:1;stroke:black;stroke-width:1.49999034;stroke-linecap:round;stroke-linejoin:miter;stroke-miterlimit:10.43299961;stroke-dasharray:none;stroke-dashoffset:0;stroke-opacity:1"
         id="line448" />
    </g>
  </g>
</svg>
