<?xml version="1.0" encoding="UTF-8" standalone="no"?>
<!-- Created with Inkscape (http://www.inkscape.org/) -->
<svg
   xmlns:dc="http://purl.org/dc/elements/1.1/"
   xmlns:cc="http://web.resource.org/cc/"
   xmlns:rdf="http://www.w3.org/1999/02/22-rdf-syntax-ns#"
   xmlns:svg="http://www.w3.org/2000/svg"
   xmlns="http://www.w3.org/2000/svg"
   xmlns:sodipodi="http://sodipodi.sourceforge.net/DTD/sodipodi-0.dtd"
   xmlns:inkscape="http://www.inkscape.org/namespaces/inkscape"
   width="744.09448819"
   height="1052.3622047"
   id="svg2793"
   sodipodi:version="0.32"
   inkscape:version="0.44.1"
   sodipodi:docbase="/home/beppe/Desktop/Grafie"
   sodipodi:docname="idrometro.svg">
  <defs
     id="defs2795" />
  <sodipodi:namedview
     id="base"
     pagecolor="#ffffff"
     bordercolor="#666666"
     borderopacity="1.0"
     inkscape:pageopacity="0.0"
     inkscape:pageshadow="2"
     inkscape:zoom="0.35"
     inkscape:cx="375"
     inkscape:cy="520"
     inkscape:document-units="px"
     inkscape:current-layer="layer1"
     inkscape:window-width="959"
     inkscape:window-height="589"
     inkscape:window-x="312"
     inkscape:window-y="400" />
  <metadata
     id="metadata2798">
    <rdf:RDF>
      <cc:Work
         rdf:about="">
        <dc:format>image/svg+xml</dc:format>
        <dc:type
           rdf:resource="http://purl.org/dc/dcmitype/StillImage" />
      </cc:Work>
    </rdf:RDF>
  </metadata>
  <g
     inkscape:label="Livello 1"
     inkscape:groupmode="layer"
     id="layer1">
    <g
       transform="matrix(720,0,0,720,291.3457,320.3206)"
       id="g2782">
      <polygon
         transform="matrix(1.7361e-3,0,0,-1.7361e-3,-3.125e-2,1.1875)"
         points="78.953,518.99 85.043,518.99 85.043,528.68 78.953,528.68 78.953,518.99 "
         style="font-style:normal;font-variant:normal;font-weight:normal;font-stretch:normal;letter-spacing:normal;word-spacing:normal;text-anchor:start;fill:black;fill-opacity:1;fill-rule:nonzero;stroke:black;stroke-width:0;stroke-linecap:butt;stroke-linejoin:miter;stroke-miterlimit:10.43299961;stroke-dasharray:none;stroke-dashoffset:0;stroke-opacity:1"
         id="polygon84" />
      <polygon
         transform="matrix(1.7361e-3,0,0,-1.7361e-3,-3.125e-2,1.1875)"
         points="78.953,518.99 85.043,518.99 85.043,528.68 78.953,528.68 78.953,518.99 "
         style="font-style:normal;font-variant:normal;font-weight:normal;font-stretch:normal;letter-spacing:normal;word-spacing:normal;text-anchor:start;fill:none;fill-opacity:1;stroke:black;stroke-width:1;stroke-linecap:butt;stroke-linejoin:miter;stroke-miterlimit:10.43299961;stroke-dasharray:none;stroke-dashoffset:0;stroke-opacity:1"
         id="polygon86" />
      <polygon
         transform="matrix(1.7361e-3,0,0,-1.7361e-3,-3.125e-2,1.1875)"
         points="84.805,518.99 90.895,518.99 90.895,528.68 84.805,528.68 84.805,518.99 "
         style="font-style:normal;font-variant:normal;font-weight:normal;font-stretch:normal;letter-spacing:normal;word-spacing:normal;text-anchor:start;fill:none;fill-opacity:1;stroke:black;stroke-width:1;stroke-linecap:butt;stroke-linejoin:miter;stroke-miterlimit:10.43299961;stroke-dasharray:none;stroke-dashoffset:0;stroke-opacity:1"
         id="polygon88" />
      <polygon
         transform="matrix(1.7361e-3,0,0,-1.7361e-3,-3.125e-2,1.1875)"
         points="78.953,509.52 85.043,509.52 85.043,519.22 78.953,519.22 78.953,509.52 "
         style="font-style:normal;font-variant:normal;font-weight:normal;font-stretch:normal;letter-spacing:normal;word-spacing:normal;text-anchor:start;fill:none;fill-opacity:1;stroke:black;stroke-width:1;stroke-linecap:butt;stroke-linejoin:miter;stroke-miterlimit:10.43299961;stroke-dasharray:none;stroke-dashoffset:0;stroke-opacity:1"
         id="polygon90" />
      <polygon
         transform="matrix(1.7361e-3,0,0,-1.7361e-3,-3.125e-2,1.1875)"
         points="84.805,509.52 90.895,509.52 90.895,519.22 84.805,519.22 84.805,509.52 "
         style="font-style:normal;font-variant:normal;font-weight:normal;font-stretch:normal;letter-spacing:normal;word-spacing:normal;text-anchor:start;fill:black;fill-opacity:1;fill-rule:nonzero;stroke:black;stroke-width:0;stroke-linecap:butt;stroke-linejoin:miter;stroke-miterlimit:10.43299961;stroke-dasharray:none;stroke-dashoffset:0;stroke-opacity:1"
         id="polygon92" />
      <polygon
         transform="matrix(1.7361e-3,0,0,-1.7361e-3,-3.125e-2,1.1875)"
         points="84.805,509.52 90.895,509.52 90.895,519.22 84.805,519.22 84.805,509.52 "
         style="font-style:normal;font-variant:normal;font-weight:normal;font-stretch:normal;letter-spacing:normal;word-spacing:normal;text-anchor:start;fill:none;fill-opacity:1;stroke:black;stroke-width:1;stroke-linecap:butt;stroke-linejoin:miter;stroke-miterlimit:10.43299961;stroke-dasharray:none;stroke-dashoffset:0;stroke-opacity:1"
         id="polygon94" />
      <polygon
         transform="matrix(1.7361e-3,0,0,-1.7361e-3,-3.125e-2,1.1875)"
         points="78.953,500.06 85.043,500.06 85.043,509.75 78.953,509.75 78.953,500.06 "
         style="font-style:normal;font-variant:normal;font-weight:normal;font-stretch:normal;letter-spacing:normal;word-spacing:normal;text-anchor:start;fill:black;fill-opacity:1;fill-rule:nonzero;stroke:black;stroke-width:0;stroke-linecap:butt;stroke-linejoin:miter;stroke-miterlimit:10.43299961;stroke-dasharray:none;stroke-dashoffset:0;stroke-opacity:1"
         id="polygon96" />
      <polygon
         transform="matrix(1.7361e-3,0,0,-1.7361e-3,-3.125e-2,1.1875)"
         points="78.953,500.06 85.043,500.06 85.043,509.75 78.953,509.75 78.953,500.06 "
         style="font-style:normal;font-variant:normal;font-weight:normal;font-stretch:normal;letter-spacing:normal;word-spacing:normal;text-anchor:start;fill:none;fill-opacity:1;stroke:black;stroke-width:1;stroke-linecap:butt;stroke-linejoin:miter;stroke-miterlimit:10.43299961;stroke-dasharray:none;stroke-dashoffset:0;stroke-opacity:1"
         id="polygon98" />
      <polygon
         transform="matrix(1.7361e-3,0,0,-1.7361e-3,-3.125e-2,1.1875)"
         points="84.805,500.06 90.895,500.06 90.895,509.75 84.805,509.75 84.805,500.06 "
         style="font-style:normal;font-variant:normal;font-weight:normal;font-stretch:normal;letter-spacing:normal;word-spacing:normal;text-anchor:start;fill:none;fill-opacity:1;stroke:black;stroke-width:1;stroke-linecap:butt;stroke-linejoin:miter;stroke-miterlimit:10.43299961;stroke-dasharray:none;stroke-dashoffset:0;stroke-opacity:1"
         id="polygon100" />
    </g>
  </g>
</svg>
