<?xml version="1.0" encoding="UTF-8" standalone="no"?>
<!-- Created with Inkscape (http://www.inkscape.org/) -->
<svg
   xmlns:dc="http://purl.org/dc/elements/1.1/"
   xmlns:cc="http://web.resource.org/cc/"
   xmlns:rdf="http://www.w3.org/1999/02/22-rdf-syntax-ns#"
   xmlns:svg="http://www.w3.org/2000/svg"
   xmlns="http://www.w3.org/2000/svg"
   xmlns:sodipodi="http://sodipodi.sourceforge.net/DTD/sodipodi-0.dtd"
   xmlns:inkscape="http://www.inkscape.org/namespaces/inkscape"
   width="744.09448819"
   height="1052.3622047"
   id="svg2855"
   sodipodi:version="0.32"
   inkscape:version="0.44.1"
   sodipodi:docbase="/home/beppe/Desktop/Grafie"
   sodipodi:docname="palude.svg">
  <defs
     id="defs2857" />
  <sodipodi:namedview
     id="base"
     pagecolor="#ffffff"
     bordercolor="#666666"
     borderopacity="1.0"
     inkscape:pageopacity="0.0"
     inkscape:pageshadow="2"
     inkscape:zoom="0.35"
     inkscape:cx="375"
     inkscape:cy="520"
     inkscape:document-units="px"
     inkscape:current-layer="layer1"
     inkscape:window-width="959"
     inkscape:window-height="589"
     inkscape:window-x="312"
     inkscape:window-y="400" />
  <metadata
     id="metadata2860">
    <rdf:RDF>
      <cc:Work
         rdf:about="">
        <dc:format>image/svg+xml</dc:format>
        <dc:type
           rdf:resource="http://purl.org/dc/dcmitype/StillImage" />
      </cc:Work>
    </rdf:RDF>
  </metadata>
  <g
     inkscape:label="Livello 1"
     inkscape:groupmode="layer"
     id="layer1">
    <g
       transform="matrix(720,0,0,720,43.68351,203.2463)"
       id="g2844">
      <path
         d="M 0.45994477,0.46049076 L 0.45994477,0.46057757 L 0.45994477,0.46068174 L 0.45994477,0.46080326 L 0.45994477,0.46092479 L 0.45992741,0.46108104 L 0.45992741,0.46121993 L 0.45991005,0.46139354 L 0.45991005,0.46158451 L 0.45989269,0.46196645 L 0.45985797,0.46240047 L 0.45982325,0.46286922 L 0.45980589,0.46339005 L 0.45977116,0.46391088 L 0.45973644,0.46448379 L 0.45970172,0.46505671 L 0.459667,0.46566434 L 0.45963227,0.46628934 L 0.45959755,0.46691433 L 0.45952811,0.46818169 L 0.45947603,0.46944904 L 0.45945866,0.47007404 L 0.4594413,0.47069903 L 0.45942394,0.47128931 L 0.45942394,0.47186222 L 0.45942394,0.47241777 L 0.45942394,0.4729386 L 0.4594413,0.47344207 L 0.45945866,0.47389346 L 0.45947603,0.47431012 L 0.45949339,0.47451845 L 0.45951075,0.47469206 L 0.45952811,0.47486567 L 0.45954547,0.47502192 L 0.45958019,0.47517817 L 0.45959755,0.4752997 L 0.45963227,0.47542122 L 0.459667,0.47552539 L 0.45970172,0.47562956 L 0.45973644,0.475699 C 0.46232323,0.4802823 0.46626418,0.47036917 0.4666114,0.46924071"
         style="font-style:normal;font-variant:normal;font-weight:normal;font-stretch:normal;letter-spacing:normal;word-spacing:normal;text-anchor:start;fill:none;fill-opacity:1;stroke:black;stroke-width:0.00208332;stroke-linecap:round;stroke-linejoin:miter;stroke-miterlimit:10.43299961;stroke-dasharray:none;stroke-dashoffset:0;stroke-opacity:1"
         id="path146" />
      <path
         d="M 0.4551705,0.47611566 C 0.45563924,0.47493512 0.45228857,0.47035181 0.45161149,0.46924071"
         style="font-style:normal;font-variant:normal;font-weight:normal;font-stretch:normal;letter-spacing:normal;word-spacing:normal;text-anchor:start;fill:none;fill-opacity:1;stroke:black;stroke-width:0.00208332;stroke-linecap:round;stroke-linejoin:miter;stroke-miterlimit:10.43299961;stroke-dasharray:none;stroke-dashoffset:0;stroke-opacity:1"
         id="path148" />
      <line
         x1="0.44977123"
         y1="0.47703579"
         x2="0.46977109"
         y2="0.47703579"
         style="font-style:normal;font-variant:normal;font-weight:normal;font-stretch:normal;letter-spacing:normal;word-spacing:normal;text-anchor:start;fill:none;fill-opacity:1;stroke:black;stroke-width:0.00225693;stroke-linecap:round;stroke-linejoin:miter;stroke-miterlimit:10.43299961;stroke-dasharray:none;stroke-dashoffset:0;stroke-opacity:1"
         id="line150" />
      <path
         d="M 0.43065677,0.43708814 L 0.43065677,0.43717494 L 0.43065677,0.43727911 L 0.43063941,0.43740063 L 0.43063941,0.43752216 L 0.43063941,0.43766105 L 0.43062204,0.4378173 L 0.43062204,0.43799091 L 0.43060468,0.43816452 L 0.43058732,0.43856382 L 0.43056996,0.43899785 L 0.43053524,0.43946659 L 0.43050052,0.43997006 L 0.43046579,0.44050825 L 0.43043107,0.44106381 L 0.43039635,0.44165408 L 0.43036163,0.44226171 L 0.43032691,0.44286935 L 0.43030955,0.44351171 L 0.4302401,0.44477906 L 0.43018802,0.44604641 L 0.43017066,0.44667141 L 0.4301533,0.44727904 L 0.43013594,0.44788668 L 0.43013594,0.44845959 L 0.43013594,0.44901514 L 0.43013594,0.44953597 L 0.43013594,0.45003944 L 0.4301533,0.45049083 L 0.43018802,0.45090749 L 0.43020538,0.45109846 L 0.43022274,0.45128943 L 0.4302401,0.45146304 L 0.43025746,0.45161929 L 0.43029219,0.45177554 L 0.43030955,0.45189707 L 0.43034427,0.4520186 L 0.43037899,0.45212276 L 0.43041371,0.45222693 L 0.43044843,0.45229637 C 0.43303522,0.45687968 0.43695881,0.44696654 0.43732339,0.44583808"
         style="font-style:normal;font-variant:normal;font-weight:normal;font-stretch:normal;letter-spacing:normal;word-spacing:normal;text-anchor:start;fill:none;fill-opacity:1;stroke:black;stroke-width:0.00208332;stroke-linecap:round;stroke-linejoin:miter;stroke-miterlimit:10.43299961;stroke-dasharray:none;stroke-dashoffset:0;stroke-opacity:1"
         id="path152" />
      <path
         d="M 0.42586513,0.45271304 C 0.42635124,0.45153249 0.4229832,0.44694918 0.42232349,0.44583808"
         style="font-style:normal;font-variant:normal;font-weight:normal;font-stretch:normal;letter-spacing:normal;word-spacing:normal;text-anchor:start;fill:none;fill-opacity:1;stroke:black;stroke-width:0.00208332;stroke-linecap:round;stroke-linejoin:miter;stroke-miterlimit:10.43299961;stroke-dasharray:none;stroke-dashoffset:0;stroke-opacity:1"
         id="path154" />
      <line
         x1="0.42048323"
         y1="0.45363319"
         x2="0.44048309"
         y2="0.45363319"
         style="font-style:normal;font-variant:normal;font-weight:normal;font-stretch:normal;letter-spacing:normal;word-spacing:normal;text-anchor:start;fill:none;fill-opacity:1;stroke:black;stroke-width:0.00225693;stroke-linecap:round;stroke-linejoin:miter;stroke-miterlimit:10.43299961;stroke-dasharray:none;stroke-dashoffset:0;stroke-opacity:1"
         id="line156" />
      <path
         d="M 0.49003139,0.43708814 L 0.49003139,0.43717494 L 0.49003139,0.43727911 L 0.49001402,0.43740063 L 0.49001402,0.43752216 L 0.49001402,0.43766105 L 0.48999666,0.4378173 L 0.48999666,0.43799091 L 0.4899793,0.43816452 L 0.48996194,0.43856382 L 0.48992722,0.43899785 L 0.48990986,0.43946659 L 0.48987514,0.43997006 L 0.48984041,0.44050825 L 0.48980569,0.44106381 L 0.48977097,0.44165408 L 0.48973625,0.44226171 L 0.48970153,0.44286935 L 0.48966681,0.44351171 L 0.48961472,0.44477906 L 0.48956264,0.44604641 L 0.48952792,0.44667141 L 0.48951056,0.44727904 L 0.48951056,0.44788668 L 0.48949319,0.44845959 L 0.48949319,0.44901514 L 0.48949319,0.44953597 L 0.48951056,0.45003944 L 0.48952792,0.45049083 L 0.48956264,0.45090749 L 0.48956264,0.45109846 L 0.48958,0.45128943 L 0.48961472,0.45146304 L 0.48963208,0.45161929 L 0.48964944,0.45177554 L 0.48968417,0.45189707 L 0.48971889,0.4520186 L 0.48975361,0.45212276 L 0.48978833,0.45222693 L 0.48982305,0.45229637 C 0.49239248,0.45687968 0.49633343,0.44696654 0.49669801,0.44583808"
         style="font-style:normal;font-variant:normal;font-weight:normal;font-stretch:normal;letter-spacing:normal;word-spacing:normal;text-anchor:start;fill:none;fill-opacity:1;stroke:black;stroke-width:0.00208332;stroke-linecap:round;stroke-linejoin:miter;stroke-miterlimit:10.43299961;stroke-dasharray:none;stroke-dashoffset:0;stroke-opacity:1"
         id="path158" />
      <path
         d="M 0.48523975,0.45271304 C 0.4857085,0.45153249 0.48235782,0.44694918 0.48169811,0.44583808"
         style="font-style:normal;font-variant:normal;font-weight:normal;font-stretch:normal;letter-spacing:normal;word-spacing:normal;text-anchor:start;fill:none;fill-opacity:1;stroke:black;stroke-width:0.00208332;stroke-linecap:round;stroke-linejoin:miter;stroke-miterlimit:10.43299961;stroke-dasharray:none;stroke-dashoffset:0;stroke-opacity:1"
         id="path160" />
      <line
         x1="0.47984052"
         y1="0.45363319"
         x2="0.49984035"
         y2="0.45363319"
         style="font-style:normal;font-variant:normal;font-weight:normal;font-stretch:normal;letter-spacing:normal;word-spacing:normal;text-anchor:start;fill:none;fill-opacity:1;stroke:black;stroke-width:0.00225693;stroke-linecap:round;stroke-linejoin:miter;stroke-miterlimit:10.43299961;stroke-dasharray:none;stroke-dashoffset:0;stroke-opacity:1"
         id="line162" />
    </g>
  </g>
</svg>
