<?xml version="1.0" encoding="UTF-8" standalone="no"?>
<!-- Created with Inkscape (http://www.inkscape.org/) -->
<svg
   xmlns:dc="http://purl.org/dc/elements/1.1/"
   xmlns:cc="http://web.resource.org/cc/"
   xmlns:rdf="http://www.w3.org/1999/02/22-rdf-syntax-ns#"
   xmlns:svg="http://www.w3.org/2000/svg"
   xmlns="http://www.w3.org/2000/svg"
   xmlns:sodipodi="http://sodipodi.sourceforge.net/DTD/sodipodi-0.dtd"
   xmlns:inkscape="http://www.inkscape.org/namespaces/inkscape"
   width="744.09448819"
   height="1052.3622047"
   id="svg3652"
   sodipodi:version="0.32"
   inkscape:version="0.44.1"
   sodipodi:docbase="/home/beppe/Desktop/Grafie"
   sodipodi:docname="sorgente.svg">
  <defs
     id="defs3654" />
  <sodipodi:namedview
     id="base"
     pagecolor="#ffffff"
     bordercolor="#666666"
     borderopacity="1.0"
     inkscape:pageopacity="0.0"
     inkscape:pageshadow="2"
     inkscape:zoom="0.35"
     inkscape:cx="375"
     inkscape:cy="520"
     inkscape:document-units="px"
     inkscape:current-layer="layer1"
     inkscape:window-width="959"
     inkscape:window-height="589"
     inkscape:window-x="312"
     inkscape:window-y="400" />
  <metadata
     id="metadata3657">
    <rdf:RDF>
      <cc:Work
         rdf:about="">
        <dc:format>image/svg+xml</dc:format>
        <dc:type
           rdf:resource="http://purl.org/dc/dcmitype/StillImage" />
      </cc:Work>
    </rdf:RDF>
  </metadata>
  <g
     inkscape:label="Livello 1"
     inkscape:groupmode="layer"
     id="layer1">
    <path
       id="path242"
       style="font-style:normal;font-variant:normal;font-weight:normal;font-stretch:normal;letter-spacing:normal;word-spacing:normal;text-anchor:start;fill:none;fill-opacity:1;stroke:black;stroke-width:1.49999034;stroke-linecap:butt;stroke-linejoin:miter;stroke-miterlimit:10.43299961;stroke-dasharray:none;stroke-dashoffset:0;stroke-opacity:1"
       d="M 359.5201,532.36027 L 359.5401,531.5628 L 359.6001,530.77656 L 359.6976,530.00285 L 359.83385,529.2403 L 360.00635,528.49157 L 360.2151,527.75659 L 360.45884,527.03782 L 360.73634,526.33409 L 361.04634,525.64908 L 361.38759,524.98157 L 361.76009,524.33285 L 362.16258,523.70537 L 362.59383,523.09783 L 363.05382,522.51413 L 363.54008,521.95159 L 364.05257,521.41411 L 364.59007,520.90162 L 365.15131,520.4154 L 365.73631,519.95662 L 366.34381,519.52411 L 366.9713,519.12163 L 367.62005,518.74918 L 368.28754,518.4079 L 368.97254,518.09787 L 369.67503,517.82038 L 370.39503,517.57788 L 371.13002,517.36915 L 371.87877,517.19542 L 372.64001,517.06042 L 373.41501,516.96163 L 374.20125,516.90166 L 374.99875,516.88164 C 383.54245,516.88164 390.4799,523.81035 390.4799,532.36027 C 390.4799,540.91027 383.54245,547.84272 374.99875,547.84272 C 366.4488,547.84272 359.5201,540.91027 359.5201,532.36027 z " />
  </g>
</svg>
