<?xml version="1.0" encoding="UTF-8" standalone="no"?>
<!-- Created with Inkscape (http://www.inkscape.org/) -->
<svg
   xmlns:dc="http://purl.org/dc/elements/1.1/"
   xmlns:cc="http://web.resource.org/cc/"
   xmlns:rdf="http://www.w3.org/1999/02/22-rdf-syntax-ns#"
   xmlns:svg="http://www.w3.org/2000/svg"
   xmlns="http://www.w3.org/2000/svg"
   xmlns:sodipodi="http://sodipodi.sourceforge.net/DTD/sodipodi-0.dtd"
   xmlns:inkscape="http://www.inkscape.org/namespaces/inkscape"
   width="744.09448819"
   height="1052.3622047"
   id="svg3683"
   sodipodi:version="0.32"
   inkscape:version="0.44.1"
   sodipodi:docbase="/home/beppe/Desktop/Grafie"
   sodipodi:docname="sorgente_termale.svg">
  <defs
     id="defs3685" />
  <sodipodi:namedview
     id="base"
     pagecolor="#ffffff"
     bordercolor="#666666"
     borderopacity="1.0"
     inkscape:pageopacity="0.0"
     inkscape:pageshadow="2"
     inkscape:zoom="0.35"
     inkscape:cx="375"
     inkscape:cy="520"
     inkscape:document-units="px"
     inkscape:current-layer="layer1"
     inkscape:window-width="959"
     inkscape:window-height="589"
     inkscape:window-x="312"
     inkscape:window-y="400" />
  <metadata
     id="metadata3688">
    <rdf:RDF>
      <cc:Work
         rdf:about="">
        <dc:format>image/svg+xml</dc:format>
        <dc:type
           rdf:resource="http://purl.org/dc/dcmitype/StillImage" />
      </cc:Work>
    </rdf:RDF>
  </metadata>
  <g
     inkscape:label="Livello 1"
     inkscape:groupmode="layer"
     id="layer1">
    <g
       transform="matrix(720,0,0,720,26.33362,305.6394)"
       id="g3679">
      <path
         d="M 0.46275726,0.31490142 L 0.46277462,0.31379031 L 0.46286142,0.31269657 L 0.46300031,0.31162019 L 0.46319128,0.31056117 L 0.46343433,0.30951951 L 0.46371211,0.30849521 L 0.46405933,0.30750563 L 0.46444127,0.30651606 L 0.4648753,0.30557856 L 0.46534404,0.30464107 L 0.46586487,0.30373829 L 0.46642043,0.30287024 L 0.46702806,0.30201956 L 0.46767042,0.30122095 L 0.4683475,0.30043971 L 0.4690593,0.29969318 L 0.46980582,0.29898138 L 0.47058707,0.2983043 L 0.47138567,0.29766195 L 0.47223636,0.29705431 L 0.47310441,0.29649876 L 0.47400718,0.29597793 L 0.47492732,0.29550918 L 0.47588217,0.29507516 L 0.47687175,0.29469321 L 0.47786133,0.29434599 L 0.47888562,0.29406822 L 0.47992728,0.29382516 L 0.48098631,0.29363419 L 0.48206269,0.2934953 L 0.48315643,0.2934085 L 0.48425017,0.29339114 C 0.4961251,0.29339114 0.50576045,0.30302649 0.50576045,0.31490142 C 0.50576045,0.32677634 0.4961251,0.33639434 0.48425017,0.33639434 C 0.47237525,0.33639434 0.46275726,0.32677634 0.46275726,0.31490142 z "
         style="font-style:normal;font-variant:normal;font-weight:normal;font-stretch:normal;letter-spacing:normal;word-spacing:normal;text-anchor:start;fill:none;fill-opacity:1;stroke:black;stroke-width:0.00208332;stroke-linecap:butt;stroke-linejoin:miter;stroke-miterlimit:10.43299961;stroke-dasharray:none;stroke-dashoffset:0;stroke-opacity:1"
         id="path246" />
      <path
         d="M 0.47397246,0.31490142 L 0.47398982,0.31436323 L 0.47402454,0.3138424 L 0.47409399,0.31332157 L 0.47418079,0.3128181 L 0.47428496,0.31233199 L 0.47442385,0.31182852 L 0.47459746,0.31135977 L 0.47477107,0.31089103 L 0.4749794,0.31043964 L 0.47520509,0.30998826 L 0.47546551,0.30955423 L 0.47572592,0.30913757 L 0.4760037,0.30873826 L 0.4763162,0.30835632 L 0.47664606,0.30797438 L 0.47697591,0.30762716 L 0.47734049,0.30727994 L 0.47770508,0.30696744 L 0.47810438,0.30665494 L 0.47850368,0.30635981 L 0.47892035,0.30609939 L 0.47935437,0.30585634 L 0.4797884,0.30563064 L 0.48025714,0.30542231 L 0.48072589,0.30523134 L 0.48119464,0.30507509 L 0.48168074,0.3049362 L 0.48218421,0.30481468 L 0.48268768,0.30472787 L 0.48320851,0.30465843 L 0.48372934,0.30462371 L 0.48425017,0.30460635 C 0.48992722,0.30460635 0.49454525,0.30922437 0.49454525,0.31490142 C 0.49454525,0.32057846 0.48992722,0.32517913 0.48425017,0.32517913 C 0.47857313,0.32517913 0.47397246,0.32057846 0.47397246,0.31490142 z "
         style="font-style:normal;font-variant:normal;font-weight:normal;font-stretch:normal;letter-spacing:normal;word-spacing:normal;text-anchor:start;fill:none;fill-opacity:1;stroke:black;stroke-width:0.00208332;stroke-linecap:butt;stroke-linejoin:miter;stroke-miterlimit:10.43299961;stroke-dasharray:none;stroke-dashoffset:0;stroke-opacity:1"
         id="path248" />
    </g>
  </g>
</svg>
