/* XPM */
static char * atlasstyler_tessting_xpm[] = {
"64 64 192 2",
"  	c None",
". 	c #D7EC9E",
"+ 	c #628A38",
"@ 	c #265904",
"# 	c #285A05",
"$ 	c #265803",
"% 	c #B7D182",
"& 	c #A1BF6F",
"* 	c #225500",
"= 	c #8EAF5E",
"- 	c #2D5E0A",
"; 	c #618A37",
"> 	c #5E8735",
", 	c #356410",
"' 	c #C1DA8B",
") 	c #BDD788",
"! 	c #95B665",
"~ 	c #FE1F00",
"{ 	c #544800",
"] 	c #AC3300",
"^ 	c #DE2600",
"/ 	c #F82403",
"( 	c #FD2101",
"_ 	c #FB2A08",
": 	c #F83D17",
"< 	c #F2582C",
"[ 	c #EC7D48",
"} 	c #E3AA6B",
"| 	c #993700",
"1 	c #3C6A16",
"2 	c #704100",
"3 	c #44711E",
"4 	c #CB2B00",
"5 	c #BB2F00",
"6 	c #9B9148",
"7 	c #D7E79A",
"8 	c #D8E397",
"9 	c #E0BC79",
"0 	c #ED7441",
"a 	c #FC2504",
"b 	c #3F6D19",
"c 	c #F32100",
"d 	c #325000",
"e 	c #88A959",
"f 	c #DAD78E",
"g 	c #F16032",
"h 	c #F72000",
"i 	c #3C4E00",
"j 	c #8AAC5B",
"k 	c #D22900",
"l 	c #D52800",
"m 	c #B2803F",
"n 	c #D9DE93",
"o 	c #A4C272",
"p 	c #724100",
"q 	c #F93410",
"r 	c #F15F31",
"s 	c #E7955B",
"t 	c #DADB91",
"u 	c #8A3B00",
"v 	c #F92000",
"w 	c #FC2706",
"x 	c #E88F56",
"y 	c #3E4E00",
"z 	c #943800",
"A 	c #D62B02",
"B 	c #E59E62",
"C 	c #C5DD8F",
"D 	c #5B8532",
"E 	c #D8E498",
"F 	c #DFBE7A",
"G 	c #EA854F",
"H 	c #FA300D",
"I 	c #F6441D",
"J 	c #769B4A",
"K 	c #83A655",
"L 	c #DDC983",
"M 	c #CEE597",
"N 	c #BE2E00",
"O 	c #494B00",
"P 	c #B4CF80",
"Q 	c #D9DF94",
"R 	c #C42D00",
"S 	c #8F5314",
"T 	c #DCCC85",
"U 	c #D8E699",
"V 	c #DEC781",
"W 	c #F25C2F",
"X 	c #F54D23",
"Y 	c #E59F63",
"Z 	c #F62000",
"` 	c #ED7744",
" .	c #D7EB9D",
"..	c #2A5200",
"+.	c #674400",
"@.	c #C55823",
"#.	c #F45025",
"$.	c #FC2605",
"%.	c #FD2001",
"&.	c #FC2908",
"*.	c #F7421B",
"=.	c #EE6F3D",
"-.	c #DFBD7A",
";.	c #33630F",
">.	c #CCE395",
",.	c #245702",
"'.	c #9DBB6B",
").	c #D1E798",
"!.	c #467320",
"~.	c #87A958",
"{.	c #D3E89A",
"].	c #6D9341",
"^.	c #9EBC6C",
"/.	c #396814",
"(.	c #B2CD7E",
"_.	c #688F3D",
":.	c #91B161",
"<.	c #57812E",
"[.	c #799D4C",
"}.	c #94B463",
"|.	c #AFCB7B",
"1.	c #CAE193",
"2.	c #8BAD5C",
"3.	c #C4DC8D",
"4.	c #BFD889",
"5.	c #658D3B",
"6.	c #749947",
"7.	c #598230",
"8.	c #C7DE90",
"9.	c #69913E",
"0.	c #648B39",
"a.	c #2F600B",
"b.	c #AAC676",
"c.	c #2B5D08",
"d.	c #32620E",
"e.	c #416F1B",
"f.	c #B9D384",
"g.	c #497521",
"h.	c #517D2A",
"i.	c #B9D485",
"j.	c #D4E99B",
"k.	c #8FB05F",
"l.	c #A3C171",
"m.	c #CFE597",
"n.	c #477420",
"o.	c #729846",
"p.	c #ACC879",
"q.	c #CCE294",
"r.	c #608835",
"s.	c #BDD687",
"t.	c #9BBA6A",
"u.	c #ABC878",
"v.	c #7EA150",
"w.	c #3D6B18",
"x.	c #547F2B",
"y.	c #A7C474",
"z.	c #C5DD8E",
"A.	c #90B060",
"B.	c #BAD384",
"C.	c #386813",
"D.	c #B5CF80",
"E.	c #2A5B07",
"F.	c #709644",
"G.	c #98B867",
"H.	c #2A5C07",
"I.	c #7B9F4D",
"J.	c #4D7926",
"K.	c #ABC778",
"L.	c #99B867",
"M.	c #6E9442",
"N.	c #D3E99B",
"O.	c #C0D88A",
"P.	c #406E1A",
"Q.	c #4C7825",
"R.	c #A6C373",
"S.	c #366611",
"T.	c #B0CB7C",
"U.	c #9AB868",
"V.	c #81A453",
"W.	c #285905",
"X.	c #648D3A",
"Y.	c #68903D",
"Z.	c #B4CF7F",
"`.	c #A4C171",
" +	c #6A903F",
".+	c #5F8835",
"++	c #719845",
"@+	c #55802D",
"#+	c #6B9240",
"$+	c #44721E",
"%+	c #3C6B17",
"&+	c #86A857",
"      . . . . . . . . . . . . . . . . . . . . . . . . . + @ # @ # $ # $ # % . . . . . . . . . . . . . . . . . . . . . . .       ",
"  . . . . . . . . . . . . . . . . . . . . . . . . . . . & * * * * * * * * = . . . . . . . . . . . . . . . . . . . . . . . . .   ",
"  . . . . . . . . . . . . . . . . . . . . . . . . . . . . - * * * * * * * ; . . . . . . . . . . . . . . . . . . . . . . . . .   ",
". . . . . . . . . . . . . . . . . . . . . . . . . . . . . > * * * * * * * , . . . . . . . . . . . . . . . . . . . . . . . . . . ",
". . . . . . . . . . . . . . . . . . . . . . . . . . . . . = * * * * * * * * ' . . . . . . . . . . . . . . . . . . . . . . . . . ",
". . . . . . . . . . . . . . . . . . . . . . . . . . . . . ) * * * * * * * * ! . . . . . . . . . . . . . . . . . . . . . . . . . ",
"~ ~ ~ ~ ~ ~ ~ ~ ~ ~ ~ ~ ~ ~ ~ . . ~ ~ ~ ~ ~ ~ ~ ~ ~ ~ ~ ~ . # * * * * { ] ^ / ( _ : < [ } . . . ~ ~ ~ ~ ~ ~ ~ ~ ~ ~ ~ ~ ~ ~ ~ ~ ",
"~ ~ ~ ~ ~ ~ ~ ~ ~ ~ ~ ~ ~ ~ ~ . . ~ ~ ~ ~ ~ ~ ~ ~ ~ ~ ~ ~ . , * * * | ~ ~ ~ ~ ~ ~ ~ ~ ~ ~ . . . ~ ~ ~ ~ ~ ~ ~ ~ ~ ~ ~ ~ ~ ~ ~ ~ ",
"~ ~ ~ ~ ~ ~ ~ ~ ~ ~ ~ ~ ~ ~ ~ . . ~ ~ ~ ~ ~ ~ ~ ~ ~ ~ ~ ~ . 1 * * 2 ~ ~ ~ ~ ~ ~ ~ ~ ~ ~ ~ . . . ~ ~ ~ ~ ~ ~ ~ ~ ~ ~ ~ ~ ~ ~ ~ ~ ",
". . . . . ~ ~ ~ ~ . . . . . . . . ~ ~ ~ ~ . . . . . . . . . 3 * * 4 ~ ~ ~ 5 6 7 8 9 0 a ~ . . . . . . . . . ~ ~ ~ ~ . . . . . . ",
". . . . . ~ ~ ~ ~ . . . . . . . . ~ ~ ~ ~ . . . . . . . . . b * * c ~ ~ ~ d e . . . . f g . . . . . . . . . ~ ~ ~ ~ . . . . . . ",
". . . . . ~ ~ ~ ~ . . . . . . . . ~ ~ ~ ~ . . . . . . . . . @ * * h ~ ~ ~ i j . . . . . . . . . . . . . . . ~ ~ ~ ~ . . . . . . ",
". . . . . ~ ~ ~ ~ . . . . . . . . ~ ~ ~ ~ ~ ~ ~ ~ ~ ~ ~ . ) * * * k ~ ~ ~ l m n . . . . . . . . . . . . . . ~ ~ ~ ~ . . . . . . ",
". . . . . ~ ~ ~ ~ . . . . . . . . ~ ~ ~ ~ ~ ~ ~ ~ ~ ~ ~ . o * * * p ~ ~ ~ ~ ~ ~ q r s t . . . . . . . . . . ~ ~ ~ ~ . . . . . . ",
". . . . . ~ ~ ~ ~ . . . . . . . . ~ ~ ~ ~ ~ ~ ~ ~ ~ ~ ~ . = * * * * u v ~ ~ ~ ~ ~ ~ ~ w x . . . . . . . . . ~ ~ ~ ~ . . . . . . ",
". . . . . ~ ~ ~ ~ . . . . . . . . ~ ~ ~ ~ . . . . . . . . + * * * * * y z A ( ~ ~ ~ ~ ~ ~ B . . . . . . . . ~ ~ ~ ~ . . . . . . ",
". . . . . ~ ~ ~ ~ . . . . . . . . ~ ~ ~ ~ . . . . . . . C @ * * * * * * * D E F G H ~ ~ ~ I . . . . . . . . ~ ~ ~ ~ . . . . . . ",
". . . . . ~ ~ ~ ~ . . . . . . . . ~ ~ ~ ~ . . . . . . . J * * * * * * * * K . . . L ~ ~ ~ a . . . . . . . . ~ ~ ~ ~ . . . . . . ",
". . . . . ~ ~ ~ ~ . . . . . . . . ~ ~ ~ ~ . . . . . . M - * * * * N O * * P . . . Q ~ ~ ~ _ . . . . . . . . ~ ~ ~ ~ . . . . . . ",
". . . . . ~ ~ ~ ~ . . . . . . . . ~ ~ ~ ~ . . . . . . e * * * * * ~ ~ R S T U 7 V W ~ ~ ~ X . . . . . . . . ~ ~ ~ ~ . . . . . . ",
". . . . . ~ ~ ~ ~ . . . . . . . . ~ ~ ~ ~ ~ ~ ~ ~ ~ ~ ~ ~ * * * * ~ ~ ~ ~ ~ ~ ~ ~ ~ ~ ~ ~ Y . . . . . . . . ~ ~ ~ ~ . . . . . . ",
". . . . . ~ ~ ~ ~ . . . . . . . . ~ ~ ~ ~ ~ ~ ~ ~ ~ ~ ~ ~ * * * * Z ~ ~ ~ ~ ~ ~ ~ ~ ~ ~ `  .. . . . . . . . ~ ~ ~ ~ . . . . . . ",
". . . . . ~ ~ ~ ~ . . . . . . . . ~ ~ ~ ~ ~ ~ ~ ~ ~ ~ ~ ~ * * * * ..+.@.#.q $.%.&.*.=.-.. . . . . . . . . . ~ ~ ~ ~ . . . . . . ",
". . . . . . . . . . . . . . . . . . . . . . . . = * * * * * * * * * ;.>.. . . . . . . . . . . . . . . . . . . . . . . . . . . . ",
". . . . . . . . . . . . . . . . . . . . . . . K ,.* * * * * * * * * '.. . . . . . . . . . . . . . . . . . . . . . . . . . . . . ",
". . . . . . . . . . . . . . . . . . . . . ).+ * * * * * * * * * * D . . . . . . . . . . . . . . . . . . . . . . . . . . . . . . ",
". . . . . . . . . . . . . . . . . . . . ' !.* * * * * * * * * * - C . . . . . . . . . . . . . . . . . . . . . . . . . . . . . . ",
"~.{.. . . . . . . . . . . . . . . . ' ].# * * * * * * * * * * ,.^.. . . . . . . . . . . . . . . . . . . . . . . . . . . . . . . ",
",./.! ).. . . . . . . . . . . . (._.$ * * * * * * * * * * * * :.. . . . . . . . . . . . . . . . . . . . . . . . . . . . . . . . ",
"$ * * # <.[.}.|.1.1.' % |.2.D - * * * * * * * * * * * * * * K . . . . . . . . . . . . . . . . . . . . . . . . . . . . . . . . . ",
"# * * * * * * * * * * * * * * * * * * * * * * * * * * * * J . . . . . . . . . . . . . . . . . . . . . . . . . . . . . . . . . . ",
"# * * * * * * * * * * * * * * * * * * * * * * * * * * @ = . . . . . . . . . . . . . . . ' C . . . . . . . . . . . . . . . . . . ",
"- * * * * * * * * * * * * * * * * * * * * * * * * * , |.. . . . 3.4.4.M . . . . . . . . 5.6.. . . . . . . . . . . . . . . . . . ",
"- * * * * * * * * * * * * * * * * * * * * * * * * 7.8.. . . . C $ * * 9.. . . . . . . . 0.6.. . . . . . . . . . . . . . . . . . ",
"a.* * * * * * * * * * * * * * * * * * * * * * 3 b.. . . . . . K * * * c.).. . . >.:.. . 0.6.. . . . . . . . . . . . . . . . . . ",
"d.* * * * * * * * * * * * * * * * * * * * e.:.. . . . . . . . 1 * * * * ! . . . f.* {.. 0.6.. . . . . . . . . . . . . . . . . . ",
"g.* * * * * * * * * * * * * * * * * c.9.|.. . . . . . . . . |.* * /.* * h.. . . i.* j.. 0.6.. . . . . . . . . . . . . . . . . . ",
". ' k.D /.$ * * * * * * * * c.h.[.l.m.. . . . . . . . . . . 5.* * ! /.* * ' . . n.* b b.0.o.. . |.g.$ e.o !.p.. q.r.- _.. . . . ",
". . . . . {.s.o t.o u.(.% 4.. . . . . . . . . . . . . . . q.# * @ q.J * * v.. . :.* & 1.0.6.. 1.@ ; p.= w.,.o . j x.y.r.z.. . . ",
". . . . . . . . . . . . . . . . . . . . . . . . . . . . . A.,.* 7.. % * * w.. . B.* {.. 0.6.. k.e.. . . o * o . = C.D.. . . . . ",
". . . . . . . . . . . . . . . . . . . . . . . . . . . . . g.* * * * * * * * |.. i.* j.. 0.6.. <.[.. . . . E.o . M F.$ D 1.. . . ",
". . . . . . . . . . . . . . . . . . . . . . . . . . . . B.,.* * * * * * * * 5.. B.* j.. 0.6.. J <.. . . s.* o . . . ' 1 o.. . . ",
". . . . . . . . . . . . . . . . . . . . . . . . . . . . 6.* * > o o o G.* * H.m.f.* j.. 0.6.. % @ y.. q._.* o . ].% . ].5.. . . ",
". . . . . . . . . . . . . . . . . . . . . . . . . . . j.d.* * (.. . . . g.* * }.f.* j.. 0.6.. . ].* 3 - 7.# o . I.E.J.- (.. . . ",
". . . . . . . . . . . . . . . . . . . . . . . . . . . m.b.b.p.. . . . . s.b.b.s.).b.. . f.) . . . % :.u.. K.1.. . B.L.m.. . . . ",
". . . . . . . . . . . . . . . . . . . . . . . . . . . . . . . . . . . . . . . . . . . . . . . . . . . . . . . . . . . . . . . . ",
". . . . . . . . . . . . . . . . . . . . . . . . . . . . . . . . . . . . . . . . . . . . . . . . . . . . . . . . . . . . . . . . ",
". . . . . . . . . . . . . . . . . . . . . . . . . . . . . . . . . . . . . . . . . . . . . . M.|.. . . . . . . . . . . . . . . . ",
". . . . . . . . . . . . . . . . . . . . . . . . . . N.2.J.w.0.:.O.. . . . . . . . . . . . . e.G.. . . . . . . . . . . . . . . . ",
". . . . . . . . . . . . . . . . . . . . . . . . . . 9.* * * * * J.. . . . . . . . . . . . j.P.G.. . . . . . . . . . . . . . . . ",
". . . . . . . . . . . . . . . . . . . . . . . . . % * * ,.r.3 ,.b.. . Q.R.. . . . . . . . . b G.. . . . . . . . . . . . . . . . ",
". . . . . . . . . . . . . . . . . . . . . . . . . :.* * J.. . f.. . . S.& . . . . . . . . . e.L.. . . . . . . . . . . . . . . . ",
". . . . . . . . . . . . . . . . . . . . . . . . . }.* * * ].T.. . . T.a.6.& G.j.. . . O.t.. e.L.. . m.U.V.& . . . |.% ^.j m.. . ",
". . . . . . . . . . . . . . . . . . . . . . . . . 3.- * * * * J.T.. V.$ 1 [.W.& . . . 7.; . 1 L.. ' 1 d.7.# 7.j.. X., g.<.{.. . ",
". . . . . . . . . . . . . . . . . . . . . . . . . . i.Y.@ * * * # ' . S.t.. F.3 . . s.,.Z.. e.G.. 5.g.. . 1.- :.. X.b . . . . . ",
". . . . . . . . . . . . . . . . . . . . . . . . . . . . 1.e ,.* ,.A.. S.& . C # `..  +x.. . w.G.. d.h.F.o.F.b .+. X.; . . . . . ",
". . . . . . . . . . . . . . . . . . . . . . . . . . ! {.. . h.* * :.. C.^.. . o.g.1.# K.. . b G.. ,.X.K V.K K U.. X.++. . . . . ",
". . . . . . . . . . . . . . . . . . . . . . . . . b.* b o.].* * * Z.. /.& . . C # h.Q.. . . b G.. e.9.. . . U.i.. X.o.. . . . . ",
". . . . . . . . . . . . . . . . . . . . . . . . . @+* * * * * * 9.. . , ^.. . . 6.* & . . . b G.. ^.@ #+b.[.# u.. X.o.. . . . . ",
". . . . . . . . . . . . . . . . . . . . . . . . . m.V.$+# $ %+k.. . . > |.. . . K e.. . . . 5.b.. . l.J.C..+b.. . K 2.. . . . . ",
". . . . . . . . . . . . . . . . . . . . . . . . . . . . . j.. . . . . . . . . m.d.! . . . . . . . . . . . . . . . . . . . . . . ",
"  . . . . . . . . . . . . . . . . . . . . . . . . . . . . . . . . . . . . . . &+/.N.. . . . . . . . . . . . . . . . . . . . .   ",
"  . . . . . . . . . . . . . . . . . . . . . . . . . . . . . . . . . . . . . {.;.= . . . . . . . . . . . . . . . . . . . . . .   ",
"      . . . . . . . . . . . . . . . . . . . . . . . . . . . . . . . . . . . y.D ).. . . . . . . . . . . . . . . . . . . .       "};
