/* XPM */
static char *icon___GP[] = {
/* columns rows colors chars-per-pixel */
"64 64 251 2",
"   c #225500",
".  c #235601",
"X  c #245601",
"o  c #245702",
"O  c #255702",
"+  c #255803",
"@  c #265803",
"#  c #265904",
"$  c #275904",
"%  c #285905",
"&  c #285A05",
"*  c #285A06",
"=  c #295A06",
"-  c #295B06",
";  c #2A5B07",
":  c #2A5C07",
">  c #2B5C07",
",  c #2B5D08",
"<  c #2C5D09",
"1  c #2D5E09",
"2  c #2D5E0A",
"3  c #2D5F0A",
"4  c #2E5F0B",
"5  c #2F600B",
"6  c #2F600C",
"7  c #2F610C",
"8  c #30610C",
"9  c #31610D",
"0  c #32620E",
"q  c #33630F",
"w  c #34640F",
"e  c #356410",
"r  c #356511",
"t  c #366611",
"y  c #366612",
"u  c #386813",
"i  c #396814",
"p  c #3A6914",
"a  c #3A6915",
"s  c #3B6916",
"d  c #3B6A16",
"f  c #3C6A16",
"g  c #3C6B17",
"h  c #3D6B18",
"j  c #3E6C18",
"k  c #3E6D19",
"l  c #3F6D19",
"z  c #3F6E1A",
"x  c #406D19",
"c  c #406E1A",
"v  c #406F1B",
"b  c #416F1B",
"n  c #42701C",
"m  c #44701D",
"M  c #44711E",
"N  c #44721E",
"B  c #467320",
"V  c #477420",
"C  c #487421",
"Z  c #497521",
"A  c #4A7623",
"S  c #4A7723",
"D  c #4B7724",
"F  c #4B7824",
"G  c #4C7825",
"H  c #4D7925",
"J  c #4D7926",
"K  c #4E7926",
"L  c #4F7A27",
"P  c #4F7B28",
"I  c #517C29",
"U  c #517D2A",
"Y  c #527D2A",
"T  c #547F2B",
"R  c #557F2C",
"E  c #56812D",
"W  c #56802E",
"Q  c #57812E",
"!  c #58822F",
"~  c #598230",
"^  c #598330",
"/  c #5A8330",
"(  c #5A8431",
")  c #5A8432",
"_  c #5B8532",
"`  c #5C8633",
"'  c #5D8633",
"]  c #5E8735",
"[  c #5F8835",
"{  c #5F8936",
"}  c #608937",
"|  c #618937",
" . c #618A37",
".. c #628A38",
"X. c #638B38",
"o. c #648B39",
"O. c #648D3A",
"+. c #658D3B",
"@. c #668E3B",
"#. c #678F3C",
"$. c #688F3D",
"%. c #68903D",
"&. c #69903E",
"*. c #69913E",
"=. c #6A903F",
"-. c #6B9240",
";. c #6C9240",
":. c #6D9341",
">. c #6E9442",
",. c #6F9543",
"<. c #6F9644",
"1. c #719745",
"2. c #729846",
"3. c #749947",
"4. c #759948",
"5. c #759A48",
"6. c #759B49",
"7. c #769B4A",
"8. c #789D4B",
"9. c #799D4C",
"0. c #7A9E4C",
"q. c #7B9F4D",
"w. c #7BA04E",
"e. c #7DA04F",
"r. c #7CA14F",
"t. c #7EA150",
"y. c #7FA251",
"u. c #80A452",
"i. c #81A453",
"p. c #82A554",
"a. c #83A655",
"s. c #84A756",
"d. c #85A756",
"f. c #84A856",
"g. c #85A857",
"h. c #86A857",
"j. c #87A958",
"k. c #88A959",
"l. c #88AA59",
"z. c #89AB5A",
"x. c #8AAB5A",
"c. c #8AAC5B",
"v. c #8BAD5C",
"b. c #8CAD5C",
"n. c #8CAE5D",
"m. c #8DAF5E",
"M. c #8EAF5E",
"N. c #8FB05F",
"B. c #8FB15F",
"V. c #91B161",
"C. c #92B262",
"Z. c #92B362",
"A. c #94B463",
"S. c #95B464",
"D. c #95B564",
"F. c #95B665",
"G. c #96B666",
"H. c #97B766",
"J. c #98B867",
"K. c #99B867",
"L. c #99B969",
"P. c #9AB868",
"I. c #9AB969",
"U. c #9BBA6A",
"Y. c #9DBB6B",
"T. c #9EBC6C",
"R. c #9FBD6C",
"E. c #9FBD6D",
"W. c #9FBE6E",
"Q. c #A0BF6E",
"!. c #A1BF6F",
"~. c #A3C071",
"^. c #A3C171",
"/. c #A4C171",
"(. c #A4C272",
"). c #A5C273",
"_. c #A5C373",
"`. c #A6C373",
"'. c #A8C575",
"]. c #A9C676",
"[. c #ABC778",
"{. c #ACC878",
"}. c #ACC879",
"|. c #ADC979",
" X c #AEC97A",
".X c #AFCA7B",
"XX c #AFCB7B",
"oX c #B0CB7C",
"OX c #B0CC7D",
"+X c #B1CD7D",
"@X c #B2CD7E",
"#X c #B4CF7F",
"$X c #B4CF80",
"%X c #B5D080",
"&X c #B5D181",
"*X c #B6D081",
"=X c #B7D182",
"-X c #B8D283",
";X c #B9D283",
":X c #B8D383",
">X c #B9D384",
",X c #BAD384",
"<X c #B9D485",
"1X c #BAD485",
"2X c #BBD586",
"3X c #BDD687",
"4X c #BDD788",
"5X c #BED788",
"6X c #BED888",
"7X c #BFD889",
"8X c #C0D88A",
"9X c #C0D98A",
"0X c #C1D98B",
"qX c #C1DA8B",
"wX c #C2DA8B",
"eX c #C2DB8C",
"rX c #C3DB8C",
"tX c #C3DB8D",
"yX c #C4DC8D",
"uX c #C4DD8E",
"iX c #C5DD8E",
"pX c #C5DD8F",
"aX c #C6DE8F",
"sX c #C7DE90",
"dX c #C7DF90",
"fX c #C8E091",
"gX c #C9E092",
"hX c #CAE092",
"jX c #CAE192",
"kX c #CAE193",
"lX c #CBE293",
"zX c #CCE294",
"xX c #CCE395",
"cX c #CDE495",
"vX c #CEE496",
"bX c #CEE597",
"nX c #CFE597",
"mX c #CFE697",
"MX c #D0E698",
"NX c #D0E798",
"BX c #D1E798",
"VX c #D2E89A",
"CX c #D3E89A",
"ZX c #D3E99B",
"AX c #D4E99B",
"SX c #D5E99C",
"DX c #D4EA9C",
"FX c #D5EB9D",
"GX c #D6EB9D",
"HX c #D7EC9E",
"JX c None",
/* pixels */
"JXJXJXHXHXHXHXHXHXHXHXHXHXHXHXHXHXHXHXHXHXHXHXHXHXHXHXHX..$ $ $ $ $ $ $ $ =XHXHXHXHXHXHXHXHXHXHXHXHXHXHXHXHXHXHXHXHXHXHXHXJXJXJX",
"JXHXHXHXHXHXHXHXHXHXHXHXHXHXHXHXHXHXHXHXHXHXHXHXHXHXHXHX!.                m.HXHXHXHXHXHXHXHXHXHXHXHXHXHXHXHXHXHXHXHXHXHXHXHXHXJX",
"JXHXHXHXHXHXHXHXHXHXHXHXHXHXHXHXHXHXHXHXHXHXHXHXHXHXHXHXGX4                .HXHXHXHXHXHXHXHXHXHXHXHXHXHXHXHXHXHXHXHXHXHXHXHXHXJX",
"HXHXHXHXHXHXHXHXHXHXHXHXHXHXHXHXHXHXHXHXHXHXHXHXHXHXHXHXHX[               y HXHXHXHXHXHXHXHXHXHXHXHXHXHXHXHXHXHXHXHXHXHXHXHXHXHX",
"HXHXHXHXHXHXHXHXHXHXHXHXHXHXHXHXHXHXHXHXHXHXHXHXHXHXHXHXHXm.                qXHXHXHXHXHXHXHXHXHXHXHXHXHXHXHXHXHXHXHXHXHXHXHXHXHX",
"HXHXHXHXHXHXHXHXHXHXHXHXHXHXHXHXHXHXHXHXHXHXHXHXHXHXHXHXHX5X                F.HXHXHXHXHXHXHXHXHXHXHXHXHXHXHXHXHXHXHXHXHXHXHXHXHX",
"HXHXHXHXHXHXHXHXHXHXHXHXHXHXHXHXHXHXHXHXHXHXHXHXHXHXHXHXHXHX:               p.HXHXHXHXHXHXHXHXHXHXHXHXHXHXHXHXHXHXHXHXHXHXHXHXHX",
"HXHXHXHXHXHXHXHXHXHXHXHXHXHXHXHXHXHXHXHXHXHXHXHXHXHXHXHXHXHX0               a.HXHXHXHXHXHXHXHXHXHXHXHXHXHXHXHXHXHXHXHXHXHXHXHXHX",
"HXHXHXHXHXHXHXHXHXHXHXHXHXHXHXHXHXHXHXHXHXHXHXHXHXHXHXHXHXHXi               h.HXHXHXHXHXHXHXHXHXHXHXHXHXHXHXHXHXHXHXHXHXHXHXHXHX",
"HXHXHXHXHXHXHXHXHXHXHXHXHXHXHXHXHXHXHXHXHXHXHXHXHXHXHXHXHXHXB               k.HXHXHXHXHXHXHXHXHXHXHXHXHXHXHXHXHXHXHXHXHXHXHXHXHX",
"HXHXHXHXHXHXHXHXHXHXHXHXHXHXHXHXHXHXHXHXHXHXHXHXHXHXHXHXHXHXh               k.HXHXHXHXHXHXHXHXHXHXHXHXHXHXHXHXHXHXHXHXHXHXHXHXHX",
"HXHXHXHXHXHXHXHXHXHXHXHXHXHXHXHXHXHXHXHXHXHXHXHXHXHXHXHXHXGX$               v.GXHXHXHXHXHXHXHXHXHXHXHXHXHXHXHXHXHXHXHXHXHXHXHXHX",
"HXHXHXHXHXHXHXHXHXHXHXHXHXHXHXHXHXHXHXHXHXHXHXHXHXHXHXHXHXqX                m.GXHXHXHXHXHXHXHXHXHXHXHXHXHXHXHXHXHXHXHXHXHXHXHXHX",
"HXHXHXHXHXHXHXHXHXHXHXHXHXHXHXHXHXHXHXHXHXHXHXHXHXHXHXHXHX(.                A.HXHXHXHXHXHXHXHXHXHXHXHXHXHXHXHXHXHXHXHXHXHXHXHXHX",
"HXHXHXHXHXHXHXHXHXHXHXHXHXHXHXHXHXHXHXHXHXHXHXHXHXHXHXHXHXm.                >XHXHXHXHXHXHXHXHXHXHXHXHXHXHXHXHXHXHXHXHXHXHXHXHXHX",
"HXHXHXHXHXHXHXHXHXHXHXHXHXHXHXHXHXHXHXHXHXHXHXHXHXHXHXHXHX..              0 GXGXHXHXHXHXHXHXHXHXHXHXHXHXHXHXHXHXHXHXHXHXHXHXHXHX",
"HXHXHXHXHXHXHXHXHXHXHXHXHXHXHXHXHXHXHXHXHXHXHXHXHXHXHXHXpX@               ) HXHXHXHXHXHXHXHXHXHXHXHXHXHXHXHXHXHXHXHXHXHXHXHXHXHX",
"HXHXHXHXHXHXHXHXHXHXHXHXHXHXHXHXHXHXHXHXHXHXHXHXHXHXHXHX7.                p.HXHXHXHXHXHXHXHXHXHXHXHXHXHXHXHXHXHXHXHXHXHXHXHXHXHX",
"HXHXHXHXHXHXHXHXHXHXHXHXHXHXHXHXHXHXHXHXHXHXHXHXHXHXHXbX2                 =XHXHXHXHXHXHXHXHXHXHXHXHXHXHXHXHXHXHXHXHXHXHXHXHXHXHX",
"HXHXHXHXHXHXHXHXHXHXHXHXHXHXHXHXHXHXHXHXHXHXHXHXHXHXHXk.                C GXHXHXHXHXHXHXHXHXHXHXHXHXHXHXHXHXHXHXHXHXHXHXHXHXHXHX",
"HXHXHXHXHXHXHXHXHXHXHXHXHXHXHXHXHXHXHXHXHXHXHXHXHXHXeX0                 H.HXHXHXHXHXHXHXHXHXHXHXHXHXHXHXHXHXHXHXHXHXHXHXHXHXHXHX",
"HXHXHXHXHXHXHXHXHXHXHXHXHXHXHXHXHXHXHXHXHXHXHXHXHXCXC                 w DXHXHXHXHXHXHXHXHXHXHXHXHXHXHXHXHXHXHXHXHXHXHXHXHXHXHXHX",
"HXHXHXHXHXHXHXHXHXHXHXHXHXHXHXHXHXHXHXHXHXHXHXHXHX$.                  t.HXHXHXHXHXHXHXHXHXHXHXHXHXHXHXHXHXHXHXHXHXHXHXHXHXHXHXHX",
"HXHXHXHXHXHXHXHXHXHXHXHXHXHXHXHXHXHXHXHXHXHXHXHXN.                  w cXHXHXHXHXHXHXHXHXHXHXHXHXHXHXHXHXHXHXHXHXHXHXHXHXHXHXHXHX",
"HXHXHXHXHXHXHXHXHXHXHXHXHXHXHXHXHXHXHXHXHXHXHXa.o                   Y.HXHXHXHXHXHXHXHXHXHXHXHXHXHXHXHXHXHXHXHXHXHXHXHXHXHXHXHXHX",
"HXHXHXHXHXHXHXHXHXHXHXHXHXHXHXHXHXHXHXHXHXBX..                    ) HXHXHXHXHXHXHXHXHXHXHXHXHXHXHXHXHXHXHXHXHXHXHXHXHXHXHXHXHXHX",
"HXHXHXHXHXHXHXHXHXHXHXHXHXHXHXHXHXHXHXHXqXB                     2 pXHXHXHXHXHXHXHXHXHXHXHXHXHXHXHXHXHXHXHXHXHXHXHXHXHXHXHXHXHXHX",
"j.CXHXHXHXHXHXHXHXHXHXHXHXHXHXHXHXGXeX>.&                     o R.HXHXHXHXHXHXHXHXHXHXHXHXHXHXHXHXHXHXHXHXHXHXHXHXHXHXHXHXHXHXHX",
"o i F.BXHXHXHXHXHXHXHXHXHXHXHXGX@X$.$                         V.HXHXHXHXHXHXHXHXHXHXHXHXHXHXHXHXHXHXHXHXHXHXHXHXHXHXHXHXHXHXHXHX",
"@     & Q 9.A.XXkXkXqX=XXXv.) 2                             a.HXHXHXHXHXHXHXHXHXHXHXHXHXHXHXHXHXHXHXHXHXHXHXHXHXHXHXHXHXHXHXHXHX",
"&                                                         7.HXHXHXHXHXHXHXHXHXHXHXHXHXHXHXHXHXHXHXHXHXHXHXHXHXHXHXHXHXHXHXHXHXHX",
"&                                                     $ m.GXHXHXHXHXHXHXHXHXHXHXHXHXHXHXHXHXHXHXHXHXHXHXHXHXHXHXHXHXHXHXHXHXHXHX",
"2                                                   e oXHXHXHXHXHXHXHXHXHXDX#X@XDXHXHXHXHXHXHXHXHXHXHXHXHXHXHXHXHXHXHXHXHXHXHXHX",
"2                                                 / sXHXHXHXHXHXHXHXHXfX[ $ $ & $ T 7XHXHXHXHXHXHXHXHXHXHXHXHXHXHXHXHXHXHXHXHXHX",
"5                                           o m '.HXHXHXHXHXHXHXHXHX#X0 K @XDXBX[.[ 0 @XHXHXHXHXHXHXHXHXHXHXHXHXHXHXHXHXHXHXHXHX",
"0                                         x V.GXHXHXHXHXHXHXHXHXHXCXn o.GXHXHXHXHXHX>.y.HXHXHXHXHXHXHXHXHXHXHXHXHXHXHXHXHXHXHXHX",
"C                                   & =.oXHXHXHXHXHXHXHXHXHXHXHXHXN.w xXHXHXHXHXHXHXHXHXHXHXHXHXHXHXHXHXHXHXGXHXHXGXHXHXHXHXHXHX",
"HXeXm.' i o                 , T q.(.cXHXHXHXHXHXHXHXHXHXHXHXHXHXHXo.o.HXHXHXHXHXHXGXHXHXHXHXkX .7 7 o.cXHXHXzX$.0 : Q 7XHXHXHXHX",
"HXHXHXHXHXDX5X(.Y.(.[.XX;XqXHXHXHXHXHXHXHXHXHXHXHXHXHXHXHXHXHXHXHXn p.HXHXHXHX;Xp.p.p.p.=XHXS S (.!.C Q HXDXm D I.'.' 8 pXHXHXHX",
"HXHXHXHXHXGXGXHXGXHXHXHXHXHXHXHXHXHXHXHXHXHXHXHXHXHXHXHXHXHXHXHXHX] -.HXHXHXHX'.T T E   R.XX@ =XxXzX}.o 2XF.& xXHXGXHXx 2.HXHXHX",
"HXHXHXHXHXHXHXHXHXHXHXHXHXHXHXHXHXHXHXHXHXHXHXHXHXHXHXHXHXHXHXHXHXp.i DXHXHXHXHXHXHX=X  #Xm.  @ & & o & !.1.) HXHXHXHXt.K HXHXHX",
"HXHXHXHXHXHXHXHXHXHXHXHXHXHXHXHXHXHXHXHXHXHXHXHXHXHXHXHXHXHXHXHXHXcXy 7.HXHXHXHXHXHX#.P HXK.: NXHXHXHXDXHXp.i GXHXHXHX) [ HXHXHX",
"HXHXHXHXHXHXHXHXHXHXHXHXHXHXHXHXHXHXHXHXHXHXHXHXHXHXHXHXHXHXHXHXHXHX'.$ [ pXGXGX_.[ 5 @XHXkX2 r.CXHXQ.y xX5X$ v.GXHX'.$ R.HXHXHX",
"HXHXHXHXHXHXHXHXHXHXHXHXHXHXHXHXHXHXHXHXHXHXHXHXHXHXHXHXHXHXHXHXHXHXHX>XV   x y   K eXHXHXHXY.: y B o P.HXGXJ., w x o t.HXHXHXHX",
"HXHXHXHXHXHXHXHXHXHXHXHXHXHXHXHXHXHXHXHXHXHXHXHXHXHXHXHXHXHXHXHXHXHXHXHXHXqXI.I.tXHXHXHXHXHXHXpXP.Q.xXGXHXHXHXdXR.F.7XHXHXHXHXHX",
"HXHXHXHXHXHXHXHXHXHXHXHXHXHXHXHXHXHXHXHXHXHXHXHXHXHXHXHXHXHXHXHXHXHXHXHXHXGXHXHXHXHXHXHXHXHXHXHXGXHXHXHXHXHXHXHXGXHXHXHXHXHXHXHX",
"HXHXHXHXHXHXHXHXHXHXHXHXHXHXHXHXHXHXHXHXHXHXHXHXHXHXHXHXHXHXHXHXHXHXHXHXHXHXHXHXHXHXHXHXHXHXHXHXHXHXHXHXHXHXHXHXHXHXHXHXHXHXHXHX",
"HXHXHXHXHXHXHXHXHXHXHXHXHXHXHXHXHXHXHXc.) HXHXHXHXHXHXHX) b.HXHXHXHXHXHXHXHXHXHXHXY.C HXHXHXHXHXHXHXHXHXHXHXHXHXHXHXHXHXHXHXHXHX",
"HXHXHXHX$.u s K p.CXHXHXHXHXHXHXHXHXHXf.U HXHXHXHXHXHXHXI h.HXHXGXHXHXHXHXHXHXHXHXI.v HXHXHXHXHXHXHXHXHXHXHXHXHXHXHXHXHXHXHXHXHX",
"HXHXHXHX! / V.r.y #.HXHXHXHXHXHXHXHXHXf.U HXHXHXHXHXHXHXI h.HX0Xi <XHXHXHXHXHXHXHXI.h HXHXHXHXHXHXHXHXHXHXHXHXHXHXHXHXHXHXHXHXHX",
"HXHXHXHX! 3.HXHXoX  kXHXHXHXHXHXHXHXHXf.U HXHXHXHXHXHXHXI h.HXvXu.kXHXHXHXHXHXHXHXK.h HXHXHXHXHXHXHXHXHXHXHXHXHXHXHXHXHXHXHXHXHX",
"HXHXHXHX! 3.HXHXkX  @XHXHXHXHXHXHXHXHXf.U HXHXHXHXHXHXHXI h.HXHXHXGXHXHXHXHXGXGXHXK.h HXHXHXHXHXHXHXHXHXHXHXHXHXHXHXHXHXHXHXHXHX",
"HXHXHXHX! 3.HXHXk.& NXqX;.HXHXHXp.XXGXf.T XXo.Q j.GXHXHXT a.HXBX;.xXGXHXI./ p.DXHXK.h '.` { XXHXHXHX=X;.R 7.dXHXHXF.F.2. .zXHXHX",
"HXHXHXHX! j ! w o S.HX#Xo HXHXHXV B.HXf.0 w 2.1.; / HXHXT a.HXdX  eXHX>X0 u.y XXHXK.: K k.B e GXGXoX& ) k.C i zXHXo.$ 8.p.HXHXHX",
"HXHXHXHX! C 8.m.rXHXHX#Xo HXHXHXV B.HXf.  <XHXHX5Xo pXHXI k.HXxX  tXHXI.u kXHXHXHXK.  pXHXbX  7XHXT | HXHXGXs t.HXO.C HXHXHXHXHX",
"HXHXHXHX! 3.HXHXHXHXGX#Xo HXHXHXV N.HXj.n HXHXHXGXC j.GXI a.HXdX  eXHXCXT : 8.NXHXH.5 HXHXHX7 R.GX& i b b m 0 / HXO.#.HXHXHXHXHX",
"HXHXHXHX! 3.HXHXHXHXHX;Xo BXHXHXx F.HXh.i HXHXHXHXx b.HXI h.HXdX  tXGXHXHX(.i =.HXK.h HXHXHX0 R.DX$ t.XXXXXXXX:XHXO.2.HXHXHXHXHX",
"HXHXHXHX! 3.HXHXHXHXHXGX2 ;XHXGX& qXHXh.  [.HXHX=Xo sXHXI k.HXzX  tXGX(.>XHXm.h HXK.x HXHXHXe R.HXT Q HXHXHX>.~.HXO.2.HXHXHXHXHX",
"HXHXHXHX! 3.HXHXHXHXHXHX' 0 7.s x HXHXa.y ,  .O.o o.HXHXI h.HXdX  eXHX9.i r.s p.HXK.h HXHXHXw R.HX=X2 h r.K u pXHXO.2.HXHXHXHXHX",
"HXHXHXHXK.(.HXHXHXHXHXHXNXu. .7.pXHXHXoXA.;X7.#.F.HXHXHXS.oXHXBXt.cXHXGXF.$.Y.GXHX<Xv.HXHXHXf.<XHXHXeXr.O.N.pXHXHXR.(.HXHXHXHXHX",
"HXHXHXHXHXHXHXHXHXHXHXHXGXHXHXHXHXHXHXHXHXHXHXHXHXHXHXHXHXHXHXHXHXHXHXHXHXHXHXHXHXHXHXHXHXHXHXHXHXHXHXHXHXHXHXHXHXHXHXHXHXHXHXHX",
"JXHXHXHXHXHXHXHXHXHXHXHXHXHXHXHXHXHXHXHXHXHXHXHXHXHXHXHXHXHXHXHXHXHXHXHXHXHXHXHXHXHXHXHXHXHXHXHXHXHXHXHXHXHXHXHXHXHXHXHXHXHXHXJX",
"JXHXHXHXHXHXHXHXHXHXHXHXHXHXHXHXHXHXHXHXHXHXHXHXHXHXHXHXHXHXHXHXHXHXHXHXHXHXHXHXHXHXHXHXHXHXHXHXHXHXHXHXHXHXHXHXHXHXHXHXHXHXHXJX",
"JXJXJXHXHXHXHXHXHXHXHXHXHXHXHXHXHXHXHXHXHXHXHXHXHXHXHXHXHXHXHXHXHXHXHXHXHXHXHXHXHXHXHXHXHXHXHXHXHXHXHXHXHXHXHXHXHXHXHXHXHXJXJXJX"
};
