/* XPM */
static char * geopublisher_testing_xpm[] = {
"64 64 209 2",
"  	c None",
". 	c #D7EC9E",
"+ 	c #628A38",
"@ 	c #275904",
"# 	c #B7D182",
"$ 	c #A1BF6F",
"% 	c #225500",
"& 	c #8DAF5E",
"* 	c #D6EB9D",
"= 	c #2E5F0B",
"- 	c #618A37",
"; 	c #5F8835",
"> 	c #366612",
", 	c #C1DA8B",
"' 	c #FE1F00",
") 	c #BED788",
"! 	c #544800",
"~ 	c #AC3300",
"{ 	c #DE2600",
"] 	c #F92504",
"^ 	c #FD2101",
"/ 	c #FB2A08",
"( 	c #F83D17",
"_ 	c #F2582C",
": 	c #EC7D48",
"< 	c #E3AA6B",
"[ 	c #2A5C07",
"} 	c #993700",
"| 	c #32620E",
"1 	c #704100",
"2 	c #396814",
"3 	c #CB2B00",
"4 	c #BB2F00",
"5 	c #9A9047",
"6 	c #D7E79A",
"7 	c #D8E397",
"8 	c #E0BC79",
"9 	c #ED7441",
"0 	c #FC2504",
"a 	c #467320",
"b 	c #F32100",
"c 	c #325000",
"d 	c #88A959",
"e 	c #DAD78E",
"f 	c #F16032",
"g 	c #3D6B18",
"h 	c #F72000",
"i 	c #3C4E00",
"j 	c #D22900",
"k 	c #D52800",
"l 	c #B07E3E",
"m 	c #D8DD92",
"n 	c #724100",
"o 	c #F93410",
"p 	c #F15F31",
"q 	c #E7955B",
"r 	c #DADB91",
"s 	c #A4C272",
"t 	c #8A3B00",
"u 	c #F92000",
"v 	c #FC2706",
"w 	c #E88F56",
"x 	c #3E4E00",
"y 	c #943800",
"z 	c #D32900",
"A 	c #E59E62",
"B 	c #D7E397",
"C 	c #DEBD79",
"D 	c #EA854F",
"E 	c #FA300D",
"F 	c #F6441D",
"G 	c #C5DD8F",
"H 	c #265803",
"I 	c #5A8432",
"J 	c #DDC983",
"K 	c #769B4A",
"L 	c #BE2E00",
"M 	c #494B00",
"N 	c #82A554",
"O 	c #D9DF94",
"P 	c #CEE597",
"Q 	c #2D5E0A",
"R 	c #C42D00",
"S 	c #783F00",
"T 	c #C1B56E",
"U 	c #D8E699",
"V 	c #DEC781",
"W 	c #F25C2F",
"X 	c #F54D23",
"Y 	c #E59F63",
"Z 	c #F62000",
"` 	c #ED7744",
" .	c #D7EB9D",
"..	c #2A5200",
"+.	c #674400",
"@.	c #A53D06",
"#.	c #F34F25",
"$.	c #FC2605",
"%.	c #FD2001",
"&.	c #FC2908",
"*.	c #F7421B",
"=.	c #EE6F3D",
"-.	c #DFBD7A",
";.	c #688F3D",
">.	c #7EA150",
",.	c #8FB05F",
"'.	c #34640F",
").	c #CDE495",
"!.	c #83A655",
"~.	c #245702",
"{.	c #9DBB6B",
"].	c #D1E798",
"^.	c #87A958",
"/.	c #D3E89A",
"(.	c #C2DB8C",
"_.	c #6E9442",
":.	c #285A05",
"<.	c #9FBD6C",
"[.	c #95B665",
"}.	c #B2CD7E",
"|.	c #91B161",
"1.	c #57812E",
"2.	c #799D4C",
"3.	c #94B463",
"4.	c #AFCB7B",
"5.	c #CAE193",
"6.	c #8BAD5C",
"7.	c #356410",
"8.	c #B0CB7C",
"9.	c #D4EA9C",
"0.	c #B4CF7F",
"a.	c #5A8330",
"b.	c #C7DE90",
"c.	c #C8E091",
"d.	c #547F2B",
"e.	c #BFD889",
"f.	c #2F600B",
"g.	c #44701D",
"h.	c #A8C575",
"i.	c #4E7926",
"j.	c #ABC778",
"k.	c #406D19",
"l.	c #42701C",
"m.	c #648B39",
"n.	c #7FA251",
"o.	c #487421",
"p.	c #6A903F",
"q.	c #CCE395",
"r.	c #5D8633",
"s.	c #2B5D08",
"t.	c #7B9F4D",
"u.	c #2F610C",
"v.	c #CCE294",
"w.	c #B9D283",
"x.	c #4A7723",
"y.	c #4B7724",
"z.	c #9AB969",
"A.	c #30610C",
"B.	c #5E8735",
"C.	c #6B9240",
"D.	c #56812D",
"E.	c #ACC879",
"F.	c #BBD586",
"G.	c #729846",
"H.	c #719745",
"I.	c #678F3C",
"J.	c #4F7B28",
"K.	c #99B867",
"L.	c #D0E798",
"M.	c #A5C373",
"N.	c #7CA14F",
"O.	c #A0BF6E",
"P.	c #B9D384",
"Q.	c #477420",
"R.	c #9AB868",
"S.	c #98B867",
"T.	c #C3DB8D",
"U.	c #C7DF90",
"V.	c #8AAC5B",
"W.	c #8CAD5C",
"X.	c #386813",
"Y.	c #3B6916",
"Z.	c #84A856",
"`.	c #517D2A",
" +	c #517C29",
".+	c #86A857",
"++	c #406F1B",
"@+	c #58822F",
"#+	c #C1D98B",
"$+	c #B9D485",
"%+	c #749947",
"&+	c #CEE496",
"*+	c #80A452",
"=+	c #6C9240",
"-+	c #5C8633",
";+	c #5F8936",
">+	c #557F2C",
",+	c #3E6C18",
"'+	c #95B464",
")+	c #8FB15F",
"!+	c #2A5B07",
"~+	c #789D4B",
"{+	c #C3DB8C",
"]+	c #618937",
"^+	c #648D3A",
"/+	c #97B766",
"(+	c #416F1B",
"_+	c #B8D383",
":+	c #A3C071",
"      . . . . . . . . . . . . . . . . . . . . . . . . . + @ @ @ @ @ @ @ @ # . . . . . . . . . . . . . . . . . . . . . . .       ",
"  . . . . . . . . . . . . . . . . . . . . . . . . . . . $ % % % % % % % % & . . . . . . . . . . . . . . . . . . . . . . . . .   ",
"  . . . . . . . . . . . . . . . . . . . . . . . . . . . * = % % % % % % % - . . . . . . . . . . . . . . . . . . . . . . . . .   ",
". . . . . . . . . . . . . . . . . . . . . . . . . . . . . ; % % % % % % % > . . . . . . . . . . . . . . . . . . . . . . . . . . ",
". . . . . . . . . . . . . . . . . . . . . . . . . . . . . & % % % % % % % % , . . . . . . . . . . . . . . . . . . . . . . . . . ",
"' ' ' ' ' ' ' ' ' ' ' ' ' ' ' . . ' ' ' ' ' ' ' ' ' ' ' ' ) % % % % % ! ~ { ] ^ / ( _ : < . . . ' ' ' ' ' ' ' ' ' ' ' ' ' ' ' ' ",
"' ' ' ' ' ' ' ' ' ' ' ' ' ' ' . . ' ' ' ' ' ' ' ' ' ' ' ' . [ % % % } ' ' ' ' ' ' ' ' ' ' . . . ' ' ' ' ' ' ' ' ' ' ' ' ' ' ' ' ",
"' ' ' ' ' ' ' ' ' ' ' ' ' ' ' . . ' ' ' ' ' ' ' ' ' ' ' ' . | % % 1 ' ' ' ' ' ' ' ' ' ' ' . . . ' ' ' ' ' ' ' ' ' ' ' ' ' ' ' ' ",
". . . . . ' ' ' ' . . . . . . . . ' ' ' ' . . . . . . . . . 2 % % 3 ' ' ' 4 5 6 7 8 9 0 ' . . . . . . . . . ' ' ' ' . . . . . . ",
". . . . . ' ' ' ' . . . . . . . . ' ' ' ' . . . . . . . . . a % % b ' ' ' c d . . . . e f . . . . . . . . . ' ' ' ' . . . . . . ",
". . . . . ' ' ' ' . . . . . . . . ' ' ' ' . . . . . . . . . g % % h ' ' ' i d . . . . . . . . . . . . . . . ' ' ' ' . . . . . . ",
". . . . . ' ' ' ' . . . . . . . . ' ' ' ' ' ' ' ' ' ' ' . * @ % % j ' ' ' k l m . . . . . . . . . . . . . . ' ' ' ' . . . . . . ",
". . . . . ' ' ' ' . . . . . . . . ' ' ' ' ' ' ' ' ' ' ' . , % % % n ' ' ' ' ' ' o p q r . . . . . . . . . . ' ' ' ' . . . . . . ",
". . . . . ' ' ' ' . . . . . . . . ' ' ' ' ' ' ' ' ' ' ' . s % % % % t u ' ' ' ' ' ' ' v w . . . . . . . . . ' ' ' ' . . . . . . ",
". . . . . ' ' ' ' . . . . . . . . ' ' ' ' . . . . . . . . & % % % % % x y z ^ ' ' ' ' ' ' A . . . . . . . . ' ' ' ' . . . . . . ",
". . . . . ' ' ' ' . . . . . . . . ' ' ' ' . . . . . . . . + % % % % % % % | B C D E ' ' ' F . . . . . . . . ' ' ' ' . . . . . . ",
". . . . . ' ' ' ' . . . . . . . . ' ' ' ' . . . . . . . G H % % % % % % % I . . . J ' ' ' 0 . . . . . . . . ' ' ' ' . . . . . . ",
". . . . . ' ' ' ' . . . . . . . . ' ' ' ' . . . . . . . K % % % % L M % % N . . . O ' ' ' / . . . . . . . . ' ' ' ' . . . . . . ",
". . . . . ' ' ' ' . . . . . . . . ' ' ' ' . . . . . . P Q % % % % ' ' R S T U 6 V W ' ' ' X . . . . . . . . ' ' ' ' . . . . . . ",
". . . . . ' ' ' ' . . . . . . . . ' ' ' ' ' ' ' ' ' ' ' ' % % % % ' ' ' ' ' ' ' ' ' ' ' ' Y . . . . . . . . ' ' ' ' . . . . . . ",
". . . . . ' ' ' ' . . . . . . . . ' ' ' ' ' ' ' ' ' ' ' ' % % % % Z ' ' ' ' ' ' ' ' ' ' `  .. . . . . . . . ' ' ' ' . . . . . . ",
". . . . . ' ' ' ' . . . . . . . . ' ' ' ' ' ' ' ' ' ' ' ' % % % % ..+.@.#.o $.%.&.*.=.-.. . . . . . . . . . ' ' ' ' . . . . . . ",
". . . . . . . . . . . . . . . . . . . . . . . . . ;.% % % % % % % % % >.. . . . . . . . . . . . . . . . . . . . . . . . . . . . ",
". . . . . . . . . . . . . . . . . . . . . . . . ,.% % % % % % % % % '.).. . . . . . . . . . . . . . . . . . . . . . . . . . . . ",
". . . . . . . . . . . . . . . . . . . . . . . !.~.% % % % % % % % % {.. . . . . . . . . . . . . . . . . . . . . . . . . . . . . ",
". . . . . . . . . . . . . . . . . . . . . ].+ % % % % % % % % % % I . . . . . . . . . . . . . . . . . . . . . . . . . . . . . . ",
". . . . . . . . . . . . . . . . . . . . , a % % % % % % % % % % Q G . . . . . . . . . . . . . . . . . . . . . . . . . . . . . . ",
"^./.. . . . . . . . . . . . . . . * (._.:.% % % % % % % % % % ~.<.. . . . . . . . . . . . . . . . . . . . . . . . . . . . . . . ",
"~.2 [.].. . . . . . . . . . . * }.;.@ % % % % % % % % % % % % |.. . . . . . . . . . . . . . . . . . . . . . . . . . . . . . . . ",
"H % % :.1.2.3.4.5.5., # 4.6.I Q % % % % % % % % % % % % % % !.. . . . . . . . . . . . . . . . . . . . . . . . . . . . . . . . . ",
":.% % % % % % % % % % % % % % % % % % % % % % % % % % % % K . . . . . . . . . . . . . . . . . . . . . . . . . . . . . . . . . . ",
":.% % % % % % % % % % % % % % % % % % % % % % % % % % @ & * . . . . . . . . . . . . . . . . . . . . . . . . . . . . . . . . . . ",
"Q % % % % % % % % % % % % % % % % % % % % % % % % % 7.8.. . . . . . . . . 9.0.}.9.. . . . . . . . . . . . . . . . . . . . . . . ",
"Q % % % % % % % % % % % % % % % % % % % % % % % % a.b.. . . . . . . . c.; @ @ :.@ d.e.. . . . . . . . . . . . . . . . . . . . . ",
"f.% % % % % % % % % % % % % % % % % % % % % ~.g.h.. . . . . . . . . 0.| i.}.9.].j.; | }.. . . . . . . . . . . . . . . . . . . . ",
"| % % % % % % % % % % % % % % % % % % % % k.|.* . . . . . . . . . /.l.m.* . . . . . _.n.. . . . . . . . . . . . . . . . . . . . ",
"o.% % % % % % % % % % % % % % % % % :.p.8.. . . . . . . . . . . . ,.'.q.. . . . . . . . . . . . . . . . . . * . . * . . . . . . ",
". (.& r.2 ~.% % % % % % % % s.d.t.s ).. . . . . . . . . . . . . . m.m.. . . . . . * . . . . 5.- u.u.m.).. . v.;.| [ 1.e.. . . . ",
". . . . . 9.) s {.s j.4.w., . . . . . . . . . . . . . . . . . . . l.N . . . . w.N N N N # . x.x.s $ o.1.. 9.g.y.z.h.r.A.G . . . ",
". . . . . * * . * . . . . . . . . . . . . . . . . . . . . . . . . B.C.. . . . h.d.d.D.% <.4.H # q.v.E.~.F.[.:.q.. * . k.G.. . . ",
". . . . . . . . . . . . . . . . . . . . . . . . . . . . . . . . . N 2 9.. . . . . . # % 0.& % H :.:.~.:.$ H.I . . . . >.i.. . . ",
". . . . . . . . . . . . . . . . . . . . . . . . . . . . . . . . . ).> K . . . . . . I.J.. K.[ L.. . . 9.. N 2 * . . . I ; . . . ",
". . . . . . . . . . . . . . . . . . . . . . . . . . . . . . . . . . h.@ ; G * * M.; f.}.. 5.Q N./.. O.> q.) @ 6.* . h.@ <.. . . ",
". . . . . . . . . . . . . . . . . . . . . . . . . . . . . . . . . . . P.Q.% k.> % i.(.. . . {.[ > a ~.R.. * S.s.'.k.~.>.. . . . ",
". . . . . . . . . . . . . . . . . . . . . . . . . . . . . . . . . . . . . , z.z.T.. . . . . . G R.O.q.* . . . U.<.[.e.. . . . . ",
". . . . . . . . . . . . . . . . . . . . . . . . . . . . . . . . . . . . . * . . . . . . . . . . * . . . . . . . * . . . . . . . ",
". . . . . . . . . . . . . . . . . . . . . . . . . . . . . . . . . . . . . . . . . . . . . . . . . . . . . . . . . . . . . . . . ",
". . . . . . . . . . . . . . . . . . . V.I . . . . . . . I W.. . . . . . . . . . . {.o.. . . . . . . . . . . . . . . . . . . . . ",
". . . . ;.X.Y.i.N /.. . . . . . . . . Z.`.. . . . . . .  +.+. . * . . . . . . . . z.++. . . . . . . . . . . . . . . . . . . . . ",
". . . . @+a.|.N.> I.. . . . . . . . . Z.`.. . . . . . .  +.+. #+2 $+. . . . . . . z.g . . . . . . . . . . . . . . . . . . . . . ",
". . . . @+%+. . 8.% 5.. . . . . . . . Z.`.. . . . . . .  +.+. &+*+5.. . . . . . . K.g . . . . . . . . . . . . . . . . . . . . . ",
". . . . @+%+. . 5.% }.. . . . . . . . Z.`.. . . . . . .  +.+. . . * . . . . * * . K.g . . . . . . . . . . . . . . . . . . . . . ",
". . . . @+%+. . d :.L., =+. . . N 4.* Z.d.4.m.1.^.* . . d.!.. ].=+q.* . z.a.N 9.. K.g h.-+;+4.. . . # =+>+K U.. . [.[.G.- v.. . ",
". . . . @+,+@+'.~.'+. 0.~.. . . Q.)+. Z.| '.G.H.!+a.. . d.!.. U.% (.. P.| *+> 4.. K.[ i.d a 7.* * 8.:.I d o.2 v.. m.@ ~+N . . . ",
". . . . @+o.~+& {+. . 0.~.. . . Q.)+. Z.% $+. . ) ~.G .  +d . q.% T.. z.X.5.. . . K.% G . P % e.. d.]+. . * Y.>.. ^+o.. . . . . ",
". . . . @+%+. . . . * 0.~.. . . Q.,.. ^.l.. . . * o.^.*  +!.. U.% (.. /.d.[ ~+L.. /+f.. . . u.<.* :.2 (+(+g.| a.. ^+I.. . . . . ",
". . . . @+%+. . . . . w.~.].. . k.[.. .+2 . . . . k.W..  +.+. U.% T.* . . s 2 p.. K.g . . . | <.9.@ >.4.4.4.4._+. ^+G.. . . . . ",
". . . . @+%+. . . . . * Q w.. * :., . .+% j.. . # ~.b..  +d . v.% T.* s P.. & g . K.k.. . . 7.<.. d.1.. . . _.:+. ^+G.. . . . . ",
". . . . @+%+. . . . . . r.| K Y.k.. . !.> s.- ^+~.m.. .  +.+. U.% (.. 2.2 N.Y.N . K.g . . . '.<.. # Q g N.i.X.G . ^+G.. . . . . ",
". . . . K.s . . . . . . L.*+- K G . . 8.3.w.K I.[.. . . '+8.. ].>.).. * [.;.{.* . $+6.. . . Z.$+. . (.N.^+,.G . . <.s . . . . . ",
". . . . . . . . . . . . * . . . . . . . . . . . . . . . . . . . . . . . . . . . . . . . . . . . . . . . . . . . . . . . . . . . ",
"  . . . . . . . . . . . . . . . . . . . . . . . . . . . . . . . . . . . . . . . . . . . . . . . . . . . . . . . . . . . . . .   ",
"  . . . . . . . . . . . . . . . . . . . . . . . . . . . . . . . . . . . . . . . . . . . . . . . . . . . . . . . . . . . . . .   ",
"      . . . . . . . . . . . . . . . . . . . . . . . . . . . . . . . . . . . . . . . . . . . . . . . . . . . . . . . . . .       "};
