<?xml version="1.0" encoding="UTF-8" standalone="no"?>
<!-- Created with Inkscape (http://www.inkscape.org/) -->
<svg
   xmlns:dc="http://purl.org/dc/elements/1.1/"
   xmlns:cc="http://web.resource.org/cc/"
   xmlns:rdf="http://www.w3.org/1999/02/22-rdf-syntax-ns#"
   xmlns:svg="http://www.w3.org/2000/svg"
   xmlns="http://www.w3.org/2000/svg"
   xmlns:sodipodi="http://sodipodi.sourceforge.net/DTD/sodipodi-0.dtd"
   xmlns:inkscape="http://www.inkscape.org/namespaces/inkscape"
   width="744.09448819"
   height="1052.3622047"
   id="svg2616"
   sodipodi:version="0.32"
   inkscape:version="0.44.1"
   sodipodi:docbase="/home/beppe/Desktop/Grafie/Geolitologica/Veneto/Geognostica e geofisica"
   sodipodi:docname="prospezione_sismica.svg">
  <defs
     id="defs2618" />
  <sodipodi:namedview
     id="base"
     pagecolor="#ffffff"
     bordercolor="#666666"
     borderopacity="1.0"
     inkscape:pageopacity="0.0"
     inkscape:pageshadow="2"
     inkscape:zoom="0.7"
     inkscape:cx="375"
     inkscape:cy="514.94924"
     inkscape:document-units="px"
     inkscape:current-layer="layer1"
     inkscape:window-width="1280"
     inkscape:window-height="1000"
     inkscape:window-x="0"
     inkscape:window-y="0" />
  <metadata
     id="metadata2621">
    <rdf:RDF>
      <cc:Work
         rdf:about="">
        <dc:format>image/svg+xml</dc:format>
        <dc:type
           rdf:resource="http://purl.org/dc/dcmitype/StillImage" />
      </cc:Work>
    </rdf:RDF>
  </metadata>
  <g
     inkscape:label="Livello 1"
     inkscape:groupmode="layer"
     id="layer1">
    <g
       id="g2760">
      <polygon
         transform="matrix(1.249992,0,0,-1.249992,264.0682,922.2722)"
         points="77.906,301.09 99.586,301.09 99.586,322.77 77.906,322.77 77.906,301.09 "
         style="font-style:normal;font-variant:normal;font-weight:normal;font-stretch:normal;letter-spacing:normal;word-spacing:normal;text-anchor:start;fill:white;fill-opacity:1;stroke:black;stroke-width:1;stroke-linecap:butt;stroke-linejoin:miter;stroke-miterlimit:10.43299961;stroke-dasharray:none;stroke-dashoffset:0;stroke-opacity:1"
         id="polygon200" />
      <path
         d="M 378.11998,529.1372 L 378.12623,529.1247 L 378.13123,529.11221 L 378.13623,529.09971 L 378.14123,529.08721 L 378.14623,529.08721 L 378.15123,529.0747 L 378.15498,529.0622 L 378.15873,529.0497 L 378.16248,529.0497 L 378.16623,529.0372 L 378.16998,529.0247 L 378.17248,529.0247 L 378.17623,529.0122 L 378.17873,529.0122 L 378.18123,528.99971 L 378.18373,528.99971 L 378.18498,528.98721 L 378.18748,528.98721 L 378.18873,528.97471 L 378.18998,528.97471 L 378.19123,528.96221 L 378.19248,528.96221 L 378.19373,528.9497 L 378.19498,528.9497 L 378.19623,528.9372 L 378.19623,528.9372 L 378.19748,528.9372 L 378.19748,528.9247 L 378.19873,528.9247 L 378.19873,528.9122 C 378.19873,528.66221 376.72874,527.98721 375.3025,527.98721 C 373.56501,527.98721 372.00252,528.8997 372.00252,531.04969 C 372.00252,532.29968 372.51501,532.89968 373.30626,533.37468 C 374.83875,534.31217 376.36749,534.43717 376.36749,535.77466 C 376.36749,536.71216 375.86,537.16215 375.02,537.16215 C 373.72625,537.16215 372.61751,536.49966 372.53002,536.49966 C 372.46627,536.49966 372.39252,536.56215 372.36377,536.64966 L 372.01627,537.63715 C 371.98752,537.72465 371.94377,537.83714 371.94377,537.87465 C 371.94377,538.12465 373.55001,538.77464 375.07875,538.77464 C 376.96749,538.77464 378.31498,537.52465 378.31498,535.61216 C 378.31498,534.47467 377.79248,533.67467 377.02624,533.11218 C 375.70749,532.13718 373.95001,531.92468 373.95001,530.78719 C 373.95001,529.8872 374.6725,529.6122 375.36125,529.6122 C 376.43999,529.6122 377.37373,530.2747 377.46123,530.2747 C 377.52498,530.2747 377.58248,530.2122 377.62748,530.1247 L 378.11998,529.1372 z "
         style="font-style:normal;font-variant:normal;font-weight:normal;font-stretch:normal;letter-spacing:normal;word-spacing:normal;text-anchor:start;fill:black;fill-opacity:1;stroke:black;stroke-width:0;stroke-linecap:butt;stroke-linejoin:miter;stroke-miterlimit:10.43299961;stroke-dasharray:none;stroke-dashoffset:0;stroke-opacity:1"
         id="path198" />
    </g>
  </g>
</svg>
