<?xml version="1.0" encoding="UTF-8" standalone="no"?>
<!-- Created with Inkscape (http://www.inkscape.org/) -->
<svg
   xmlns:dc="http://purl.org/dc/elements/1.1/"
   xmlns:cc="http://web.resource.org/cc/"
   xmlns:rdf="http://www.w3.org/1999/02/22-rdf-syntax-ns#"
   xmlns:svg="http://www.w3.org/2000/svg"
   xmlns="http://www.w3.org/2000/svg"
   xmlns:sodipodi="http://sodipodi.sourceforge.net/DTD/sodipodi-0.dtd"
   xmlns:inkscape="http://www.inkscape.org/namespaces/inkscape"
   width="744.09448819"
   height="1052.3622047"
   id="svg3460"
   sodipodi:version="0.32"
   inkscape:version="0.44.1"
   sodipodi:docbase="/home/beppe/Desktop/Grafie/Geomorfologica/Veneto/Fluviali, fluvioglaciali, dilavamento"
   sodipodi:docname="campi_solcati.svg">
  <defs
     id="defs3462" />
  <sodipodi:namedview
     id="base"
     pagecolor="#ffffff"
     bordercolor="#666666"
     borderopacity="1.0"
     inkscape:pageopacity="0.0"
     inkscape:pageshadow="2"
     inkscape:zoom="0.35"
     inkscape:cx="375"
     inkscape:cy="520"
     inkscape:document-units="px"
     inkscape:current-layer="layer1"
     inkscape:window-width="959"
     inkscape:window-height="589"
     inkscape:window-x="312"
     inkscape:window-y="0" />
  <metadata
     id="metadata3465">
    <rdf:RDF>
      <cc:Work
         rdf:about="">
        <dc:format>image/svg+xml</dc:format>
        <dc:type
           rdf:resource="http://purl.org/dc/dcmitype/StillImage" />
      </cc:Work>
    </rdf:RDF>
  </metadata>
  <g
     inkscape:label="Livello 1"
     inkscape:groupmode="layer"
     id="layer1">
    <g
       id="g3474">
      <path
         d="M 344.16457,521.38131 L 345.97081,518.73132 C 345.97081,518.73132 346.08331,517.83133 346.63456,517.83133 C 347.18705,517.83133 347.8558,517.83133 347.9633,518.39383 C 348.0758,518.94382 347.9633,519.05632 348.0758,519.83132 C 348.1833,520.60631 348.40705,522.4938 349.07079,522.0438 C 349.73579,521.6063 350.39953,521.26881 350.84328,520.49382 C 351.28328,519.71882 351.39578,519.49382 351.72703,518.94382 C 352.05952,518.39383 351.72703,517.50634 352.50452,518.16883 C 353.27576,518.84382 353.49951,519.16882 353.71951,519.94382 C 353.93951,520.71881 354.49576,522.1563 354.49576,522.1563 L 355.04825,520.71881 L 356.4145,518.16883 C 356.4145,518.16883 357.18699,517.28134 357.74324,518.28133 C 358.29448,519.28132 358.40698,519.83132 358.40698,520.60631 C 358.40698,521.38131 359.29073,522.3813 360.28697,521.26881 C 361.28321,520.15632 361.83946,519.28132 361.83946,519.28132 L 362.39196,518.39383"
         style="font-style:normal;font-variant:normal;font-weight:normal;font-stretch:normal;letter-spacing:normal;word-spacing:normal;text-anchor:start;fill:none;fill-opacity:1;stroke:black;stroke-width:1.49999034;stroke-linecap:round;stroke-linejoin:round;stroke-miterlimit:10.43299961;stroke-dasharray:none;stroke-dashoffset:0;stroke-opacity:1"
         id="path142" />
      <path
         d="M 374.55938,520.33131 L 376.36562,517.68133 C 376.36562,517.68133 376.47812,516.79384 377.03061,516.79384 C 377.58686,516.79384 378.25061,516.79384 378.3581,517.34383 C 378.4706,517.90633 378.3581,518.01883 378.4706,518.79383 C 378.5831,519.56882 378.8031,521.44381 379.46685,521.00631 C 380.13059,520.55631 380.79434,520.23131 381.23933,519.45632 C 381.67808,518.68133 381.79058,518.45633 382.12308,517.90633 C 382.45558,517.34383 382.12308,516.46884 382.89932,517.13134 C 383.67057,517.79383 383.89557,518.11883 384.11557,518.90633 C 384.33932,519.66882 384.89182,521.11881 384.89182,521.11881 L 385.44306,519.66882 L 386.81055,517.13134 C 386.81055,517.13134 387.5868,516.24384 388.13804,517.24383 C 388.69054,518.24383 388.80304,518.79383 388.80304,519.56882 C 388.80304,520.33131 389.68679,521.34381 390.68303,520.23131 C 391.67802,519.11882 392.23551,518.24383 392.23551,518.24383 L 392.78676,517.34383"
         style="font-style:normal;font-variant:normal;font-weight:normal;font-stretch:normal;letter-spacing:normal;word-spacing:normal;text-anchor:start;fill:none;fill-opacity:1;stroke:black;stroke-width:1.49999034;stroke-linecap:round;stroke-linejoin:round;stroke-miterlimit:10.43299961;stroke-dasharray:none;stroke-dashoffset:0;stroke-opacity:1"
         id="path144" />
      <path
         d="M 394.40801,534.05623 L 396.20799,531.40625 C 396.20799,531.40625 396.32049,530.51875 396.87048,530.51875 C 397.43298,530.51875 398.09548,530.51875 398.20798,531.06875 C 398.32048,531.61874 398.20798,531.73124 398.32048,532.50624 C 398.42048,533.28123 398.64547,535.15622 399.30797,534.71872 C 399.97047,534.28123 400.63296,533.94373 401.08296,533.16873 C 401.52045,532.39374 401.63295,532.16874 401.97045,531.61874 C 402.29545,531.06875 401.97045,530.18125 402.74545,530.84375 C 403.52044,531.50625 403.73294,531.84374 403.95794,532.61874 C 404.18294,533.39373 404.73293,534.83122 404.73293,534.83122 L 405.28293,533.39373 L 406.65792,530.84375 C 406.65792,530.84375 407.43292,529.95625 407.98291,530.95625 C 408.53291,531.95624 408.64541,532.50624 408.64541,533.28123 C 408.64541,534.05623 409.5329,535.05622 410.5204,533.94373 C 411.52039,532.83123 412.08289,531.95624 412.08289,531.95624 L 412.63288,531.06875"
         style="font-style:normal;font-variant:normal;font-weight:normal;font-stretch:normal;letter-spacing:normal;word-spacing:normal;text-anchor:start;fill:none;fill-opacity:1;stroke:black;stroke-width:1.49999034;stroke-linecap:round;stroke-linejoin:round;stroke-miterlimit:10.43299961;stroke-dasharray:none;stroke-dashoffset:0;stroke-opacity:1"
         id="path146" />
      <path
         d="M 358.03073,534.51873 L 359.83822,531.86874 C 359.83822,531.86874 359.95072,530.98124 360.50197,530.98124 C 361.05322,530.98124 361.72321,530.98124 361.83071,531.53124 C 361.94196,532.08124 361.83071,532.19374 361.94196,532.96873 C 362.04946,533.74373 362.27446,535.61872 362.9382,535.18122 C 363.60195,534.74372 364.26695,534.40623 364.71069,533.63123 C 365.15069,532.86873 365.26319,532.64374 365.59443,532.08124 C 365.92694,531.53124 365.59443,530.64375 366.37068,531.30624 C 367.14317,531.96874 367.36692,532.30624 367.58693,533.08123 C 367.80692,533.85623 368.36317,535.29372 368.36317,535.29372 L 368.91442,533.85623 L 370.28191,531.30624 C 370.28191,531.30624 371.05315,530.43125 371.61065,531.41874 C 372.16189,532.41874 372.27439,532.96873 372.27439,533.74373 C 372.27439,534.51873 373.15813,535.51872 374.15438,534.40623 C 375.15063,533.30623 375.70687,532.41874 375.70687,532.41874 L 376.25812,531.53124"
         style="font-style:normal;font-variant:normal;font-weight:normal;font-stretch:normal;letter-spacing:normal;word-spacing:normal;text-anchor:start;fill:none;fill-opacity:1;stroke:black;stroke-width:1.49999034;stroke-linecap:round;stroke-linejoin:round;stroke-miterlimit:10.43299961;stroke-dasharray:none;stroke-dashoffset:0;stroke-opacity:1"
         id="path148" />
      <path
         d="M 376.47812,546.06865 L 378.28936,543.41867 C 378.28936,543.41867 378.39685,542.53117 378.95435,542.53117 C 379.5056,542.53117 380.16934,542.53117 380.28184,543.08117 C 380.38934,543.63117 380.28184,543.74367 380.38934,544.51866 C 380.50184,545.29366 380.72684,547.18114 381.39059,546.73114 C 382.04933,546.29365 382.71808,545.95615 383.15808,545.18116 C 383.60182,544.40616 383.71432,544.19366 384.04682,543.63117 C 384.37931,543.08117 384.04682,542.19367 384.81807,542.86867 C 385.59431,543.53117 385.81431,543.85616 386.03931,544.63116 C 386.25805,545.40616 386.81055,546.84364 386.81055,546.84364 L 387.36679,545.40616 L 388.73429,542.86867 C 388.73429,542.86867 389.50553,541.96867 390.05803,542.96867 C 390.61427,543.96866 390.72677,544.51866 390.72677,545.29366 C 390.72677,546.06865 391.61052,547.06864 392.60676,545.95615 C 393.60801,544.85616 394.158,543.96866 394.158,543.96866 L 394.708,543.08117"
         style="font-style:normal;font-variant:normal;font-weight:normal;font-stretch:normal;letter-spacing:normal;word-spacing:normal;text-anchor:start;fill:none;fill-opacity:1;stroke:black;stroke-width:1.49999034;stroke-linecap:round;stroke-linejoin:round;stroke-miterlimit:10.43299961;stroke-dasharray:none;stroke-dashoffset:0;stroke-opacity:1"
         id="path150" />
      <path
         d="M 337.36712,547.18114 L 339.17336,544.51866 C 339.17336,544.51866 339.28585,543.63117 339.83835,543.63117 C 340.3896,543.63117 341.05334,543.63117 341.16584,544.19366 C 341.27834,544.74366 341.16584,544.85616 341.27834,545.61866 C 341.39084,546.40615 341.61084,548.28114 342.27459,547.84364 C 342.93833,547.39364 343.60208,547.06864 344.04707,546.29365 C 344.48582,545.51866 344.59832,545.29366 344.93082,544.74366 C 345.26332,544.19366 344.93082,543.30617 345.70706,543.96866 C 346.47831,544.63116 346.70331,544.95616 346.92331,545.74366 C 347.1433,546.51865 347.69955,547.95614 347.69955,547.95614 L 348.2508,546.51865 L 349.61829,543.96866 C 349.61829,543.96866 350.38953,543.08117 350.94578,544.08116 C 351.49828,545.06866 351.61078,545.61866 351.61078,546.40615 C 351.61078,547.18114 352.49452,548.18114 353.49076,547.06864 C 354.48576,545.95615 355.04325,545.06866 355.04325,545.06866 L 355.5945,544.19366"
         style="font-style:normal;font-variant:normal;font-weight:normal;font-stretch:normal;letter-spacing:normal;word-spacing:normal;text-anchor:start;fill:none;fill-opacity:1;stroke:black;stroke-width:1.49999034;stroke-linecap:round;stroke-linejoin:round;stroke-miterlimit:10.43299961;stroke-dasharray:none;stroke-dashoffset:0;stroke-opacity:1"
         id="path152" />
    </g>
  </g>
</svg>
