<?xml version="1.0" encoding="UTF-8" standalone="no"?>
<!-- Created with Inkscape (http://www.inkscape.org/) -->
<svg
   xmlns:dc="http://purl.org/dc/elements/1.1/"
   xmlns:cc="http://web.resource.org/cc/"
   xmlns:rdf="http://www.w3.org/1999/02/22-rdf-syntax-ns#"
   xmlns:svg="http://www.w3.org/2000/svg"
   xmlns="http://www.w3.org/2000/svg"
   xmlns:sodipodi="http://sodipodi.sourceforge.net/DTD/sodipodi-0.dtd"
   xmlns:inkscape="http://www.inkscape.org/namespaces/inkscape"
   width="744.09448819"
   height="1052.3622047"
   id="svg5338"
   sodipodi:version="0.32"
   inkscape:version="0.44.1"
   sodipodi:docbase="/home/beppe/Desktop/Grafie/Geomorfologica/Veneto/Artificiali"
   sodipodi:docname="opera_captazione.svg">
  <defs
     id="defs5340" />
  <sodipodi:namedview
     id="base"
     pagecolor="#ffffff"
     bordercolor="#666666"
     borderopacity="1.0"
     inkscape:pageopacity="0.0"
     inkscape:pageshadow="2"
     inkscape:zoom="0.35"
     inkscape:cx="375"
     inkscape:cy="520"
     inkscape:document-units="px"
     inkscape:current-layer="layer1"
     inkscape:window-width="959"
     inkscape:window-height="589"
     inkscape:window-x="312"
     inkscape:window-y="0" />
  <metadata
     id="metadata5343">
    <rdf:RDF>
      <cc:Work
         rdf:about="">
        <dc:format>image/svg+xml</dc:format>
        <dc:type
           rdf:resource="http://purl.org/dc/dcmitype/StillImage" />
      </cc:Work>
    </rdf:RDF>
  </metadata>
  <g
     inkscape:label="Livello 1"
     inkscape:groupmode="layer"
     id="layer1">
    <path
       id="path290"
       style="font-style:normal;font-variant:normal;font-weight:normal;font-stretch:normal;letter-spacing:normal;word-spacing:normal;text-anchor:start;fill:none;fill-opacity:1;stroke:black;stroke-width:1.18748879;stroke-linecap:round;stroke-linejoin:miter;stroke-miterlimit:10.43299961;stroke-dasharray:none;stroke-dashoffset:0;stroke-opacity:1"
       d="M 382.06246,518.03415 L 382.53745,518.28415 L 382.99995,518.55914 L 383.46245,518.83414 L 383.91244,519.13414 L 384.34994,519.44664 L 384.77494,519.77164 L 385.18744,520.10913 L 385.58743,520.45913 L 385.97493,520.83413 L 386.34993,521.20912 L 386.71243,521.59662 L 387.06243,522.00912 L 387.39992,522.42162 L 387.72492,522.84661 L 388.02492,523.28411 L 388.32492,523.73411 L 388.59991,524.19661 L 388.86241,524.65911 L 389.11241,525.1466 L 389.33741,525.6341 L 389.56241,526.1341 L 389.74991,526.63409 L 389.93741,527.14659 L 390.0999,527.67159 L 390.2499,528.20908 L 390.3749,528.74658 L 390.4749,529.28408 L 390.5749,529.84657 L 390.6374,530.39657 L 390.6874,530.95906 L 390.7249,531.53406 L 390.7374,532.10906 C 390.7374,540.7965 383.68745,547.84645 375,547.84645 C 366.30006,547.84645 359.2626,540.7965 359.2626,532.10906 C 359.2626,525.6216 363.17508,520.05913 368.85004,517.64665" />
    <line
       id="line292"
       style="font-style:normal;font-variant:normal;font-weight:normal;font-stretch:normal;letter-spacing:normal;word-spacing:normal;text-anchor:start;fill:none;fill-opacity:1;stroke:black;stroke-width:1.24999201;stroke-linecap:round;stroke-linejoin:miter;stroke-miterlimit:10.43299961;stroke-dasharray:none;stroke-dashoffset:0;stroke-opacity:1"
       y2="533.54657"
       x2="375"
       y1="516.90918"
       x1="375" />
    <polygon
       id="polygon294"
       style="font-style:normal;font-variant:normal;font-weight:normal;font-stretch:normal;letter-spacing:normal;word-spacing:normal;text-anchor:start;fill:black;fill-opacity:1;fill-rule:nonzero;stroke:black;stroke-width:0;stroke-linecap:butt;stroke-linejoin:round;stroke-miterlimit:10.43299961;stroke-dasharray:none;stroke-dashoffset:0;stroke-opacity:1"
       points="297.35,423.57 294.41,428.55 300.62,428.55 297.35,423.57 "
       transform="matrix(1.249992,0,0,-1.249992,3.102382,1068.918)" />
    <polygon
       id="polygon296"
       style="font-style:normal;font-variant:normal;font-weight:normal;font-stretch:normal;letter-spacing:normal;word-spacing:normal;text-anchor:start;fill:none;fill-opacity:1;stroke:black;stroke-width:1;stroke-linecap:butt;stroke-linejoin:round;stroke-miterlimit:10.43299961;stroke-dasharray:none;stroke-dashoffset:0;stroke-opacity:1"
       points="297.35,423.57 294.41,428.55 300.62,428.55 297.35,423.57 "
       transform="matrix(1.249992,0,0,-1.249992,3.102382,1068.918)" />
  </g>
</svg>
