/* XPM */
static char *icon___AS[] = {
/* columns rows colors chars-per-pixel */
"64 64 240 2",
"   c #225500",
".  c #235601",
"X  c #245601",
"o  c #245702",
"O  c #255702",
"+  c #245802",
"@  c #255803",
"#  c #265803",
"$  c #265904",
"%  c #275904",
"&  c #285905",
"*  c #285A05",
"=  c #285A06",
"-  c #295A06",
";  c #295B06",
":  c #2A5B07",
">  c #2A5C07",
",  c #2B5C07",
"<  c #2B5D08",
"1  c #2C5D09",
"2  c #2D5E09",
"3  c #2D5E0A",
"4  c #2E5F0B",
"5  c #2F600B",
"6  c #2F600C",
"7  c #30610C",
"8  c #31610D",
"9  c #32620E",
"0  c #33630F",
"q  c #34640F",
"w  c #356410",
"e  c #356511",
"r  c #366611",
"t  c #376713",
"y  c #386813",
"u  c #396814",
"i  c #3A6914",
"p  c #3A6915",
"a  c #3B6916",
"s  c #3B6A16",
"d  c #3C6A16",
"f  c #3C6B17",
"g  c #3D6B18",
"h  c #3E6C18",
"j  c #3E6D19",
"k  c #3F6D19",
"l  c #406E1A",
"z  c #416F1B",
"x  c #42701C",
"c  c #44711E",
"v  c #44721E",
"b  c #45721F",
"n  c #467320",
"m  c #477420",
"M  c #487421",
"N  c #497521",
"B  c #4A7623",
"V  c #4A7723",
"C  c #4B7724",
"Z  c #4B7824",
"A  c #4C7825",
"S  c #4D7926",
"D  c #4E7926",
"F  c #517C29",
"G  c #517D2A",
"H  c #527D2A",
"J  c #547F2B",
"K  c #55802D",
"L  c #56812D",
"P  c #56802E",
"I  c #57812E",
"U  c #598230",
"Y  c #598330",
"T  c #5A8330",
"R  c #5A8431",
"E  c #5B8532",
"W  c #5C8633",
"Q  c #5E8734",
"!  c #5E8735",
"~  c #5F8835",
"^  c #5F8936",
"/  c #608835",
"(  c #608937",
")  c #618937",
"_  c #618A37",
"`  c #628A38",
"'  c #638B38",
"]  c #648B39",
"[  c #648C3A",
"{  c #648D3A",
"}  c #658D3B",
"|  c #678F3C",
" . c #688F3D",
".. c #68903D",
"X. c #69903E",
"o. c #69913E",
"O. c #6A903F",
"+. c #6B9240",
"@. c #6C9240",
"#. c #6D9341",
"$. c #6E9442",
"%. c #6F9543",
"&. c #709644",
"*. c #719745",
"=. c #719845",
"-. c #729846",
";. c #739947",
":. c #749947",
">. c #759B49",
",. c #769B4A",
"<. c #779C4A",
"1. c #789D4B",
"2. c #799D4C",
"3. c #7A9F4D",
"4. c #7B9F4D",
"5. c #7DA04F",
"6. c #7EA150",
"7. c #7FA251",
"8. c #81A453",
"9. c #82A554",
"0. c #83A655",
"q. c #84A756",
"w. c #85A756",
"e. c #86A857",
"r. c #87A958",
"t. c #88A959",
"y. c #88AA59",
"u. c #89AB5A",
"i. c #8AAC5B",
"p. c #8BAD5C",
"a. c #8CAD5C",
"s. c #8CAE5D",
"d. c #8EAF5E",
"f. c #8FB05F",
"g. c #8FB15F",
"h. c #90B060",
"j. c #91B161",
"k. c #91B261",
"l. c #92B262",
"z. c #92B362",
"x. c #93B363",
"c. c #94B463",
"v. c #95B564",
"b. c #95B665",
"n. c #96B666",
"m. c #97B766",
"M. c #98B867",
"N. c #99B867",
"B. c #9AB868",
"V. c #9AB969",
"C. c #9BBA6A",
"Z. c #9DBB6B",
"A. c #9EBC6C",
"S. c #9FBD6C",
"D. c #9FBD6D",
"F. c #9FBE6E",
"G. c #A1BF6F",
"H. c #A2C070",
"J. c #A3C171",
"K. c #A4C171",
"L. c #A4C272",
"P. c #A5C273",
"I. c #A5C373",
"U. c #A6C373",
"Y. c #A7C474",
"T. c #A8C575",
"R. c #A9C676",
"E. c #AAC676",
"W. c #ABC778",
"Q. c #ABC878",
"!. c #ACC878",
"~. c #ACC879",
"^. c #ADC979",
"/. c #AEC97A",
"(. c #AFCA7B",
"). c #AFCB7B",
"_. c #B0CB7C",
"`. c #B1CD7D",
"'. c #B2CD7E",
"]. c #B3CE7E",
"[. c #B4CF7F",
"{. c #B4CF80",
"}. c #B5CF80",
"|. c #B5D080",
" X c #B5D181",
".X c #B7D182",
"XX c #B8D283",
"oX c #B9D283",
"OX c #B8D383",
"+X c #B9D384",
"@X c #BAD384",
"#X c #B9D485",
"$X c #BAD485",
"%X c #BBD586",
"&X c #BCD686",
"*X c #BDD687",
"=X c #BDD788",
"-X c #BED888",
";X c #BFD889",
":X c #BFD88A",
">X c #C0D88A",
",X c #C0D98A",
"<X c #C1DA8B",
"1X c #C2DA8B",
"2X c #C2DB8C",
"3X c #C3DB8D",
"4X c #C4DC8D",
"5X c #C4DD8E",
"6X c #C5DD8E",
"7X c #C5DD8F",
"8X c #C6DE8F",
"9X c #C7DE90",
"0X c #C7DF90",
"qX c #C8E091",
"wX c #C9E092",
"eX c #CAE092",
"rX c #CAE192",
"tX c #CAE193",
"yX c #CBE293",
"uX c #CCE294",
"iX c #CCE395",
"pX c #CDE495",
"aX c #CEE496",
"sX c #CEE597",
"dX c #CFE597",
"fX c #CFE697",
"gX c #D0E698",
"hX c #D0E798",
"jX c #D1E798",
"kX c #D1E899",
"lX c #D2E89A",
"zX c #D3E89A",
"xX c #D3E99B",
"cX c #D4E99B",
"vX c #D5E99C",
"bX c #D4EA9C",
"nX c #D5EB9D",
"mX c #D6EB9D",
"MX c #D7EC9E",
"NX c None",
/* pixels */
"NXNXNXMXMXMXMXMXMXMXMXMXMXMXMXMXMXMXMXMXMXMXMXMXMXMXMXMX` $ * $ * # * # * .XMXMXMXMXMXMXMXMXMXMXMXMXMXMXMXMXMXMXMXMXMXMXMXNXNXNX",
"NXMXMXMXMXMXMXMXMXMXMXMXMXMXMXMXMXMXMXMXMXMXMXMXMXMXMXMXG.                d.MXMXMXMXMXMXMXMXMXMXMXMXMXMXMXMXMXMXMXMXMXMXMXMXMXNX",
"NXMXMXMXMXMXMXMXMXMXMXMXMXMXMXMXMXMXMXMXMXMXMXMXMXMXMXMXMX3               _ MXMXMXMXMXMXMXMXMXMXMXMXMXMXMXMXMXMXMXMXMXMXMXMXMXNX",
"MXMXMXMXMXMXMXMXMXMXMXMXMXMXMXMXMXMXMXMXMXMXMXMXMXMXMXMXMX!               w MXMXMXMXMXMXMXMXMXMXMXMXMXMXMXMXMXMXMXMXMXMXMXMXMXMX",
"MXMXMXMXMXMXMXMXMXMXMXMXMXMXMXMXMXMXMXMXMXMXMXMXMXMXMXMXMXd.                <XMXMXMXMXMXMXMXMXMXMXMXMXMXMXMXMXMXMXMXMXMXMXMXMXMX",
"MXMXMXMXMXMXMXMXMXMXMXMXMXMXMXMXMXMXMXMXMXMXMXMXMXMXMXMXMX=X                b.MXMXMXMXMXMXMXMXMXMXMXMXMXMXMXMXMXMXMXMXMXMXMXMXMX",
"MXMXMXMXMXMXMXMXMXMXMXMXMXMXMXMXMXMXMXMXMXMXMXMXMXMXMXMXMXMX*               0.MXMXMXMXMXMXMXMXMXMXMXMXMXMXMXMXMXMXMXMXMXMXMXMXMX",
"MXMXMXMXMXMXMXMXMXMXMXMXMXMXMXMXMXMXMXMXMXMXMXMXMXMXMXMXMXMXw               0.MXMXMXMXMXMXMXMXMXMXMXMXMXMXMXMXMXMXMXMXMXMXMXMXMX",
"MXMXMXMXMXMXMXMXMXMXMXMXMXMXMXMXMXMXMXMXMXMXMXMXMXMXMXMXMXMXd               e.MXMXMXMXMXMXMXMXMXMXMXMXMXMXMXMXMXMXMXMXMXMXMXMXMX",
"MXMXMXMXMXMXMXMXMXMXMXMXMXMXMXMXMXMXMXMXMXMXMXMXMXMXMXMXMXMXc               r.MXMXMXMXMXMXMXMXMXMXMXMXMXMXMXMXMXMXMXMXMXMXMXMXMX",
"MXMXMXMXMXMXMXMXMXMXMXMXMXMXMXMXMXMXMXMXMXMXMXMXMXMXMXMXMXMXk               t.MXMXMXMXMXMXMXMXMXMXMXMXMXMXMXMXMXMXMXMXMXMXMXMXMX",
"MXMXMXMXMXMXMXMXMXMXMXMXMXMXMXMXMXMXMXMXMXMXMXMXMXMXMXMXMXMX$               i.MXMXMXMXMXMXMXMXMXMXMXMXMXMXMXMXMXMXMXMXMXMXMXMXMX",
"MXMXMXMXMXMXMXMXMXMXMXMXMXMXMXMXMXMXMXMXMXMXMXMXMXMXMXMXMX=X                d.MXMXMXMXMXMXMXMXMXMXMXMXMXMXMXMXMXMXMXMXMXMXMXMXMX",
"MXMXMXMXMXMXMXMXMXMXMXMXMXMXMXMXMXMXMXMXMXMXMXMXMXMXMXMXMXL.                j.MXMXMXMXMXMXMXMXMXMXMXMXMXMXMXMXMXMXMXMXMXMXMXMXMX",
"MXMXMXMXMXMXMXMXMXMXMXMXMXMXMXMXMXMXMXMXMXMXMXMXMXMXMXMXMXd.                +XMXMXMXMXMXMXMXMXMXMXMXMXMXMXMXMXMXMXMXMXMXMXMXMXMX",
"MXMXMXMXMXMXMXMXMXMXMXMXMXMXMXMXMXMXMXMXMXMXMXMXMXMXMXMXMX`               9 MXMXMXMXMXMXMXMXMXMXMXMXMXMXMXMXMXMXMXMXMXMXMXMXMXMX",
"MXMXMXMXMXMXMXMXMXMXMXMXMXMXMXMXMXMXMXMXMXMXMXMXMXMXMXMX7X$               E MXMXMXMXMXMXMXMXMXMXMXMXMXMXMXMXMXMXMXMXMXMXMXMXMXMX",
"MXMXMXMXMXMXMXMXMXMXMXMXMXMXMXMXMXMXMXMXMXMXMXMXMXMXMXMX,.                0.MXMXMXMXMXMXMXMXMXMXMXMXMXMXMXMXMXMXMXMXMXMXMXMXMXMX",
"MXMXMXMXMXMXMXMXMXMXMXMXMXMXMXMXMXMXMXMXMXMXMXMXMXMXMXsX3                 {.MXMXMXMXMXMXMXMXMXMXMXMXMXMXMXMXMXMXMXMXMXMXMXMXMXMX",
"MXMXMXMXMXMXMXMXMXMXMXMXMXMXMXMXMXMXMXMXMXMXMXMXMXMXMXt.                N MXMXMXMXMXMXMXMXMXMXMXMXMXMXMXMXMXMXMXMXMXMXMXMXMXMXMX",
"MXMXMXMXMXMXMXMXMXMXMXMXMXMXMXMXMXMXMXMXMXMXMXMXMXMX<X9                 M.MXMXMXMXMXMXMXMXMXMXMXMXMXMXMXMXMXMXMXMXMXMXMXMXMXMXMX",
"MXMXMXMXMXMXMXMXMXMXMXMXMXMXMXMXMXMXMXMXMXMXMXMXMXzXN                 w zXMXMXMXMXMXMXMXMXMXMXMXMXMXMXMXMXMXMXMXMXMXMXMXMXMXMXMX",
"MXMXMXMXMXMXMXMXMXMXMXMXMXMXMXMXMXMXMXMXMXMXMXMXMX .                  6.MXMXMXMXMXMXMXMXMXMXMXMXMXMXMXMXMXMXMXMXMXMXMXMXMXMXMXMX",
"MXMXMXMXMXMXMXMXMXMXMXMXMXMXMXMXMXMXMXMXMXMXMXMXd.                  0 iXMXMXMXMXMXMXMXMXMXMXMXMXMXMXMXMXMXMXMXMXMXMXMXMXMXMXMXMX",
"MXMXMXMXMXMXMXMXMXMXMXMXMXMXMXMXMXMXMXMXMXMXMX0.o                   Z.MXMXMXMXMXMXMXMXMXMXMXMXMXMXMXMXMXMXMXMXMXMXMXMXMXMXMXMXMX",
"MXMXMXMXMXMXMXMXMXMXMXMXMXMXMXMXMXMXMXMXMXjX`                     E MXMXMXMXMXMXMXMXMXMXMXMXMXMXMXMXMXMXMXMXMXMXMXMXMXMXMXMXMXMX",
"MXMXMXMXMXMXMXMXMXMXMXMXMXMXMXMXMXMXMXMX<Xn                     3 7XMXMXMXMXMXMXMXMXMXMXMXMXMXMXMXMXMXMXMXMXMXMXMXMXMXMXMXMXMXMX",
"r.zXMXMXMXMXMXMXMXMXMXMXMXMXMXMXMXMX<X#.*                     o A.MXMXMXMXMXMXMXMXMXMXMXMXMXMXMXMXMXMXMXMXMXMXMXMXMXMXMXMXMXMXMX",
"o u b.jXMXMXMXMXMXMXMXMXMXMXMXMX'. .#                         j.MXMXMXMXMXMXMXMXMXMXMXMXMXMXMXMXMXMXMXMXMXMXMXMXMXMXMXMXMXMXMXMX",
"#     * I 2.c.).tXtX<X.X).p.E 3                             0.MXMXMXMXMXMXMXMXMXMXMXMXMXMXMXMXMXMXMXMXMXMXMXMXMXMXMXMXMXMXMXMXMX",
"*                                                         ,.MXMXMXMXMXMXMXMXMXMXMXMXMXMXMXMXMXMXMXMXMXMXMXMXMXMXMXMXMXMXMXMXMXMX",
"*                                                     $ d.MXMXMXMXMXMXMXMXMXMXMXMXMXMXMX<X7XMXMXMXMXMXMXMXMXMXMXMXMXMXMXMXMXMXMX",
"3                                                   w ).MXMXMXMX4X;X;XsXMXMXMXMXMXMXMXMX} :.MXMXMXMXMXMXMXMXMXMXMXMXMXMXMXMXMXMX",
"3                                                 U 9XMXMXMXMX7X#     o.MXMXMXMXMXMXMXMX] :.MXMXMXMXMXMXMXMXMXMXMXMXMXMXMXMXMXMX",
"5                                             c E.MXMXMXMXMXMX0.      < jXMXMXMXiXj.MXMX] :.MXMXMXMXMXMXMXMXMXMXMXMXMXMXMXMXMXMX",
"9                                         z j.MXMXMXMXMXMXMXMXd         b.MXMXMX+X  zXMX] :.MXMXMXMXMXMXMXMXMXMXMXMXMXMXMXMXMXMX",
"N                                   < o.).MXMXMXMXMXMXMXMXMX).    u     G MXMXMX#X  cXMX] :.MXMXMXMXMXMXMXMXMXMXMXMXMXMXMXMXMXMX",
"MX<Xf.E u #                 < G 2.J.dXMXMXMXMXMXMXMXMXMXMXMX}     b.u     <XMXMXm   k E.] -.MXMX).N # z L.n ~.MXuX/ 3  .MXMXMXMX",
"MXMXMXMXMXzX*XL.C.L.Q.'..X;XMXMXMXMXMXMXMXMXMXMXMXMXMXMXMXuX*   $ uX,.    6.MXMXj.  G.tX] :.MXtX$ _ ~.d.g o L.MXi.J Y./ 6XMXMXMX",
"MXMXMXMXMXMXMXMXMXMXMXMXMXMXMXMXMXMXMXMXMXMXMXMXMXMXMXMXMXh.o   U MX.X    g MXMX@X  zXMX] :.MXf.z MXMXMXL.  L.MXd.y }.MXMXMXMXMX",
"MXMXMXMXMXMXMXMXMXMXMXMXMXMXMXMXMXMXMXMXMXMXMXMXMXMXMXMXMXN                 ).MX#X  cXMX] :.MXI 2.MXMXMXMX: L.MXsX&.# E tXMXMXMX",
"MXMXMXMXMXMXMXMXMXMXMXMXMXMXMXMXMXMXMXMXMXMXMXMXMXMXMXMX@Xo                 } MX@X  cXMX] :.MX,.I MXMXMX*X  L.MXMXMX<Xd -.MXMXMX",
"MXMXMXMXMXMXMXMXMXMXMXMXMXMXMXMXMXMXMXMXMXMXMXMXMXMXMXMX:.    ! L.L.L.M.    > dX+X  cXMX] :.MX.X$ Y.MXuX .  L.MX#..XMX#.} MXMXMX",
"MXMXMXMXMXMXMXMXMXMXMXMXMXMXMXMXMXMXMXMXMXMXMXMXMXMXMXcX9     '.MXMXMXMXN     c.+X  cXMX] :.MXMX#.  c 3 U * L.MX4.: S 3 '.MXMXMX",
"MXMXMXMXMXMXMXMXMXMXMXMXMXMXMXMXMXMXMXMXMXMXMXMXMXMXMXdXE.E.~.MXMXMXMXMX*XE.E.*XjXE.MXMX+X=XMXMXMX.Xj.Q.MXW.tXMXMX@XN.dXMXMXMXMX",
"MXMXMXMXMXMXMXMXMXMXMXMXMXMXMXMXMXMXMXMXMXMXMXMXMXMXMXMXMXMXMXMXMXMXMXMXMXMXMXMXMXMXMXMXMXMXMXMXMXMXMXMXMXMXMXMXMXMXMXMXMXMXMXMX",
"MXMXMXMXMXMXMXMXMXMXMXMXMXMXMXMXMXMXMXMXMXMXMXMXMXMXMXMXMXMXMXMXMXMXMXMXMXMXMXMXMXMXMXMXMXMXMXMXMXMXMXMXMXMXMXMXMXMXMXMXMXMXMXMX",
"MXMXMXMXMXMXMXMXMXMXMXMXMXMXMXMXMXMXMXMXMXMXMXMXMXMXMXMXMXMXMXMXMXMXMXMXMXMXMXMXMXMXMXMXMXMX$.).MXMXMXMXMXMXMXMXMXMXMXMXMXMXMXMX",
"MXMXMXMXMXMXMXMXMXMXMXMXMXMXMXMXMXMXMXMXMXMXMXMXMXMXxXp.S g ] j.>XMXMXMXMXMXMXMXMXMXMXMXMXMXz M.MXMXMXMXMXMXMXMXMXMXMXMXMXMXMXMX",
"MXMXMXMXMXMXMXMXMXMXMXMXMXMXMXMXMXMXMXMXMXMXMXMXMXMXo.          S MXMXMXMXMXMXMXMXMXMXMXMXcXl M.MXMXMXMXMXMXMXMXMXMXMXMXMXMXMXMX",
"MXMXMXMXMXMXMXMXMXMXMXMXMXMXMXMXMXMXMXMXMXMXMXMXMX.X    o / c o E.MXMXA U.MXMXMXMXMXMXMXMXMXk M.MXMXMXMXMXMXMXMXMXMXMXMXMXMXMXMX",
"MXMXMXMXMXMXMXMXMXMXMXMXMXMXMXMXMXMXMXMXMXMXMXMXMXj.    S MXMX+XMXMXMXr G.MXMXMXMXMXMXMXMXMXz N.MXMXMXMXMXMXMXMXMXMXMXMXMXMXMXMX",
"MXMXMXMXMXMXMXMXMXMXMXMXMXMXMXMXMXMXMXMXMXMXMXMXMXc.      #._.MXMXMX_.5 :.G.M.cXMXMXMX>XC.MXz N.MXMXdXB.8.G.MXMXMX)..XA.i.dXMXMX",
"MXMXMXMXMXMXMXMXMXMXMXMXMXMXMXMXMXMXMXMXMXMXMXMXMX4X3         S _.MX8.# d 2.& G.MXMXMXU _ MXd N.MX<Xd 9 U * U cXMX{ w N I zXMXMX",
"MXMXMXMXMXMXMXMXMXMXMXMXMXMXMXMXMXMXMXMXMXMXMXMXMXMX#X..$       * <XMXr C.MX&.c MXMX*Xo [.MXz M.MX} N MXMXtX3 j.MX{ k MXMXMXMXMX",
"MXMXMXMXMXMXMXMXMXMXMXMXMXMXMXMXMXMXMXMXMXMXMXMXMXMXMXMXtXt.o   o h.MXr G.MX7X* K.MXO.J MXMXg M.MX9 G &.-.&.k ~ MX{ _ MXMXMXMXMX",
"MXMXMXMXMXMXMXMXMXMXMXMXMXMXMXMXMXMXMXMXMXMXMXMXMXMXb.zXMXMXG     j.MXy A.MXMX-.N tX* W.MXMXk M.MXo { 0.8.0.0.B.MX{ =.MXMXMXMXMX",
"MXMXMXMXMXMXMXMXMXMXMXMXMXMXMXMXMXMXMXMXMXMXMXMXMXE.  k -.#.      [.MXu G.MXMX7X* G A MXMXMXk M.MXz o.MXMXMXB.#XMX{ -.MXMXMXMXMX",
"MXMXMXMXMXMXMXMXMXMXMXMXMXMXMXMXMXMXMXMXMXMXMXMXMXK             o.MXMXw A.MXMXMX:.  G.MXMXMXk M.MXA.$ +.E.2.* Q.MX{ -.MXMXMXMXMX",
"MXMXMXMXMXMXMXMXMXMXMXMXMXMXMXMXMXMXMXMXMXMXMXMXMXdX8.v * # f f.MXMXMX! ).MXMXMX0.z MXMXMXMX} E.MXMXJ.S y ~ E.MXMX0.p.MXMXMXMXMX",
"MXMXMXMXMXMXMXMXMXMXMXMXMXMXMXMXMXMXMXMXMXMXMXMXMXMXMXMXMXcXMXMXMXMXMXMXMXMXMXdX9 b.MXMXMXMXMXMXMXMXMXMXMXMXMXMXMXMXMXMXMXMXMXMX",
"NXMXMXMXMXMXMXMXMXMXMXMXMXMXMXMXMXMXMXMXMXMXMXMXMXMXMXMXMXMXMXMXMXMXMXMXMXMXMXe.u xXMXMXMXMXMXMXMXMXMXMXMXMXMXMXMXMXMXMXMXMXMXNX",
"NXMXMXMXMXMXMXMXMXMXMXMXMXMXMXMXMXMXMXMXMXMXMXMXMXMXMXMXMXMXMXMXMXMXMXMXMXMXzX0 d.MXMXMXMXMXMXMXMXMXMXMXMXMXMXMXMXMXMXMXMXMXMXNX",
"NXNXNXMXMXMXMXMXMXMXMXMXMXMXMXMXMXMXMXMXMXMXMXMXMXMXMXMXMXMXMXMXMXMXMXMXMXMXY.E jXMXMXMXMXMXMXMXMXMXMXMXMXMXMXMXMXMXMXMXMXNXNXNX"
};
