<?xml version="1.0" encoding="UTF-8" standalone="no"?>
<!-- Created with Inkscape (http://www.inkscape.org/) -->
<svg
   xmlns:dc="http://purl.org/dc/elements/1.1/"
   xmlns:cc="http://web.resource.org/cc/"
   xmlns:rdf="http://www.w3.org/1999/02/22-rdf-syntax-ns#"
   xmlns:svg="http://www.w3.org/2000/svg"
   xmlns="http://www.w3.org/2000/svg"
   xmlns:sodipodi="http://sodipodi.sourceforge.net/DTD/sodipodi-0.dtd"
   xmlns:inkscape="http://www.inkscape.org/namespaces/inkscape"
   width="744.09448819"
   height="1052.3622047"
   id="svg3698"
   sodipodi:version="0.32"
   inkscape:version="0.44.1"
   sodipodi:docbase="/home/beppe/Desktop/Grafie"
   sodipodi:docname="opera_captazione.svg">
  <defs
     id="defs3700" />
  <sodipodi:namedview
     id="base"
     pagecolor="#ffffff"
     bordercolor="#666666"
     borderopacity="1.0"
     inkscape:pageopacity="0.0"
     inkscape:pageshadow="2"
     inkscape:zoom="0.35"
     inkscape:cx="375"
     inkscape:cy="520"
     inkscape:document-units="px"
     inkscape:current-layer="layer1"
     inkscape:window-width="959"
     inkscape:window-height="589"
     inkscape:window-x="312"
     inkscape:window-y="400" />
  <metadata
     id="metadata3703">
    <rdf:RDF>
      <cc:Work
         rdf:about="">
        <dc:format>image/svg+xml</dc:format>
        <dc:type
           rdf:resource="http://purl.org/dc/dcmitype/StillImage" />
      </cc:Work>
    </rdf:RDF>
  </metadata>
  <g
     inkscape:label="Livello 1"
     inkscape:groupmode="layer"
     id="layer1">
    <g
       transform="matrix(720,0,0,720,33.67108,207.5275)"
       id="g3694">
      <polygon
         transform="matrix(1.7361e-3,0,0,-1.7361e-3,-3.125e-2,1.1875)"
         points="271.44,404.27 297.82,404.27 297.82,444 271.44,444 271.44,404.27 "
         style="font-style:normal;font-variant:normal;font-weight:normal;font-stretch:normal;letter-spacing:normal;word-spacing:normal;text-anchor:start;fill:black;fill-opacity:1;fill-rule:nonzero;stroke:black;stroke-width:0;stroke-linecap:butt;stroke-linejoin:miter;stroke-miterlimit:10.43299961;stroke-dasharray:none;stroke-dashoffset:0;stroke-opacity:1"
         id="polygon252" />
      <path
         d="M 0.46409405,0.44885889 L 0.46412877,0.44774779 L 0.46419822,0.44665405 L 0.46433711,0.44557766 L 0.46452808,0.44451864 L 0.46477113,0.44347698 L 0.46506627,0.44245269 L 0.46539613,0.44146311 L 0.46577807,0.44047353 L 0.46621209,0.43953604 L 0.4666982,0.43859854 L 0.46720167,0.43769577 L 0.46777458,0.43682772 L 0.46836486,0.43597703 L 0.46900721,0.43517843 L 0.46968429,0.43439718 L 0.47039609,0.43365066 L 0.47114262,0.43293886 L 0.47192386,0.43226178 L 0.47273983,0.43161942 L 0.47357316,0.43101179 L 0.47444121,0.43045623 L 0.47534398,0.4299354 L 0.47628147,0.42946666 L 0.47723633,0.42903263 L 0.47820854,0.42865069 L 0.47919812,0.42832083 L 0.48022242,0.42802569 L 0.48126408,0.42778264 L 0.4823231,0.42759167 L 0.48339948,0.42745278 L 0.48449323,0.42736598 L 0.48560433,0.42734861 C 0.49747926,0.42734861 0.50709725,0.43698397 0.50709725,0.44885889 C 0.50709725,0.46073382 0.49747926,0.47035181 0.48560433,0.47035181 C 0.47372941,0.47035181 0.46409405,0.46073382 0.46409405,0.44885889 z "
         style="font-style:normal;font-variant:normal;font-weight:normal;font-stretch:normal;letter-spacing:normal;word-spacing:normal;text-anchor:start;fill:none;fill-opacity:1;stroke:black;stroke-width:0.00208332;stroke-linecap:butt;stroke-linejoin:miter;stroke-miterlimit:10.43299961;stroke-dasharray:none;stroke-dashoffset:0;stroke-opacity:1"
         id="path254" />
    </g>
  </g>
</svg>
