<?xml version="1.0" encoding="UTF-8" standalone="no"?>
<!-- Created with Inkscape (http://www.inkscape.org/) -->
<svg
   xmlns:dc="http://purl.org/dc/elements/1.1/"
   xmlns:cc="http://web.resource.org/cc/"
   xmlns:rdf="http://www.w3.org/1999/02/22-rdf-syntax-ns#"
   xmlns:svg="http://www.w3.org/2000/svg"
   xmlns="http://www.w3.org/2000/svg"
   xmlns:sodipodi="http://sodipodi.sourceforge.net/DTD/sodipodi-0.dtd"
   xmlns:inkscape="http://www.inkscape.org/namespaces/inkscape"
   width="744.09448819"
   height="1052.3622047"
   id="svg4983"
   sodipodi:version="0.32"
   inkscape:version="0.44.1"
   sodipodi:docbase="/home/beppe/Desktop/Grafie"
   sodipodi:docname="pozzo_con_falda_saliente.svg">
  <defs
     id="defs4985" />
  <sodipodi:namedview
     id="base"
     pagecolor="#ffffff"
     bordercolor="#666666"
     borderopacity="1.0"
     inkscape:pageopacity="0.0"
     inkscape:pageshadow="2"
     inkscape:zoom="0.35"
     inkscape:cx="375"
     inkscape:cy="520"
     inkscape:document-units="px"
     inkscape:current-layer="layer1"
     inkscape:window-width="959"
     inkscape:window-height="589"
     inkscape:window-x="312"
     inkscape:window-y="400" />
  <metadata
     id="metadata4988">
    <rdf:RDF>
      <cc:Work
         rdf:about="">
        <dc:format>image/svg+xml</dc:format>
        <dc:type
           rdf:resource="http://purl.org/dc/dcmitype/StillImage" />
      </cc:Work>
    </rdf:RDF>
  </metadata>
  <g
     inkscape:label="Livello 1"
     inkscape:groupmode="layer"
     id="layer1">
    <g
       id="g4976"
       transform="matrix(720,0,0,720,25.58363,318.7706)">
      <line
         x1="0.45925033"
         y1="0.30259249"
         x2="0.51135069"
         y2="0.30259249"
         style="font-style:normal;font-variant:normal;font-weight:normal;font-stretch:normal;letter-spacing:normal;word-spacing:normal;text-anchor:start;fill:none;fill-opacity:1;stroke:black;stroke-width:0.00260415;stroke-linecap:round;stroke-linejoin:miter;stroke-miterlimit:10.43299961;stroke-dasharray:none;stroke-dashoffset:0;stroke-opacity:1"
         id="line142" />
      <line
         x1="0.48530921"
         y1="0.27717599"
         x2="0.48530921"
         y2="0.32800895"
         style="font-style:normal;font-variant:normal;font-weight:normal;font-stretch:normal;letter-spacing:normal;word-spacing:normal;text-anchor:start;fill:none;fill-opacity:1;stroke:black;stroke-width:0.00260415;stroke-linecap:round;stroke-linejoin:miter;stroke-miterlimit:10.43299961;stroke-dasharray:none;stroke-dashoffset:0;stroke-opacity:1"
         id="line144" />
      <polygon
         transform="matrix(1.7361e-3,0,0,-1.7361e-3,-3.125e-2,1.1875)"
         points="297.54,523.81 294.29,523.81 297.54,531.94 300.79,523.81 297.54,523.81 "
         style="font-style:normal;font-variant:normal;font-weight:normal;font-stretch:normal;letter-spacing:normal;word-spacing:normal;text-anchor:start;fill:black;fill-opacity:1;stroke:black;stroke-width:0;stroke-linecap:butt;stroke-linejoin:miter;stroke-miterlimit:10.43299961;stroke-dasharray:none;stroke-dashoffset:0;stroke-opacity:1"
         id="polygon146" />
      <path
         d="M 0.46810444,0.30259247 L 0.4681218,0.30172442 L 0.46819125,0.30087373 L 0.46829541,0.30002304 L 0.46845166,0.29918971 L 0.46864263,0.29839111 L 0.46886833,0.2975925 L 0.4691461,0.29681126 L 0.4694586,0.29604737 L 0.46980582,0.29530085 L 0.4701704,0.29457169 L 0.47058707,0.29387725 L 0.47103845,0.29318281 L 0.47152456,0.29252309 L 0.47202803,0.29189809 L 0.47256622,0.29129046 L 0.47313913,0.29070018 L 0.47372941,0.29014463 L 0.4743544,0.2896238 L 0.47501412,0.28912033 L 0.4756912,0.28865159 L 0.47638564,0.28821756 L 0.47709744,0.2878009 L 0.47784396,0.28743632 L 0.47860785,0.28710646 L 0.47938909,0.28679396 L 0.4801877,0.28653354 L 0.48100367,0.28630785 L 0.48183699,0.28611688 L 0.48268768,0.28597799 L 0.48353837,0.28585647 L 0.48442378,0.28580438 L 0.48530919,0.28576966 C 0.49480566,0.28576966 0.50249658,0.29330433 0.50249658,0.30259247 C 0.50249658,0.31186324 0.49480566,0.31938056 0.48530919,0.31938056 C 0.47579537,0.31938056 0.46810444,0.31186324 0.46810444,0.30259247 z "
         style="font-style:normal;font-variant:normal;font-weight:normal;font-stretch:normal;letter-spacing:normal;word-spacing:normal;text-anchor:start;fill:white;fill-opacity:1;fill-rule:nonzero;stroke:white;stroke-width:0;stroke-linecap:butt;stroke-linejoin:miter;stroke-miterlimit:10.43299961;stroke-dasharray:none;stroke-dashoffset:0;stroke-opacity:1"
         id="path148" />
      <path
         d="M 0.46810444,0.30259247 L 0.4681218,0.30172442 L 0.46819125,0.30087373 L 0.46829541,0.30002304 L 0.46845166,0.29918971 L 0.46864263,0.29839111 L 0.46886833,0.2975925 L 0.4691461,0.29681126 L 0.4694586,0.29604737 L 0.46980582,0.29530085 L 0.4701704,0.29457169 L 0.47058707,0.29387725 L 0.47103845,0.29318281 L 0.47152456,0.29252309 L 0.47202803,0.29189809 L 0.47256622,0.29129046 L 0.47313913,0.29070018 L 0.47372941,0.29014463 L 0.4743544,0.2896238 L 0.47501412,0.28912033 L 0.4756912,0.28865159 L 0.47638564,0.28821756 L 0.47709744,0.2878009 L 0.47784396,0.28743632 L 0.47860785,0.28710646 L 0.47938909,0.28679396 L 0.4801877,0.28653354 L 0.48100367,0.28630785 L 0.48183699,0.28611688 L 0.48268768,0.28597799 L 0.48353837,0.28585647 L 0.48442378,0.28580438 L 0.48530919,0.28576966 C 0.49480566,0.28576966 0.50249658,0.29330433 0.50249658,0.30259247 C 0.50249658,0.31186324 0.49480566,0.31938056 0.48530919,0.31938056 C 0.47579537,0.31938056 0.46810444,0.31186324 0.46810444,0.30259247 z "
         style="font-style:normal;font-variant:normal;font-weight:normal;font-stretch:normal;letter-spacing:normal;word-spacing:normal;text-anchor:start;fill:none;fill-opacity:1;stroke:black;stroke-width:0.00260415;stroke-linecap:butt;stroke-linejoin:miter;stroke-miterlimit:10.43299961;stroke-dasharray:none;stroke-dashoffset:0;stroke-opacity:1"
         id="path150" />
    </g>
  </g>
</svg>
