<?xml version="1.0" encoding="UTF-8" standalone="no"?>
<!-- Created with Inkscape (http://www.inkscape.org/) -->
<svg
   xmlns:dc="http://purl.org/dc/elements/1.1/"
   xmlns:cc="http://web.resource.org/cc/"
   xmlns:rdf="http://www.w3.org/1999/02/22-rdf-syntax-ns#"
   xmlns:svg="http://www.w3.org/2000/svg"
   xmlns="http://www.w3.org/2000/svg"
   xmlns:sodipodi="http://sodipodi.sourceforge.net/DTD/sodipodi-0.dtd"
   xmlns:inkscape="http://www.inkscape.org/namespaces/inkscape"
   width="744.09448819"
   height="1052.3622047"
   id="svg5004"
   sodipodi:version="0.32"
   inkscape:version="0.44.1"
   sodipodi:docbase="/home/beppe/Desktop/Grafie"
   sodipodi:docname="pozzo_con_falda_artesiana.svg">
  <defs
     id="defs5006" />
  <sodipodi:namedview
     id="base"
     pagecolor="#ffffff"
     bordercolor="#666666"
     borderopacity="1.0"
     inkscape:pageopacity="0.0"
     inkscape:pageshadow="2"
     inkscape:zoom="0.35"
     inkscape:cx="375"
     inkscape:cy="520"
     inkscape:document-units="px"
     inkscape:current-layer="layer1"
     inkscape:window-width="959"
     inkscape:window-height="589"
     inkscape:window-x="312"
     inkscape:window-y="400" />
  <metadata
     id="metadata5009">
    <rdf:RDF>
      <cc:Work
         rdf:about="">
        <dc:format>image/svg+xml</dc:format>
        <dc:type
           rdf:resource="http://purl.org/dc/dcmitype/StillImage" />
      </cc:Work>
    </rdf:RDF>
  </metadata>
  <g
     inkscape:label="Livello 1"
     inkscape:groupmode="layer"
     id="layer1">
    <g
       id="g4997"
       transform="matrix(720,0,0,720,25.25239,224.9399)">
      <line
         x1="0.45971906"
         y1="0.42915416"
         x2="0.51180208"
         y2="0.42915416"
         style="font-style:normal;font-variant:normal;font-weight:normal;font-stretch:normal;letter-spacing:normal;word-spacing:normal;text-anchor:start;fill:none;fill-opacity:1;stroke:black;stroke-width:0.00260415;stroke-linecap:round;stroke-linejoin:miter;stroke-miterlimit:10.43299961;stroke-dasharray:none;stroke-dashoffset:0;stroke-opacity:1"
         id="line154" />
      <polyline
         transform="matrix(1.7361e-3,0,0,-1.7361e-3,-3.125e-2,1.1875)"
         points="303.07,451.45 297.8,451.45 297.8,422.18 "
         style="font-style:normal;font-variant:normal;font-weight:normal;font-stretch:normal;letter-spacing:normal;word-spacing:normal;text-anchor:start;fill:none;fill-opacity:1;stroke:black;stroke-width:1.5;stroke-linecap:round;stroke-linejoin:miter;stroke-miterlimit:10.43299961;stroke-dasharray:none;stroke-dashoffset:0;stroke-opacity:1"
         id="polyline156" />
      <polygon
         transform="matrix(1.7361e-3,0,0,-1.7361e-3,-3.125e-2,1.1875)"
         points="302.53,451.45 302.53,454.7 310.66,451.45 302.53,448.2 302.53,451.45 "
         style="font-style:normal;font-variant:normal;font-weight:normal;font-stretch:normal;letter-spacing:normal;word-spacing:normal;text-anchor:start;fill:black;fill-opacity:1;stroke:black;stroke-width:0;stroke-linecap:butt;stroke-linejoin:miter;stroke-miterlimit:10.43299961;stroke-dasharray:none;stroke-dashoffset:0;stroke-opacity:1"
         id="polygon158" />
      <path
         d="M 0.46855583,0.42915416 L 0.46859055,0.42828611 L 0.46865999,0.42743542 L 0.46876416,0.42658473 L 0.46892041,0.42576876 L 0.46911138,0.4249528 L 0.46933707,0.42415419 L 0.46961485,0.42337295 L 0.46990999,0.42260906 L 0.47025721,0.42186254 L 0.47063915,0.42113338 L 0.47105581,0.42043894 L 0.4715072,0.4197445 L 0.47197595,0.41910214 L 0.47249678,0.41845978 L 0.47303497,0.41785215 L 0.47360788,0.41726187 L 0.47419815,0.41670632 L 0.47482315,0.41618549 L 0.47546551,0.41568202 L 0.47614259,0.41521328 L 0.47685439,0.41477925 L 0.47756619,0.41437995 L 0.47831271,0.41399801 L 0.47907659,0.41366815 L 0.47985784,0.41337301 L 0.48065645,0.41309523 L 0.48147241,0.41286954 L 0.48230574,0.41267857 L 0.48313907,0.41253968 L 0.48400712,0.41243552 L 0.48487517,0.41236607 L 0.48576058,0.41234871 C 0.49525705,0.41234871 0.50296533,0.41986602 0.50296533,0.42915416 C 0.50296533,0.43842493 0.49525705,0.44595961 0.48576058,0.44595961 C 0.47626411,0.44595961 0.46855583,0.43842493 0.46855583,0.42915416 z "
         style="font-style:normal;font-variant:normal;font-weight:normal;font-stretch:normal;letter-spacing:normal;word-spacing:normal;text-anchor:start;fill:white;fill-opacity:1;fill-rule:nonzero;stroke:white;stroke-width:0;stroke-linecap:butt;stroke-linejoin:miter;stroke-miterlimit:10.43299961;stroke-dasharray:none;stroke-dashoffset:0;stroke-opacity:1"
         id="path160" />
      <path
         d="M 0.46855583,0.42915416 L 0.46859055,0.42828611 L 0.46865999,0.42743542 L 0.46876416,0.42658473 L 0.46892041,0.42576876 L 0.46911138,0.4249528 L 0.46933707,0.42415419 L 0.46961485,0.42337295 L 0.46990999,0.42260906 L 0.47025721,0.42186254 L 0.47063915,0.42113338 L 0.47105581,0.42043894 L 0.4715072,0.4197445 L 0.47197595,0.41910214 L 0.47249678,0.41845978 L 0.47303497,0.41785215 L 0.47360788,0.41726187 L 0.47419815,0.41670632 L 0.47482315,0.41618549 L 0.47546551,0.41568202 L 0.47614259,0.41521328 L 0.47685439,0.41477925 L 0.47756619,0.41437995 L 0.47831271,0.41399801 L 0.47907659,0.41366815 L 0.47985784,0.41337301 L 0.48065645,0.41309523 L 0.48147241,0.41286954 L 0.48230574,0.41267857 L 0.48313907,0.41253968 L 0.48400712,0.41243552 L 0.48487517,0.41236607 L 0.48576058,0.41234871 C 0.49525705,0.41234871 0.50296533,0.41986602 0.50296533,0.42915416 C 0.50296533,0.43842493 0.49525705,0.44595961 0.48576058,0.44595961 C 0.47626411,0.44595961 0.46855583,0.43842493 0.46855583,0.42915416 z "
         style="font-style:normal;font-variant:normal;font-weight:normal;font-stretch:normal;letter-spacing:normal;word-spacing:normal;text-anchor:start;fill:none;fill-opacity:1;stroke:black;stroke-width:0.00260415;stroke-linecap:butt;stroke-linejoin:miter;stroke-miterlimit:10.43299961;stroke-dasharray:none;stroke-dashoffset:0;stroke-opacity:1"
         id="path162" />
    </g>
  </g>
</svg>
