<?xml version="1.0" encoding="UTF-8"?>
<!DOCTYPE svg PUBLIC "-//W3C//DTD SVG 1.1//EN" "http://www.w3.org/Graphics/SVG/1.1/DTD/svg11.dtd" [
<!ATTLIST svg
	xmlns:attrib CDATA #IMPLIED
>
]>
<svg width="100%" height="100%" viewBox="699166.04 -4713273.89 43.23 43.91" xmlns="http://www.w3.org/2000/svg" xmlns:xlink="http://www.w3.org/1999/xlink" xmlns:attrib="http://www.carto.net/attrib/">
	<g id="e:\ardito\wp4\tabellasimboli\ulivetosvg" fill="none" stroke="black" stroke-width="0.02" stroke-linecap="round" stroke-linejoin="round">
		<path d="M699174.52 -4713231.02l26.25 0M699187.92 -4713231.11l.95 -2.35l.88 -3.35l0 -1.9l-.3 -1.97l-1.6 -4.67M699193.24 -4713245.37l-5.48 0l-4.53 -.08l-3.15 -.23l-1.75 -.27l-2.58 -.52l-2.55 -1.45l-1.03 -1.32l-2.55 -3l-1.33 -2.25l-1.02 -2.65l-.23 -2.62l.07 -2.2l.52 -2.48l.8 -1.75l1.4 -2.12l1.83 -1.75l1.9 -1.25l1.9 -.87l2.25 -.65l2.92 0l1.9 .42l1.55 1.03l2.33 1.55l3.3 2.55l2.63 1.4l1.82 .57l1.7 .3l2.47 -.23l1.47 .07l4.37 1.1l1.33 1.15l1.38 1.78l.87 2.4l.45 2.55l-.38 2.5l-.65 2.55l-.87 1.4l-1.1 1.45l-1.97 1.4l-1.68 1.02l-2.85 .28l-5.5 .22" />
	</g>
</svg>