<?xml version="1.0" encoding="UTF-8" standalone="no"?>
<!-- Created with Inkscape (http://www.inkscape.org/) -->
<svg
   xmlns:dc="http://purl.org/dc/elements/1.1/"
   xmlns:cc="http://web.resource.org/cc/"
   xmlns:rdf="http://www.w3.org/1999/02/22-rdf-syntax-ns#"
   xmlns:svg="http://www.w3.org/2000/svg"
   xmlns="http://www.w3.org/2000/svg"
   xmlns:sodipodi="http://sodipodi.sourceforge.net/DTD/sodipodi-0.dtd"
   xmlns:inkscape="http://www.inkscape.org/namespaces/inkscape"
   width="744.09448819"
   height="1052.3622047"
   id="svg4945"
   sodipodi:version="0.32"
   inkscape:version="0.44.1"
   sodipodi:docbase="/home/beppe/Desktop/Grafie"
   sodipodi:docname="pozzo_freatico.svg">
  <defs
     id="defs4947" />
  <sodipodi:namedview
     id="base"
     pagecolor="#ffffff"
     bordercolor="#666666"
     borderopacity="1.0"
     inkscape:pageopacity="0.0"
     inkscape:pageshadow="2"
     inkscape:zoom="0.35"
     inkscape:cx="375"
     inkscape:cy="520"
     inkscape:document-units="px"
     inkscape:current-layer="layer1"
     inkscape:window-width="959"
     inkscape:window-height="589"
     inkscape:window-x="312"
     inkscape:window-y="400" />
  <metadata
     id="metadata4950">
    <rdf:RDF>
      <cc:Work
         rdf:about="">
        <dc:format>image/svg+xml</dc:format>
        <dc:type
           rdf:resource="http://purl.org/dc/dcmitype/StillImage" />
      </cc:Work>
    </rdf:RDF>
  </metadata>
  <g
     inkscape:label="Livello 1"
     inkscape:groupmode="layer"
     id="layer1">
    <g
       transform="matrix(720,0,0,720,-521.4226,225.7797)"
       id="g4939">
      <line
         x1="1.0790999"
         y1="0.20358679"
         x2="1.1312002"
         y2="0.20358679"
         style="font-style:normal;font-variant:normal;font-weight:normal;font-stretch:normal;letter-spacing:normal;word-spacing:normal;text-anchor:start;fill:none;fill-opacity:1;stroke:black;stroke-width:0.00260415;stroke-linecap:round;stroke-linejoin:miter;stroke-miterlimit:10.43299961;stroke-dasharray:none;stroke-dashoffset:0;stroke-opacity:1"
         id="line132" />
      <line
         x1="1.1051414"
         y1="0.17817026"
         x2="1.1051414"
         y2="0.22900331"
         style="font-style:normal;font-variant:normal;font-weight:normal;font-stretch:normal;letter-spacing:normal;word-spacing:normal;text-anchor:start;fill:none;fill-opacity:1;stroke:black;stroke-width:0.00260415;stroke-linecap:round;stroke-linejoin:miter;stroke-miterlimit:10.43299961;stroke-dasharray:none;stroke-dashoffset:0;stroke-opacity:1"
         id="line134" />
      <path
         d="M 1.087954,0.20358678 L 1.0879713,0.20271873 L 1.0880408,0.20186804 L 1.088145,0.20101735 L 1.0883012,0.20020139 L 1.0884922,0.19938542 L 1.0887179,0.19858681 L 1.0889956,0.19780557 L 1.0893081,0.19704168 L 1.0896554,0.19629516 L 1.0900199,0.195566 L 1.0904366,0.19487156 L 1.090888,0.19417712 L 1.0913741,0.19353476 L 1.0918776,0.1928924 L 1.0924158,0.19228477 L 1.0929887,0.1916945 L 1.093579,0.19113894 L 1.0942039,0.19061811 L 1.0948637,0.19011464 L 1.0955407,0.1896459 L 1.0962352,0.18921187 L 1.096947,0.18879521 L 1.0976935,0.18843063 L 1.0984574,0.18810077 L 1.0992386,0.18778827 L 1.1000372,0.18752786 L 1.1008532,0.18730216 L 1.1016865,0.18711119 L 1.1025372,0.1869723 L 1.1033879,0.18686814 L 1.104256,0.18679869 L 1.1051414,0.18676397 C 1.1146552,0.18676397 1.1223461,0.19429865 1.1223461,0.20358678 C 1.1223461,0.21285755 1.1146552,0.22037487 1.1051414,0.22037487 C 1.0956623,0.22037487 1.087954,0.21285755 1.087954,0.20358678 z "
         style="font-style:normal;font-variant:normal;font-weight:normal;font-stretch:normal;letter-spacing:normal;word-spacing:normal;text-anchor:start;fill:white;fill-opacity:1;fill-rule:nonzero;stroke:white;stroke-width:0;stroke-linecap:butt;stroke-linejoin:miter;stroke-miterlimit:10.43299961;stroke-dasharray:none;stroke-dashoffset:0;stroke-opacity:1"
         id="path136" />
      <path
         d="M 1.087954,0.20358678 L 1.0879713,0.20271873 L 1.0880408,0.20186804 L 1.088145,0.20101735 L 1.0883012,0.20020139 L 1.0884922,0.19938542 L 1.0887179,0.19858681 L 1.0889956,0.19780557 L 1.0893081,0.19704168 L 1.0896554,0.19629516 L 1.0900199,0.195566 L 1.0904366,0.19487156 L 1.090888,0.19417712 L 1.0913741,0.19353476 L 1.0918776,0.1928924 L 1.0924158,0.19228477 L 1.0929887,0.1916945 L 1.093579,0.19113894 L 1.0942039,0.19061811 L 1.0948637,0.19011464 L 1.0955407,0.1896459 L 1.0962352,0.18921187 L 1.096947,0.18879521 L 1.0976935,0.18843063 L 1.0984574,0.18810077 L 1.0992386,0.18778827 L 1.1000372,0.18752786 L 1.1008532,0.18730216 L 1.1016865,0.18711119 L 1.1025372,0.1869723 L 1.1033879,0.18686814 L 1.104256,0.18679869 L 1.1051414,0.18676397 C 1.1146552,0.18676397 1.1223461,0.19429865 1.1223461,0.20358678 C 1.1223461,0.21285755 1.1146552,0.22037487 1.1051414,0.22037487 C 1.0956623,0.22037487 1.087954,0.21285755 1.087954,0.20358678 z "
         style="font-style:normal;font-variant:normal;font-weight:normal;font-stretch:normal;letter-spacing:normal;word-spacing:normal;text-anchor:start;fill:none;fill-opacity:1;stroke:black;stroke-width:0.00260415;stroke-linecap:butt;stroke-linejoin:miter;stroke-miterlimit:10.43299961;stroke-dasharray:none;stroke-dashoffset:0;stroke-opacity:1"
         id="path138" />
    </g>
  </g>
</svg>
