<?xml version="1.0" encoding="UTF-8" standalone="no"?>
<!-- Created with Inkscape (http://www.inkscape.org/) -->
<svg
   xmlns:dc="http://purl.org/dc/elements/1.1/"
   xmlns:cc="http://web.resource.org/cc/"
   xmlns:rdf="http://www.w3.org/1999/02/22-rdf-syntax-ns#"
   xmlns:svg="http://www.w3.org/2000/svg"
   xmlns="http://www.w3.org/2000/svg"
   xmlns:sodipodi="http://sodipodi.sourceforge.net/DTD/sodipodi-0.dtd"
   xmlns:inkscape="http://www.inkscape.org/namespaces/inkscape"
   width="744.09448819"
   height="1052.3622047"
   id="svg3754"
   sodipodi:version="0.32"
   inkscape:version="0.44.1"
   sodipodi:docbase="/home/beppe/Desktop/Grafie"
   sodipodi:docname="serbatoio.svg">
  <defs
     id="defs3756" />
  <sodipodi:namedview
     id="base"
     pagecolor="#ffffff"
     bordercolor="#666666"
     borderopacity="1.0"
     inkscape:pageopacity="0.0"
     inkscape:pageshadow="2"
     inkscape:zoom="0.35"
     inkscape:cx="375"
     inkscape:cy="520"
     inkscape:document-units="px"
     inkscape:current-layer="layer1"
     inkscape:window-width="959"
     inkscape:window-height="589"
     inkscape:window-x="312"
     inkscape:window-y="400" />
  <metadata
     id="metadata3759">
    <rdf:RDF>
      <cc:Work
         rdf:about="">
        <dc:format>image/svg+xml</dc:format>
        <dc:type
           rdf:resource="http://purl.org/dc/dcmitype/StillImage" />
      </cc:Work>
    </rdf:RDF>
  </metadata>
  <g
     inkscape:label="Livello 1"
     inkscape:groupmode="layer"
     id="layer1">
    <g
       transform="matrix(720,0,0,720,253.0307,-137.5319)"
       id="g3750">
      <path
         d="M 0.15564116,0.94708487 L 0.15564116,0.94708487 L 0.15560644,0.94708487 L 0.15555436,0.94710223 L 0.15548492,0.94710223 L 0.15539811,0.94710223 L 0.15529394,0.94710223 L 0.15518978,0.94710223 L 0.15505089,0.94710223 L 0.15489464,0.94710223 L 0.15473839,0.94710223 L 0.15456478,0.94710223 L 0.15437381,0.94708487 L 0.15393979,0.94706751 L 0.1534884,0.94705015 L 0.15298493,0.94699807 L 0.15244674,0.94692862 L 0.15187383,0.94685918 L 0.15128355,0.94673765 L 0.15067592,0.94661613 L 0.15005092,0.94645988 L 0.14940857,0.94626891 L 0.14876621,0.94606057 L 0.14814121,0.94580016 L 0.14751622,0.94550502 L 0.14689122,0.94517516 L 0.14630095,0.94481058 L 0.14600581,0.94460225 L 0.14571067,0.94439392 L 0.1454329,0.94416822 L 0.14517248,0.94392517 L 0.14491207,0.94368212 L 0.14465165,0.94340434 L 0.1444086,0.94312656 L 0.14418291,0.94284879 L 0.14395721,0.94253629 L 0.14374888,0.94222379 L 0.14354055,0.94189393 L 0.14334958,0.94154671 L 0.14317597,0.94118213 L 0.14301972,0.94081755 L 0.14288083,0.94041825 L 0.14274194,0.94001894 L 0.14263778,0.93958492 L 0.14253361,0.93915089 L 0.14246417,0.93869951 L 0.14239472,0.9382134 L 0.14235653,0.93772729 L 0.14233222,0.93722382 L 0.14232875,0.93668563 L 0.14234611,0.93614744 C 0.14293291,0.92430724 0.14146417,0.91955033 0.14558915,0.91718923 C 0.1497037,0.9148455 0.14940857,0.91336981 0.16065849,0.91336981 C 0.17189106,0.91336981 0.17989448,0.91277954 0.18518959,0.91336981 C 0.19048469,0.91396008 0.19701243,0.91689409 0.19643952,0.92666834 C 0.19584924,0.93644258 0.19437356,0.9464946 0.18400904,0.94738001 C 0.17366188,0.94826542 0.15564116,0.94708487 0.15564116,0.94708487 z "
         style="font-style:normal;font-variant:normal;font-weight:normal;font-stretch:normal;letter-spacing:normal;word-spacing:normal;text-anchor:start;fill:none;fill-opacity:1;stroke:black;stroke-width:0.0017361;stroke-linecap:butt;stroke-linejoin:miter;stroke-miterlimit:10.43299961;stroke-dasharray:none;stroke-dashoffset:0;stroke-opacity:1"
         id="path236" />
      <path
         d="M 0.15826268,0.94392517 L 0.15826268,0.94392517 L 0.15822795,0.94392517 L 0.15819323,0.94392517 L 0.15814115,0.94392517 L 0.1580717,0.94392517 L 0.1579849,0.94392517 L 0.15788073,0.94392517 L 0.15777657,0.94392517 L 0.15765504,0.94392517 L 0.15753351,0.94392517 L 0.15737727,0.94392517 L 0.15722102,0.94392517 L 0.15689116,0.94390781 L 0.15650922,0.94387309 L 0.15610991,0.94383837 L 0.15567589,0.94378628 L 0.15520714,0.94371684 L 0.15472103,0.94363003 L 0.15423492,0.94352587 L 0.15373145,0.94340434 L 0.15321062,0.94324809 L 0.15268979,0.94307448 L 0.15218633,0.94286615 L 0.1516655,0.94264046 L 0.15117939,0.94236268 L 0.15069328,0.94206754 L 0.15045023,0.94191129 L 0.15022453,0.94173768 L 0.14999884,0.94154671 L 0.14977315,0.94135574 L 0.14956482,0.94114741 L 0.14935648,0.94093908 L 0.14916551,0.94071339 L 0.14897454,0.94048769 L 0.14878357,0.94022728 L 0.14860996,0.93998422 L 0.14845371,0.93970645 L 0.14829746,0.93942867 L 0.14815857,0.93913353 L 0.14803705,0.9388384 L 0.14791552,0.93850854 L 0.14781135,0.93817868 L 0.14772455,0.93784882 L 0.14763774,0.93748424 L 0.14758566,0.93711966 L 0.14753358,0.93673772 L 0.14749886,0.93633841 L 0.14748149,0.93592175 L 0.14748149,0.93548772 L 0.14748149,0.9350537 C 0.1479676,0.92547043 0.14676969,0.92161629 0.15010301,0.91970657 C 0.15345368,0.91779687 0.15321062,0.91659896 0.16230779,0.91659896 C 0.17142231,0.91659896 0.17789797,0.91613021 0.18218613,0.91659896 C 0.1864743,0.91708506 0.19176941,0.91946352 0.19130066,0.92738014 C 0.19081455,0.93529675 0.189634,0.94343906 0.18123128,0.94415086 C 0.17284592,0.94488003 0.15826268,0.94392517 0.15826268,0.94392517 z "
         style="font-style:normal;font-variant:normal;font-weight:normal;font-stretch:normal;letter-spacing:normal;word-spacing:normal;text-anchor:start;fill:none;fill-opacity:1;stroke:black;stroke-width:0.00140624;stroke-linecap:butt;stroke-linejoin:miter;stroke-miterlimit:10.43299961;stroke-dasharray:0.0034722, 0.0034722;stroke-dashoffset:0;stroke-opacity:1"
         id="path238" />
    </g>
  </g>
</svg>
