<?xml version="1.0" encoding="UTF-8"?>
<!DOCTYPE svg PUBLIC "-//W3C//DTD SVG 1.1//EN" "http://www.w3.org/Graphics/SVG/1.1/DTD/svg11.dtd" [
<!ATTLIST svg
	xmlns:attrib CDATA #IMPLIED
>
]>
<svg
   width="50px"
   height="50px"
   overflow="visible"
   preserveAspectRatio="xMinYMin meet"
viewBox="710323.3 -4709901.69 185.89 198.33" xmlns="http://www.w3.org/2000/svg" xmlns:xlink="http://www.w3.org/1999/xlink" xmlns:attrib="http://www.carto.net/attrib/">
	<g id="e:\ardito\wp4\tabellasimboli\macchiasvg" fill="none" stroke="#00BD25" stroke-width="2" stroke-linecap="round" stroke-linejoin="round">
		<path d="M710375.93 -4709843.45l-.1 -.63l-.35 -.95l-.62 -.62l-.78 -.5M710384.4 -4709844.4l.35 -1.38l.1 -1.72l-.1 -1.52l-.22 -1.75l-.73 -1.97l-.9 -1.55l-.8 -1.15l-1.23 -1.17M710392.23 -4709844.35l.62 -3l.73 -2.45l.95 -2.65l.62 -1.47l1.35 -2.42l.78 -1.33M710399.93 -4709843.68l0 -.85l.17 -.95l.35 -.9l.38 -.8l.75 -.55M710327.15 -4709888.73l-.23 -1.12l-.33 -.5l-.45 -.53l-.8 -.55M710334.75 -4709888.95l0 -2.07l-.15 -1.43l-.68 -2.02l-.53 -1.1l-.95 -1.48l-.55 -.77M710342.28 -4709888.45l.07 -1.9l.28 -1.92l.62 -2.18l.6 -1.35l1.03 -1.7l1.25 -1.85M710351.13 -4709888.85l.05 -1.1l.23 -.98l.55 -1.17l.8 -1M710392.8 -4709885.93l-.48 -1.85l-1.28 -1.42l-1.77 -.68l-1.9 .23l-1.58 1.07l-.9 1.7l0 1.92l.9 1.68l1.58 1.1l1.9 .23l1.77 -.67l1.28 -1.43l.48 -1.87M710361.1 -4709870.58l-.45 -1.85l-1.27 -1.42l-1.8 -.68l-1.9 .23l-1.58 1.07l-.87 1.7l0 1.92l.87 1.68l1.58 1.1l1.9 .23l1.8 -.68l1.27 -1.42l.45 -1.88M710337.83 -4709860.68l-.45 -1.85l-1.27 -1.42l-1.8 -.68l-1.9 .23l-1.58 1.07l-.87 1.7l0 1.93l.87 1.7l1.58 1.08l1.9 .23l1.8 -.68l1.27 -1.42l.45 -1.88M710350.2 -4709831.95l-.45 -1.85l-1.28 -1.42l-1.77 -.7l-1.93 .25l-1.58 1.07l-.87 1.7l0 1.92l.87 1.68l1.58 1.1l1.93 .23l1.77 -.68l1.28 -1.42l.45 -1.88M710407.15 -4709831.45l-.45 -1.85l-1.27 -1.45l-1.8 -.67l-1.9 .23l-1.58 1.1l-.87 1.7l0 1.9l.87 1.7l1.58 1.1l1.9 .23l1.8 -.68l1.27 -1.45l.45 -1.85M710379.43 -4709809.65l-.47 -1.87l-1.25 -1.43l-1.8 -.68l-1.9 .23l-1.58 1.07l-.9 1.7l0 1.92l.9 1.7l1.58 1.07l1.9 .23l1.8 -.68l1.25 -1.42l.47 -1.85" />
	</g>
</svg>
