<?xml version="1.0" encoding="UTF-8" standalone="no"?>
<!DOCTYPE svg PUBLIC "-//W3C//DTD SVG 20010904//EN"
"http://www.w3.org/TR/2001/REC-SVG-20010904/DTD/svg10.dtd">
<!-- Created with Sodipodi ("http://www.sodipodi.com/") -->
<svg
   id="svg559"
   sodipodi:version="0.32"
   width="233.33mm"
   height="140mm"
   sodipodi:docbase="/home/cschalle/sodipodi-flags"
   sodipodi:docname="/home/cschalle/sodipodi-flags/banana_republic.svg"
   xmlns="http://www.w3.org/2000/svg"
   xmlns:sodipodi="http://sodipodi.sourceforge.net/DTD/sodipodi-0.dtd"
   xmlns:xlink="http://www.w3.org/1999/xlink">
  <defs
     id="defs561">
    <linearGradient
       id="linearGradient668">
      <stop
         style="stop-color:#ffef45;stop-opacity:1;"
         offset="0.000000"
         id="stop669" />
      <stop
         style="stop-color:#ffffff;stop-opacity:1;"
         offset="1.000000"
         id="stop670" />
    </linearGradient>
    <linearGradient
       xlink:href="#linearGradient668"
       id="linearGradient671" />
    <radialGradient
       xlink:href="#linearGradient668"
       id="radialGradient672"
       cx="0.49999967"
       cy="0.50000006"
       fx="0.49999967"
       fy="0.50000006"
       r="0.50000000"
       gradientUnits="objectBoundingBox"
       spreadMethod="pad" />
  </defs>
  <sodipodi:namedview
     id="base" />
  <rect
     style="font-size:12;fill:#009a00;fill-rule:evenodd;stroke-width:1pt;fill-opacity:1;"
     id="rect567"
     width="825.288879"
     height="494.373659"
     x="1.987106"
     y="1.584571" />
  <path
     sodipodi:type="arc"
     style="fill-rule:evenodd;stroke:none;fill:#ff0000;fill-opacity:1;stroke-opacity:1;stroke-width:1pt;stroke-linejoin:miter;stroke-linecap:butt;"
     id="path742"
     d="M 517.419373 231.144287 A 97.274841 99.344521 0 1 0 322.869690,231.144287 A 97.2748 99.3445 0 1 0 517.419 231.144 L 420.144531 231.144287 z"
     sodipodi:cx="420.144531"
     sodipodi:cy="231.144287"
     sodipodi:rx="97.274841"
     sodipodi:ry="99.344521"
     transform="matrix(2.062856,0.000000,0.000000,2.007259,-455.6447,-204.8293)" />
  <g
     id="g705"
     transform="matrix(0.454808,0.000000,0.000000,0.454808,243.3623,70.31348)">
    <path
       style="font-size:12;fill:#ffb700;fill-rule:evenodd;stroke:#000000;stroke-width:6.03303pt;"
       d="M 498.687 176.561 C 539.923 521.541 214.376 507.685 71.8726 530.44 C 11.3082 537.831 36.7549 579.064 36.7549 579.064 C 36.7549 579.064 161.176 831.094 523.242 643.497 C 704.015 548.924 676.975 368.358 676.975 368.358 C 676.975 368.358 656.185 217.256 590.534 176.561 C 542.324 144.452 544.611 149.548 528.4 133.34 C 512.195 117.132 498.687 71.2084 498.687 71.2084 C 498.687 71.2084 412.246 -7.13082 423.051 79.3126 C 442.393 140.15 490.699 140.13 498.687 176.561 z "
       id="path552"
       sodipodi:nodetypes="cccscscccc"
       sodipodi:fill-cmyk="(0 0.283019 1 0)" />
    <path
       style="font-size:12;fill:#ffffd7;fill-rule:evenodd;stroke-width:1pt;"
       d="M 409.682 440.089 C 490.114 396.833 515.543 377.911 525.944 296.592 C 537.063 211.46 500.189 192.791 500.189 191.534 C 500.189 190.277 501.444 166.388 501.444 166.388 L 558.022 176.446 L 600.772 352.469 L 477.553 505.86 C 477.553 505.86 216.037 561.182 214.78 561.182 C 213.523 561.182 72.7045 537.293 72.7045 537.293 L 73.9618 532.263 C 73.9618 532.263 363.163 500.439 409.682 440.089 z "
       id="path557"
       sodipodi:nodetypes="csccccccccc" />
    <path
       style="font-size:12;fill:#fff52e;fill-rule:evenodd;stroke-width:1pt;"
       d="M 450.435 86.7531 L 498.928 69.5752 C 498.928 69.5752 505.215 112.323 520.303 124.897 C 535.392 137.47 568.085 167.645 574.372 166.388 C 580.658 165.131 630.949 277.031 630.949 277.031 L 630.949 415.334 L 516.533 572.497 L 182.09 605.187 L 58.8744 541.064 L 75.2191 531.006 C 75.2191 531.006 328.769 571.219 480.902 449.262 C 633.037 327.304 536.647 191.534 536.647 191.534 C 536.647 191.534 510.246 170.16 498.928 167.645 C 492.624 160.123 452.951 153.39 450.435 86.7531 z "
       id="path556"
       sodipodi:nodetypes="cccccccccccccc"
       transform="translate(0.000000,-3.051758e-5)" />
    <path
       style="font-size:12;fill:#f3d500;fill-rule:evenodd;stroke-width:1pt;"
       d="M 315.364 671.822 C 327.745 668.285 655.986 635.707 667.407 328.58 C 649.809 202.85 571.856 165.131 571.856 165.131 C 571.856 165.131 618.642 292.253 616.132 329.972 C 613.616 367.692 592.537 441.121 526.867 498.027 C 459.038 554.922 327.937 586.602 286.446 586.602 C 244.955 586.602 90.3071 563.696 65.1608 544.837 C 40.0145 525.977 55.1025 651.708 315.364 671.822 z "
       id="path555"
       sodipodi:nodetypes="cccssccc"
       sodipodi:fill-cmyk="(0 0.12549 1 0.0471698)" />
    <path
       style="font-size:12;stroke-width:1pt;"
       id="path554"
       d="M 58.4744 578.848 C 53.3698 574.233 49.1603 574.102 45.6874 574.27 C 22.3914 568.263 30.7611 549.948 34.4424 543.822 C 38.1238 537.696 92.5658 512.348 63.9488 565.302 C 66.4308 571.556 144.033 662.371 335.46 668.268 C 166.467 688.917 63.9102 583.765 58.4744 578.848 z "
       sodipodi:nodetypes="ccsccs" />
    <path
       style="font-size:12;fill:#cb8100;fill-rule:evenodd;stroke:#000000;stroke-width:6.03303pt;"
       d="M 425.036 46.9067 C 421.7 53.5841 418.207 74.4873 430.309 85.4216 C 450.194 87.2792 474.169 88.3711 498.066 69.4425 C 486.652 43.4387 434.604 23.9269 425.036 46.9067 z "
       id="path553"
       sodipodi:nodetypes="cccc" />
    <path
       style="font-size:12;fill:none;fill-rule:evenodd;stroke:#000000;stroke-width:6.03303pt;"
       d="M 498.687 176.561 C 539.923 521.541 214.376 507.685 71.8726 530.44 C 11.3082 537.831 36.7549 579.064 36.7549 579.064 C 36.7549 579.064 161.176 831.094 523.242 643.497 C 704.015 548.924 676.975 368.358 676.975 368.358 C 676.975 368.358 656.185 217.256 590.534 176.561 C 542.324 144.452 544.611 149.548 528.4 133.34 C 512.195 117.132 498.687 71.2084 498.687 71.2084 C 498.161 54.3718 409.615 -1.86943 423.051 79.3126 C 442.393 140.15 490.699 140.13 498.687 176.561 z "
       id="path575"
       sodipodi:nodetypes="cccscscccc" />
  </g>
  <rect
     style="font-size:12;fill:#fff52e;fill-rule:evenodd;stroke-width:1pt;fill-opacity:1;"
     id="rect731"
     width="196.820590"
     height="495.372406"
     x="632.407035"
     y="1.057440" />
  <rect
     style="font-size:12;fill:#fff52e;fill-rule:evenodd;stroke-width:1pt;fill-opacity:1;"
     id="rect732"
     width="194.967178"
     height="495.372414"
     x="0.000000"
     y="1.057422" />
  <g
     id="g764"
     transform="matrix(0.240147,0.000000,0.000000,0.240147,650.7029,5.991577)">
    <path
       style="font-size:12;fill:#ffb700;fill-rule:evenodd;stroke:#000000;stroke-width:6.03303pt;"
       d="M 498.687 176.561 C 539.923 521.541 214.376 507.685 71.8726 530.44 C 11.3082 537.831 36.7549 579.064 36.7549 579.064 C 36.7549 579.064 161.176 831.094 523.242 643.497 C 704.015 548.924 676.975 368.358 676.975 368.358 C 676.975 368.358 656.185 217.256 590.534 176.561 C 542.324 144.452 544.611 149.548 528.4 133.34 C 512.195 117.132 498.687 71.2084 498.687 71.2084 C 498.687 71.2084 412.246 -7.13082 423.051 79.3126 C 442.393 140.15 490.699 140.13 498.687 176.561 z "
       id="path765"
       sodipodi:nodetypes="cccscscccc"
       sodipodi:fill-cmyk="(0 0.283019 1 0)" />
    <path
       style="font-size:12;fill:#ffffd7;fill-rule:evenodd;stroke-width:1pt;"
       d="M 409.682 440.089 C 490.114 396.833 515.543 377.911 525.944 296.592 C 537.063 211.46 500.189 192.791 500.189 191.534 C 500.189 190.277 501.444 166.388 501.444 166.388 L 558.022 176.446 L 600.772 352.469 L 477.553 505.86 C 477.553 505.86 216.037 561.182 214.78 561.182 C 213.523 561.182 72.7045 537.293 72.7045 537.293 L 73.9618 532.263 C 73.9618 532.263 363.163 500.439 409.682 440.089 z "
       id="path766"
       sodipodi:nodetypes="csccccccccc" />
    <path
       style="font-size:12;fill:#fff52e;fill-rule:evenodd;stroke-width:1pt;"
       d="M 450.435 86.7531 L 498.928 69.5752 C 498.928 69.5752 505.215 112.323 520.303 124.897 C 535.392 137.47 568.085 167.645 574.372 166.388 C 580.658 165.131 630.949 277.031 630.949 277.031 L 630.949 415.334 L 516.533 572.497 L 182.09 605.187 L 58.8744 541.064 L 75.2191 531.006 C 75.2191 531.006 328.769 571.219 480.902 449.262 C 633.037 327.304 536.647 191.534 536.647 191.534 C 536.647 191.534 510.246 170.16 498.928 167.645 C 492.624 160.123 452.951 153.39 450.435 86.7531 z "
       id="path767"
       sodipodi:nodetypes="cccccccccccccc"
       transform="translate(0.000000,-3.051758e-5)" />
    <path
       style="font-size:12;fill:#f3d500;fill-rule:evenodd;stroke-width:1pt;"
       d="M 315.364 671.822 C 327.745 668.285 655.986 635.707 667.407 328.58 C 649.809 202.85 571.856 165.131 571.856 165.131 C 571.856 165.131 618.642 292.253 616.132 329.972 C 613.616 367.692 592.537 441.121 526.867 498.027 C 459.038 554.922 327.937 586.602 286.446 586.602 C 244.955 586.602 90.3071 563.696 65.1608 544.837 C 40.0145 525.977 55.1025 651.708 315.364 671.822 z "
       id="path768"
       sodipodi:nodetypes="cccssccc"
       sodipodi:fill-cmyk="(0 0.12549 1 0.0471698)" />
    <path
       style="font-size:12;stroke-width:1pt;"
       id="path769"
       d="M 58.4744 578.848 C 53.3698 574.233 49.1603 574.102 45.6874 574.27 C 22.3914 568.263 30.7611 549.948 34.4424 543.822 C 38.1238 537.696 92.5658 512.348 63.9488 565.302 C 66.4308 571.556 144.033 662.371 335.46 668.268 C 166.467 688.917 63.9102 583.765 58.4744 578.848 z "
       sodipodi:nodetypes="ccsccs" />
    <path
       style="font-size:12;fill:#cb8100;fill-rule:evenodd;stroke:#000000;stroke-width:6.03303pt;"
       d="M 425.036 46.9067 C 421.7 53.5841 418.207 74.4873 430.309 85.4216 C 450.194 87.2792 474.169 88.3711 498.066 69.4425 C 486.652 43.4387 434.604 23.9269 425.036 46.9067 z "
       id="path770"
       sodipodi:nodetypes="cccc" />
    <path
       style="font-size:12;fill:none;fill-rule:evenodd;stroke:#000000;stroke-width:6.03303pt;"
       d="M 498.687 176.561 C 539.923 521.541 214.376 507.685 71.8726 530.44 C 11.3082 537.831 36.7549 579.064 36.7549 579.064 C 36.7549 579.064 161.176 831.094 523.242 643.497 C 704.015 548.924 676.975 368.358 676.975 368.358 C 676.975 368.358 656.185 217.256 590.534 176.561 C 542.324 144.452 544.611 149.548 528.4 133.34 C 512.195 117.132 498.687 71.2084 498.687 71.2084 C 498.161 54.3718 409.615 -1.86943 423.051 79.3126 C 442.393 140.15 490.699 140.13 498.687 176.561 z "
       id="path771"
       sodipodi:nodetypes="cccscscccc" />
  </g>
  <g
     id="g788"
     transform="matrix(0.240147,0.000000,0.000000,0.240147,646.6937,310.6893)">
    <path
       style="font-size:12;fill:#ffb700;fill-rule:evenodd;stroke:#000000;stroke-width:6.03303pt;"
       d="M 498.687 176.561 C 539.923 521.541 214.376 507.685 71.8726 530.44 C 11.3082 537.831 36.7549 579.064 36.7549 579.064 C 36.7549 579.064 161.176 831.094 523.242 643.497 C 704.015 548.924 676.975 368.358 676.975 368.358 C 676.975 368.358 656.185 217.256 590.534 176.561 C 542.324 144.452 544.611 149.548 528.4 133.34 C 512.195 117.132 498.687 71.2084 498.687 71.2084 C 498.687 71.2084 412.246 -7.13082 423.051 79.3126 C 442.393 140.15 490.699 140.13 498.687 176.561 z "
       id="path789"
       sodipodi:nodetypes="cccscscccc"
       sodipodi:fill-cmyk="(0 0.283019 1 0)" />
    <path
       style="font-size:12;fill:#ffffd7;fill-rule:evenodd;stroke-width:1pt;"
       d="M 409.682 440.089 C 490.114 396.833 515.543 377.911 525.944 296.592 C 537.063 211.46 500.189 192.791 500.189 191.534 C 500.189 190.277 501.444 166.388 501.444 166.388 L 558.022 176.446 L 600.772 352.469 L 477.553 505.86 C 477.553 505.86 216.037 561.182 214.78 561.182 C 213.523 561.182 72.7045 537.293 72.7045 537.293 L 73.9618 532.263 C 73.9618 532.263 363.163 500.439 409.682 440.089 z "
       id="path790"
       sodipodi:nodetypes="csccccccccc" />
    <path
       style="font-size:12;fill:#fff52e;fill-rule:evenodd;stroke-width:1pt;"
       d="M 450.435 86.7531 L 498.928 69.5752 C 498.928 69.5752 505.215 112.323 520.303 124.897 C 535.392 137.47 568.085 167.645 574.372 166.388 C 580.658 165.131 630.949 277.031 630.949 277.031 L 630.949 415.334 L 516.533 572.497 L 182.09 605.187 L 58.8744 541.064 L 75.2191 531.006 C 75.2191 531.006 328.769 571.219 480.902 449.262 C 633.037 327.304 536.647 191.534 536.647 191.534 C 536.647 191.534 510.246 170.16 498.928 167.645 C 492.624 160.123 452.951 153.39 450.435 86.7531 z "
       id="path791"
       sodipodi:nodetypes="cccccccccccccc"
       transform="translate(0.000000,-3.051758e-5)" />
    <path
       style="font-size:12;fill:#f3d500;fill-rule:evenodd;stroke-width:1pt;"
       d="M 315.364 671.822 C 327.745 668.285 655.986 635.707 667.407 328.58 C 649.809 202.85 571.856 165.131 571.856 165.131 C 571.856 165.131 618.642 292.253 616.132 329.972 C 613.616 367.692 592.537 441.121 526.867 498.027 C 459.038 554.922 327.937 586.602 286.446 586.602 C 244.955 586.602 90.3071 563.696 65.1608 544.837 C 40.0145 525.977 55.1025 651.708 315.364 671.822 z "
       id="path792"
       sodipodi:nodetypes="cccssccc"
       sodipodi:fill-cmyk="(0 0.12549 1 0.0471698)" />
    <path
       style="font-size:12;stroke-width:1pt;"
       id="path793"
       d="M 58.4744 578.848 C 53.3698 574.233 49.1603 574.102 45.6874 574.27 C 22.3914 568.263 30.7611 549.948 34.4424 543.822 C 38.1238 537.696 92.5658 512.348 63.9488 565.302 C 66.4308 571.556 144.033 662.371 335.46 668.268 C 166.467 688.917 63.9102 583.765 58.4744 578.848 z "
       sodipodi:nodetypes="ccsccs" />
    <path
       style="font-size:12;fill:#cb8100;fill-rule:evenodd;stroke:#000000;stroke-width:6.03303pt;"
       d="M 425.036 46.9067 C 421.7 53.5841 418.207 74.4873 430.309 85.4216 C 450.194 87.2792 474.169 88.3711 498.066 69.4425 C 486.652 43.4387 434.604 23.9269 425.036 46.9067 z "
       id="path794"
       sodipodi:nodetypes="cccc" />
    <path
       style="font-size:12;fill:none;fill-rule:evenodd;stroke:#000000;stroke-width:6.03303pt;"
       d="M 498.687 176.561 C 539.923 521.541 214.376 507.685 71.8726 530.44 C 11.3082 537.831 36.7549 579.064 36.7549 579.064 C 36.7549 579.064 161.176 831.094 523.242 643.497 C 704.015 548.924 676.975 368.358 676.975 368.358 C 676.975 368.358 656.185 217.256 590.534 176.561 C 542.324 144.452 544.611 149.548 528.4 133.34 C 512.195 117.132 498.687 71.2084 498.687 71.2084 C 498.161 54.3718 409.615 -1.86943 423.051 79.3126 C 442.393 140.15 490.699 140.13 498.687 176.561 z "
       id="path795"
       sodipodi:nodetypes="cccscscccc" />
  </g>
  <g
     id="g796"
     transform="matrix(0.240147,0.000000,0.000000,0.240147,9.233942,310.6894)">
    <path
       style="font-size:12;fill:#ffb700;fill-rule:evenodd;stroke:#000000;stroke-width:6.03303pt;"
       d="M 498.687 176.561 C 539.923 521.541 214.376 507.685 71.8726 530.44 C 11.3082 537.831 36.7549 579.064 36.7549 579.064 C 36.7549 579.064 161.176 831.094 523.242 643.497 C 704.015 548.924 676.975 368.358 676.975 368.358 C 676.975 368.358 656.185 217.256 590.534 176.561 C 542.324 144.452 544.611 149.548 528.4 133.34 C 512.195 117.132 498.687 71.2084 498.687 71.2084 C 498.687 71.2084 412.246 -7.13082 423.051 79.3126 C 442.393 140.15 490.699 140.13 498.687 176.561 z "
       id="path797"
       sodipodi:nodetypes="cccscscccc"
       sodipodi:fill-cmyk="(0 0.283019 1 0)" />
    <path
       style="font-size:12;fill:#ffffd7;fill-rule:evenodd;stroke-width:1pt;"
       d="M 409.682 440.089 C 490.114 396.833 515.543 377.911 525.944 296.592 C 537.063 211.46 500.189 192.791 500.189 191.534 C 500.189 190.277 501.444 166.388 501.444 166.388 L 558.022 176.446 L 600.772 352.469 L 477.553 505.86 C 477.553 505.86 216.037 561.182 214.78 561.182 C 213.523 561.182 72.7045 537.293 72.7045 537.293 L 73.9618 532.263 C 73.9618 532.263 363.163 500.439 409.682 440.089 z "
       id="path798"
       sodipodi:nodetypes="csccccccccc" />
    <path
       style="font-size:12;fill:#fff52e;fill-rule:evenodd;stroke-width:1pt;"
       d="M 450.435 86.7531 L 498.928 69.5752 C 498.928 69.5752 505.215 112.323 520.303 124.897 C 535.392 137.47 568.085 167.645 574.372 166.388 C 580.658 165.131 630.949 277.031 630.949 277.031 L 630.949 415.334 L 516.533 572.497 L 182.09 605.187 L 58.8744 541.064 L 75.2191 531.006 C 75.2191 531.006 328.769 571.219 480.902 449.262 C 633.037 327.304 536.647 191.534 536.647 191.534 C 536.647 191.534 510.246 170.16 498.928 167.645 C 492.624 160.123 452.951 153.39 450.435 86.7531 z "
       id="path799"
       sodipodi:nodetypes="cccccccccccccc"
       transform="translate(0.000000,-3.051758e-5)" />
    <path
       style="font-size:12;fill:#f3d500;fill-rule:evenodd;stroke-width:1pt;"
       d="M 315.364 671.822 C 327.745 668.285 655.986 635.707 667.407 328.58 C 649.809 202.85 571.856 165.131 571.856 165.131 C 571.856 165.131 618.642 292.253 616.132 329.972 C 613.616 367.692 592.537 441.121 526.867 498.027 C 459.038 554.922 327.937 586.602 286.446 586.602 C 244.955 586.602 90.3071 563.696 65.1608 544.837 C 40.0145 525.977 55.1025 651.708 315.364 671.822 z "
       id="path800"
       sodipodi:nodetypes="cccssccc"
       sodipodi:fill-cmyk="(0 0.12549 1 0.0471698)" />
    <path
       style="font-size:12;stroke-width:1pt;"
       id="path801"
       d="M 58.4744 578.848 C 53.3698 574.233 49.1603 574.102 45.6874 574.27 C 22.3914 568.263 30.7611 549.948 34.4424 543.822 C 38.1238 537.696 92.5658 512.348 63.9488 565.302 C 66.4308 571.556 144.033 662.371 335.46 668.268 C 166.467 688.917 63.9102 583.765 58.4744 578.848 z "
       sodipodi:nodetypes="ccsccs" />
    <path
       style="font-size:12;fill:#cb8100;fill-rule:evenodd;stroke:#000000;stroke-width:6.03303pt;"
       d="M 425.036 46.9067 C 421.7 53.5841 418.207 74.4873 430.309 85.4216 C 450.194 87.2792 474.169 88.3711 498.066 69.4425 C 486.652 43.4387 434.604 23.9269 425.036 46.9067 z "
       id="path802"
       sodipodi:nodetypes="cccc" />
    <path
       style="font-size:12;fill:none;fill-rule:evenodd;stroke:#000000;stroke-width:6.03303pt;"
       d="M 498.687 176.561 C 539.923 521.541 214.376 507.685 71.8726 530.44 C 11.3082 537.831 36.7549 579.064 36.7549 579.064 C 36.7549 579.064 161.176 831.094 523.242 643.497 C 704.015 548.924 676.975 368.358 676.975 368.358 C 676.975 368.358 656.185 217.256 590.534 176.561 C 542.324 144.452 544.611 149.548 528.4 133.34 C 512.195 117.132 498.687 71.2084 498.687 71.2084 C 498.161 54.3718 409.615 -1.86943 423.051 79.3126 C 442.393 140.15 490.699 140.13 498.687 176.561 z "
       id="path803"
       sodipodi:nodetypes="cccscscccc" />
  </g>
  <g
     id="g804"
     transform="matrix(0.240147,0.000000,0.000000,0.240147,13.24310,5.991577)">
    <path
       style="font-size:12;fill:#ffb700;fill-rule:evenodd;stroke:#000000;stroke-width:6.03303pt;"
       d="M 498.687 176.561 C 539.923 521.541 214.376 507.685 71.8726 530.44 C 11.3082 537.831 36.7549 579.064 36.7549 579.064 C 36.7549 579.064 161.176 831.094 523.242 643.497 C 704.015 548.924 676.975 368.358 676.975 368.358 C 676.975 368.358 656.185 217.256 590.534 176.561 C 542.324 144.452 544.611 149.548 528.4 133.34 C 512.195 117.132 498.687 71.2084 498.687 71.2084 C 498.687 71.2084 412.246 -7.13082 423.051 79.3126 C 442.393 140.15 490.699 140.13 498.687 176.561 z "
       id="path805"
       sodipodi:nodetypes="cccscscccc"
       sodipodi:fill-cmyk="(0 0.283019 1 0)" />
    <path
       style="font-size:12;fill:#ffffd7;fill-rule:evenodd;stroke-width:1pt;"
       d="M 409.682 440.089 C 490.114 396.833 515.543 377.911 525.944 296.592 C 537.063 211.46 500.189 192.791 500.189 191.534 C 500.189 190.277 501.444 166.388 501.444 166.388 L 558.022 176.446 L 600.772 352.469 L 477.553 505.86 C 477.553 505.86 216.037 561.182 214.78 561.182 C 213.523 561.182 72.7045 537.293 72.7045 537.293 L 73.9618 532.263 C 73.9618 532.263 363.163 500.439 409.682 440.089 z "
       id="path806"
       sodipodi:nodetypes="csccccccccc" />
    <path
       style="font-size:12;fill:#fff52e;fill-rule:evenodd;stroke-width:1pt;"
       d="M 450.435 86.7531 L 498.928 69.5752 C 498.928 69.5752 505.215 112.323 520.303 124.897 C 535.392 137.47 568.085 167.645 574.372 166.388 C 580.658 165.131 630.949 277.031 630.949 277.031 L 630.949 415.334 L 516.533 572.497 L 182.09 605.187 L 58.8744 541.064 L 75.2191 531.006 C 75.2191 531.006 328.769 571.219 480.902 449.262 C 633.037 327.304 536.647 191.534 536.647 191.534 C 536.647 191.534 510.246 170.16 498.928 167.645 C 492.624 160.123 452.951 153.39 450.435 86.7531 z "
       id="path807"
       sodipodi:nodetypes="cccccccccccccc"
       transform="translate(0.000000,-3.051758e-5)" />
    <path
       style="font-size:12;fill:#f3d500;fill-rule:evenodd;stroke-width:1pt;"
       d="M 315.364 671.822 C 327.745 668.285 655.986 635.707 667.407 328.58 C 649.809 202.85 571.856 165.131 571.856 165.131 C 571.856 165.131 618.642 292.253 616.132 329.972 C 613.616 367.692 592.537 441.121 526.867 498.027 C 459.038 554.922 327.937 586.602 286.446 586.602 C 244.955 586.602 90.3071 563.696 65.1608 544.837 C 40.0145 525.977 55.1025 651.708 315.364 671.822 z "
       id="path808"
       sodipodi:nodetypes="cccssccc"
       sodipodi:fill-cmyk="(0 0.12549 1 0.0471698)" />
    <path
       style="font-size:12;stroke-width:1pt;"
       id="path809"
       d="M 58.4744 578.848 C 53.3698 574.233 49.1603 574.102 45.6874 574.27 C 22.3914 568.263 30.7611 549.948 34.4424 543.822 C 38.1238 537.696 92.5658 512.348 63.9488 565.302 C 66.4308 571.556 144.033 662.371 335.46 668.268 C 166.467 688.917 63.9102 583.765 58.4744 578.848 z "
       sodipodi:nodetypes="ccsccs" />
    <path
       style="font-size:12;fill:#cb8100;fill-rule:evenodd;stroke:#000000;stroke-width:6.03303pt;"
       d="M 425.036 46.9067 C 421.7 53.5841 418.207 74.4873 430.309 85.4216 C 450.194 87.2792 474.169 88.3711 498.066 69.4425 C 486.652 43.4387 434.604 23.9269 425.036 46.9067 z "
       id="path810"
       sodipodi:nodetypes="cccc" />
    <path
       style="font-size:12;fill:none;fill-rule:evenodd;stroke:#000000;stroke-width:6.03303pt;"
       d="M 498.687 176.561 C 539.923 521.541 214.376 507.685 71.8726 530.44 C 11.3082 537.831 36.7549 579.064 36.7549 579.064 C 36.7549 579.064 161.176 831.094 523.242 643.497 C 704.015 548.924 676.975 368.358 676.975 368.358 C 676.975 368.358 656.185 217.256 590.534 176.561 C 542.324 144.452 544.611 149.548 528.4 133.34 C 512.195 117.132 498.687 71.2084 498.687 71.2084 C 498.161 54.3718 409.615 -1.86943 423.051 79.3126 C 442.393 140.15 490.699 140.13 498.687 176.561 z "
       id="path811"
       sodipodi:nodetypes="cccscscccc" />
  </g>
</svg>
